{
.appVersion = "3151";
DisplayStrings = (
"l/lslash.ss01 ll",
"f/fi",
"¢",
"d/caroncomb.alt/Lcaron/dcaron o/space/lcaron/tcaron/lcaron.ss01/dcaron",
S,
"¾",
"oafnHOgy\012",
"/tildecomb/tildecomb.case A",
"21ª/space",
"n1/space ª",
"/Gcommaaccent",
"ae/space/space",
Adguy,
"AÁ/Abreve/Acaron ÂÄÀ/Amacron/Aogonek ÅÃ/gravecomb",
"HOn/space/space/space o\012ONNDA",
"A/ring/ringcomb/ring/ringcomb.case Å"
);
classes = (
{
automatic = 1;
code = "A Aacute Abreve Acaron Acircumflex Adieresis Agrave Amacron Aogonek Aring Atilde AE B C Cacute Ccaron Ccedilla Cdotaccent D Eth Dcaron Dcroat E Eacute Ecaron Ecircumflex Edieresis Edotaccent Egrave Emacron Eogonek Etilde Schwa F G Gbreve Gcommaaccent Gdotaccent Gmacron H Hbar I IJ Iacute Icaron Icircumflex Idieresis Idotaccent Igrave Imacron Iogonek Itilde J Jacute K Kcommaaccent L Lacute Lcaron Lcommaaccent Lslash M N Nacute Ncaron Ncommaaccent Ntilde O Oacute Ocaron Ocircumflex Odieresis Ograve Ohungarumlaut Omacron Oslash Otilde OE P Thorn Q R Racute Rcaron Rcommaaccent S Sacute Scaron Scedilla Scommaaccent Germandbls T Tcaron Tcedilla Tcommaaccent U Uacute Ucaron Ucircumflex Udieresis Ugrave Uhungarumlaut Umacron Uogonek Uring Utilde V W Wacute Wcircumflex Wdieresis Wgrave X Y Yacute Ycircumflex Ydieresis Ygrave Ytilde Z Zacute Zcaron Zdotaccent Lcommaaccent.loclMAH Ncommaaccent.loclMAH I.ss01 IJ.ss01 Iacute.ss01 Icircumflex.ss01 Idieresis.ss01 Idotaccent.ss01 Igrave.ss01 Imacron.ss01 Iogonek.ss01 Itilde.ss01 Q.ss01";
name = Uppercase;
}
);
copyright = "© Nunzio Mazzaferro and Collletttivo, 2023";
customParameters = (
{
name = "Use Typo Metrics";
value = 1;
},
{
name = glyphOrder;
value = (
);
},
{
name = unicodeRanges;
value = (
0,
1,
2
);
},
{
name = vendorID;
value = CLT;
},
{
name = license;
value = "SIL OpenFont License";
},
{
name = licenseURL;
value = "https://scripts.sil.org/OFL_web";
},
{
name = Axes;
value = (
{
Name = Weight;
Tag = wght;
}
);
}
);
date = "2020-04-20 10:57:36 +0000";
designer = "Nunzio Mazzaferro";

glyphs = (
{
glyphname = A;
lastChange = "2023-09-17 15:40:37 +0000";
layers = (
{
anchors = (
{
name = bottom;
position = "{387, 0}";
},
{
name = ogonek;
position = "{758, 6}";
},
{
name = top;
position = "{387, 600}";
}
);
layerId = "6BCBDBF6-8315-4194-A290-F71994A92467";
paths = (
{
closed = 1;
nodes = (
"409 538 LINE",
"362 538 LINE",
"619 0 LINE",
"762 0 LINE",
"452 600 LINE",
"319 600 LINE",
"12 0 LINE",
"152 0 LINE"
);
},
{
closed = 1;
nodes = (
"202 144 LINE",
"564 144 LINE",
"564 244 LINE",
"210 244 LINE"
);
}
);
width = 774;
},
{
associatedMasterId = "6BCBDBF6-8315-4194-A290-F71994A92467";
layerId = "697832EB-163A-429C-8980-FAB6860436DF";
name = foreground;
paths = (
{
closed = 1;
nodes = (
"390 476 LINE",
"631 0 LINE",
"774 0 LINE",
"461 600 LINE",
"320 600 LINE",
"8 0 LINE",
"148 0 LINE"
);
},
{
closed = 1;
nodes = (
"214 146 LINE",
"568 146 LINE",
"568 250 LINE",
"214 250 LINE"
);
}
);
width = 782;
},
{
anchors = (
{
name = bottom;
position = "{457, 0}";
},
{
name = ogonek;
position = "{871, 8}";
},
{
name = top;
position = "{457, 600}";
}
);
layerId = "4F9EBE27-C263-4ED9-B2A0-4AD0096E628D";
paths = (
{
closed = 1;
nodes = (
"499 536 LINE",
"395 536 LINE",
"618 0 LINE",
"909 0 LINE",
"615 600 LINE",
"296 600 LINE",
"5 0 LINE",
"276 0 LINE"
);
},
{
closed = 1;
nodes = (
"270 110 LINE",
"616 110 LINE",
"616 234 LINE",
"278 234 LINE"
);
}
);
width = 912;
}
);
leftKerningGroup = A;
rightKerningGroup = A;
unicode = 0041;
},
{
glyphname = AE;
lastChange = "2023-09-18 16:35:21 +0000";
layers = (
{
anchors = (
{
name = bottom;
position = "{533, 0}";
},
{
name = top;
position = "{533, 600}";
}
);
layerId = "6BCBDBF6-8315-4194-A290-F71994A92467";
paths = (
{
closed = 1;
nodes = (
"392 496 LINE",
"511 496 LINE",
"550 600 LINE",
"318 600 LINE",
"8 0 LINE",
"150 0 LINE"
);
},
{
closed = 1;
nodes = (
"216 186 LINE",
"546 186 LINE",
"546 290 LINE",
"216 290 LINE"
);
},
{
closed = 1;
nodes = (
"1029 0 LINE",
"1029 104 LINE",
"610 104 LINE",
"610 251 LINE",
"979 251 LINE",
"979 355 LINE",
"610 355 LINE",
"610 496 LINE",
"1022 496 LINE",
"1022 600 LINE",
"482 600 LINE",
"482 0 LINE"
);
}
);
width = 1065;
},
{
anchors = (
{
name = bottom;
position = "{237, 0}";
},
{
name = top;
position = "{237, 600}";
}
);
background = {
paths = (
{
closed = 1;
nodes = (
"503 536 LINE",
"399 536 LINE",
"622 0 LINE",
"913 0 LINE",
"619 600 LINE",
"300 600 LINE",
"9 0 LINE",
"280 0 LINE"
);
},
{
closed = 1;
nodes = (
"274 110 LINE",
"620 110 LINE",
"620 234 LINE",
"282 234 LINE"
);
}
);
};
layerId = "4F9EBE27-C263-4ED9-B2A0-4AD0096E628D";
paths = (
{
closed = 1;
nodes = (
"473 448 LINE",
"512 448 LINE",
"547 600 LINE",
"306 600 LINE",
"5 0 LINE",
"277 0 LINE"
);
},
{
closed = 1;
nodes = (
"213 131 LINE",
"543 131 LINE",
"543 266 LINE",
"213 266 LINE"
);
},
{
closed = 1;
nodes = (
"1153 0 LINE",
"1153 160 LINE",
"752 160 LINE",
"752 238 LINE",
"1112 238 LINE",
"1112 371 LINE",
"752 371 LINE",
"752 448 LINE",
"1146 448 LINE",
"1146 600 LINE",
"504 600 LINE",
"504 0 LINE"
);
}
);
width = 1183;
}
);
leftKerningGroup = A;
rightKerningGroup = E;
rightMetricsKey = E;
unicode = 00C6;
},
{
glyphname = B;
lastChange = "2023-09-17 15:40:37 +0000";
layers = (
{
anchors = (
{
name = bottom;
position = "{341, 0}";
},
{
name = center;
position = "{347, 300}";
},
{
name = top;
position = "{341, 600}";
}
);
background = {
paths = (
{
closed = 1;
nodes = (
"464 0 LINE SMOOTH",
"598 0 OFFCURVE",
"670 53 OFFCURVE",
"670 149 CURVE SMOOTH",
"670 240 OFFCURVE",
"606 306 OFFCURVE",
"515 308 CURVE",
"594 314 OFFCURVE",
"648 371 OFFCURVE",
"648 450 CURVE SMOOTH",
"648 546 OFFCURVE",
"570 600 OFFCURVE",
"427 600 CURVE SMOOTH",
"43 600 LINE",
"43 0 LINE"
);
},
{
closed = 1;
nodes = (
"171 496 LINE",
"413 496 LINE SMOOTH",
"480 496 OFFCURVE",
"516 471 OFFCURVE",
"516 424 CURVE SMOOTH",
"516 378 OFFCURVE",
"481 354 OFFCURVE",
"416 354 CURVE SMOOTH",
"171 354 LINE"
);
},
{
closed = 1;
nodes = (
"171 255 LINE",
"419 255 LINE SMOOTH",
"494 255 OFFCURVE",
"538 226 OFFCURVE",
"538 175 CURVE SMOOTH",
"538 131 OFFCURVE",
"505 104 OFFCURVE",
"450 104 CURVE SMOOTH",
"171 104 LINE"
);
}
);
};
guideLines = (
{
position = "{379, 222}";
}
);
layerId = "6BCBDBF6-8315-4194-A290-F71994A92467";
paths = (
{
closed = 1;
nodes = (
"464 0 LINE SMOOTH",
"598 0 OFFCURVE",
"670 61 OFFCURVE",
"670 157 CURVE SMOOTH",
"670 244 OFFCURVE",
"610 306 OFFCURVE",
"532 308 CURVE",
"598 315 OFFCURVE",
"648 368 OFFCURVE",
"648 442 CURVE SMOOTH",
"648 538 OFFCURVE",
"570 600 OFFCURVE",
"427 600 CURVE SMOOTH",
"56 600 LINE",
"56 0 LINE"
);
},
{
closed = 1;
nodes = (
"176 500 LINE",
"413 500 LINE SMOOTH",
"480 500 OFFCURVE",
"516 475 OFFCURVE",
"516 424 CURVE SMOOTH",
"516 378 OFFCURVE",
"481 354 OFFCURVE",
"416 354 CURVE SMOOTH",
"176 354 LINE"
);
},
{
closed = 1;
nodes = (
"176 255 LINE",
"419 255 LINE SMOOTH",
"494 255 OFFCURVE",
"538 226 OFFCURVE",
"538 175 CURVE SMOOTH",
"538 129 OFFCURVE",
"505 102 OFFCURVE",
"450 102 CURVE SMOOTH",
"176 102 LINE"
);
}
);
width = 694;
},
{
associatedMasterId = "6BCBDBF6-8315-4194-A290-F71994A92467";
guideLines = (
{
position = "{395, 222}";
}
);
layerId = "0B912536-1948-490B-A378-AA6B4ECC8F78";
name = foreground;
paths = (
{
closed = 1;
nodes = (
"477 0 LINE SMOOTH",
"610 0 OFFCURVE",
"683 61 OFFCURVE",
"683 157 CURVE SMOOTH",
"683 244 OFFCURVE",
"622 306 OFFCURVE",
"545 308 CURVE",
"611 315 OFFCURVE",
"661 368 OFFCURVE",
"661 442 CURVE SMOOTH",
"661 538 OFFCURVE",
"582 600 OFFCURVE",
"440 600 CURVE SMOOTH",
"56 600 LINE",
"56 0 LINE"
);
},
{
closed = 1;
nodes = (
"184 496 LINE",
"426 496 LINE SMOOTH",
"493 496 OFFCURVE",
"529 471 OFFCURVE",
"529 424 CURVE SMOOTH",
"529 378 OFFCURVE",
"494 354 OFFCURVE",
"429 354 CURVE SMOOTH",
"184 354 LINE"
);
},
{
closed = 1;
nodes = (
"184 255 LINE",
"432 255 LINE SMOOTH",
"507 255 OFFCURVE",
"551 226 OFFCURVE",
"551 175 CURVE SMOOTH",
"551 131 OFFCURVE",
"518 104 OFFCURVE",
"462 104 CURVE SMOOTH",
"184 104 LINE"
);
}
);
width = 715;
},
{
anchors = (
{
name = bottom;
position = "{414, 0}";
},
{
name = center;
position = "{414, 300}";
},
{
name = top;
position = "{414, 600}";
}
);
layerId = "4F9EBE27-C263-4ED9-B2A0-4AD0096E628D";
paths = (
{
closed = 1;
nodes = (
"574 0 LINE SMOOTH",
"708 0 OFFCURVE",
"781 61 OFFCURVE",
"781 157 CURVE SMOOTH",
"781 244 OFFCURVE",
"720 306 OFFCURVE",
"602 308 CURVE",
"709 315 OFFCURVE",
"758 368 OFFCURVE",
"758 442 CURVE SMOOTH",
"758 538 OFFCURVE",
"680 600 OFFCURVE",
"538 600 CURVE SMOOTH",
"46 600 LINE",
"46 0 LINE"
);
},
{
closed = 1;
nodes = (
"286 460 LINE",
"426 460 LINE SMOOTH",
"482 460 OFFCURVE",
"510 448 OFFCURVE",
"510 411 CURVE SMOOTH",
"510 376 OFFCURVE",
"483 365 OFFCURVE",
"429 365 CURVE SMOOTH",
"286 365 LINE"
);
},
{
closed = 1;
nodes = (
"286 239 LINE",
"432 239 LINE SMOOTH",
"501 239 OFFCURVE",
"533 226 OFFCURVE",
"533 187 CURVE SMOOTH",
"533 153 OFFCURVE",
"510 142 OFFCURVE",
"472 142 CURVE SMOOTH",
"286 142 LINE"
);
}
);
width = 800;
}
);
leftKerningGroup = H;
leftMetricsKey = H;
rightKerningGroup = B;
unicode = 0042;
},
{
glyphname = C;
lastChange = "2023-09-17 15:40:37 +0000";
layers = (
{
anchors = (
{
name = bottom;
position = "{351, 0}";
},
{
name = top;
position = "{374, 600}";
}
);
background = {
paths = (
{
closed = 1;
nodes = (
"630 571 LINE",
"571 598 OFFCURVE",
"497 616 OFFCURVE",
"411 616 CURVE SMOOTH",
"183 616 OFFCURVE",
"44 497 OFFCURVE",
"44 302 CURVE SMOOTH",
"44 103 OFFCURVE",
"183 -17 OFFCURVE",
"411 -17 CURVE SMOOTH",
"494 -17 OFFCURVE",
"582 1 OFFCURVE",
"640 28 CURVE",
"640 145 LINE",
"594 114 OFFCURVE",
"506 87 OFFCURVE",
"419 87 CURVE SMOOTH",
"266 87 OFFCURVE",
"172 166 OFFCURVE",
"172 302 CURVE SMOOTH",
"172 434 OFFCURVE",
"266 512 OFFCURVE",
"419 512 CURVE SMOOTH",
"510 512 OFFCURVE",
"582 485 OFFCURVE",
"630 453 CURVE"
);
}
);
};
layerId = "6BCBDBF6-8315-4194-A290-F71994A92467";
paths = (
{
closed = 1;
nodes = (
"622 569 LINE",
"563 596 OFFCURVE",
"489 614 OFFCURVE",
"403 614 CURVE SMOOTH",
"175 614 OFFCURVE",
"36 494 OFFCURVE",
"36 300 CURVE SMOOTH",
"36 106 OFFCURVE",
"175 -14 OFFCURVE",
"406 -14 CURVE SMOOTH",
"485 -14 OFFCURVE",
"563 -2 OFFCURVE",
"634 30 CURVE",
"641 146 LINE",
"568 110 OFFCURVE",
"496 92 OFFCURVE",
"420 92 CURVE SMOOTH",
"258 92 OFFCURVE",
"168 164 OFFCURVE",
"168 299 CURVE SMOOTH",
"168 438 OFFCURVE",
"254 511 OFFCURVE",
"411 511 CURVE SMOOTH",
"491 511 OFFCURVE",
"565 490 OFFCURVE",
"630 457 CURVE"
);
}
);
width = 669;
},
{
associatedMasterId = "6BCBDBF6-8315-4194-A290-F71994A92467";
layerId = "6F13AF44-F1A6-4E71-85B3-0AEBE3DDAEAB";
name = foreground;
paths = (
{
closed = 1;
nodes = (
"622 571 LINE",
"563 598 OFFCURVE",
"489 616 OFFCURVE",
"403 616 CURVE SMOOTH",
"175 616 OFFCURVE",
"36 497 OFFCURVE",
"36 300 CURVE SMOOTH",
"36 103 OFFCURVE",
"175 -17 OFFCURVE",
"403 -17 CURVE SMOOTH",
"478 -17 OFFCURVE",
"563 -4 OFFCURVE",
"632 28 CURVE",
"642 141 LINE",
"571 107 OFFCURVE",
"482 87 OFFCURVE",
"406 87 CURVE SMOOTH",
"261 87 OFFCURVE",
"168 166 OFFCURVE",
"168 299 CURVE SMOOTH",
"168 434 OFFCURVE",
"261 514 OFFCURVE",
"417 514 CURVE SMOOTH",
"489 514 OFFCURVE",
"556 498 OFFCURVE",
"630 451 CURVE"
);
}
);
width = 674;
},
{
anchors = (
{
name = bottom;
position = "{408, 0}";
},
{
name = top;
position = "{408, 600}";
}
);
background = {
paths = (
{
closed = 1;
nodes = (
"685 583 LINE",
"621 605 OFFCURVE",
"540 620 OFFCURVE",
"439 620 CURVE SMOOTH",
"166 620 OFFCURVE",
"18 510 OFFCURVE",
"18 298 CURVE SMOOTH",
"18 85 OFFCURVE",
"170 -21 OFFCURVE",
"439 -21 CURVE SMOOTH",
"550 -21 OFFCURVE",
"633 -3 OFFCURVE",
"698 26 CURVE",
"707 209 LINE",
"627 180 OFFCURVE",
"566 168 OFFCURVE",
"502 168 CURVE SMOOTH",
"357 168 OFFCURVE",
"297 209 OFFCURVE",
"297 306 CURVE SMOOTH",
"297 401 OFFCURVE",
"354 441 OFFCURVE",
"496 441 CURVE SMOOTH",
"582 441 OFFCURVE",
"638 429 OFFCURVE",
"692 407 CURVE"
);
}
);
};
layerId = "4F9EBE27-C263-4ED9-B2A0-4AD0096E628D";
paths = (
{
closed = 1;
nodes = (
"685 590 LINE",
"621 605 OFFCURVE",
"540 620 OFFCURVE",
"439 620 CURVE SMOOTH",
"166 620 OFFCURVE",
"18 510 OFFCURVE",
"18 298 CURVE SMOOTH",
"18 85 OFFCURVE",
"170 -21 OFFCURVE",
"439 -21 CURVE SMOOTH",
"550 -21 OFFCURVE",
"633 -3 OFFCURVE",
"698 19 CURVE",
"707 210 LINE",
"627 188 OFFCURVE",
"566 176 OFFCURVE",
"502 176 CURVE SMOOTH",
"357 176 OFFCURVE",
"297 217 OFFCURVE",
"297 306 CURVE SMOOTH",
"297 401 OFFCURVE",
"354 441 OFFCURVE",
"496 441 CURVE SMOOTH",
"582 441 OFFCURVE",
"638 429 OFFCURVE",
"692 414 CURVE"
);
}
);
width = 740;
}
);
leftKerningGroup = O;
leftMetricsKey = O;
rightKerningGroup = C;
unicode = 0043;
},
{
glyphname = D;
lastChange = "2023-09-17 15:40:37 +0000";
layers = (
{
anchors = (
{
name = bottom;
position = "{344, 0}";
},
{
name = center;
position = "{344, 300}";
},
{
name = top;
position = "{330, 592}";
}
);
layerId = "6BCBDBF6-8315-4194-A290-F71994A92467";
paths = (
{
closed = 1;
nodes = (
"355 0 LINE SMOOTH",
"548 0 OFFCURVE",
"676 120 OFFCURVE",
"676 300 CURVE SMOOTH",
"676 480 OFFCURVE",
"548 600 OFFCURVE",
"355 600 CURVE SMOOTH",
"56 600 LINE",
"56 0 LINE"
);
},
{
closed = 1;
nodes = (
"184 496 LINE",
"352 496 LINE SMOOTH",
"472 496 OFFCURVE",
"548 417 OFFCURVE",
"548 297 CURVE SMOOTH",
"548 178 OFFCURVE",
"474 104 OFFCURVE",
"352 104 CURVE SMOOTH",
"184 104 LINE"
);
}
);
width = 712;
},
{
associatedMasterId = "6BCBDBF6-8315-4194-A290-F71994A92467";
layerId = "86DA962B-1FCA-4B21-B43D-1508AD8E30DE";
name = foreground;
paths = (
{
closed = 1;
nodes = (
"379 0 LINE SMOOTH",
"572 0 OFFCURVE",
"700 120 OFFCURVE",
"700 300 CURVE SMOOTH",
"700 480 OFFCURVE",
"572 600 OFFCURVE",
"379 600 CURVE SMOOTH",
"56 600 LINE",
"56 0 LINE"
);
},
{
closed = 1;
nodes = (
"184 496 LINE",
"376 496 LINE SMOOTH",
"496 496 OFFCURVE",
"572 417 OFFCURVE",
"572 297 CURVE SMOOTH",
"572 178 OFFCURVE",
"498 104 OFFCURVE",
"376 104 CURVE SMOOTH",
"184 104 LINE"
);
}
);
width = 744;
},
{
anchors = (
{
name = bottom;
position = "{409, 0}";
},
{
name = center;
position = "{409, 300}";
},
{
name = top;
position = "{409, 600}";
}
);
background = {
paths = (
{
closed = 1;
nodes = (
"774 -21 OFFCURVE",
"912 103 OFFCURVE",
"912 300 CURVE SMOOTH",
"912 496 OFFCURVE",
"774 620 OFFCURVE",
"516 620 CURVE SMOOTH",
"258 620 OFFCURVE",
"120 496 OFFCURVE",
"120 300 CURVE SMOOTH",
"120 103 OFFCURVE",
"258 -21 OFFCURVE",
"516 -21 CURVE SMOOTH"
);
},
{
closed = 1;
nodes = (
"434 163 OFFCURVE",
"392 210 OFFCURVE",
"392 300 CURVE SMOOTH",
"392 394 OFFCURVE",
"434 440 OFFCURVE",
"518 438 CURVE SMOOTH",
"598 435 OFFCURVE",
"640 388 OFFCURVE",
"640 300 CURVE SMOOTH",
"640 210 OFFCURVE",
"598 163 OFFCURVE",
"516 163 CURVE SMOOTH"
);
},
{
closed = 1;
nodes = (
"368 0 LINE",
"368 600 LINE",
"120 600 LINE",
"120 0 LINE"
);
}
);
};
layerId = "4F9EBE27-C263-4ED9-B2A0-4AD0096E628D";
paths = (
{
closed = 1;
nodes = (
"474 0 LINE SMOOTH",
"666 0 OFFCURVE",
"794 120 OFFCURVE",
"794 300 CURVE SMOOTH",
"794 480 OFFCURVE",
"666 600 OFFCURVE",
"474 600 CURVE SMOOTH",
"46 600 LINE",
"46 0 LINE"
);
},
{
closed = 1;
nodes = (
"294 428 LINE",
"383 428 LINE SMOOTH",
"490 428 OFFCURVE",
"538 382 OFFCURVE",
"538 299 CURVE SMOOTH",
"538 216 OFFCURVE",
"490 172 OFFCURVE",
"383 172 CURVE SMOOTH",
"294 172 LINE"
);
}
);
width = 813;
}
);
leftKerningGroup = H;
leftMetricsKey = H;
rightKerningGroup = O;
rightMetricsKey = O;
unicode = 0044;
},
{
glyphname = Eth;
lastChange = "2023-09-17 15:40:37 +0000";
layers = (
{
components = (
{
name = D;
}
);
layerId = "6BCBDBF6-8315-4194-A290-F71994A92467";
paths = (
{
closed = 1;
nodes = (
"381 259 LINE",
"381 355 LINE",
"0 355 LINE",
"0 258 LINE"
);
}
);
width = 712;
},
{
components = (
{
name = D;
transform = "{1, 0, 0, 1, 24, 0}";
}
);
layerId = "4F9EBE27-C263-4ED9-B2A0-4AD0096E628D";
paths = (
{
closed = 1;
nodes = (
"405 243 LINE",
"405 363 LINE",
"0 363 LINE",
"0 242 LINE"
);
}
);
width = 837;
}
);
leftKerningGroup = H;
rightKerningGroup = O;
rightMetricsKey = D;
unicode = 00D0;
},
{
glyphname = E;
lastChange = "2023-09-17 15:40:37 +0000";
layers = (
{
anchors = (
{
name = bottom;
position = "{322, 0}";
},
{
name = ogonek;
position = "{598, 6}";
},
{
name = top;
position = "{322, 600}";
},
{
name = topleft;
position = "{16, 600}";
}
);
layerId = "6BCBDBF6-8315-4194-A290-F71994A92467";
paths = (
{
closed = 1;
nodes = (
"602 0 LINE",
"602 104 LINE",
"184 104 LINE",
"184 254 LINE",
"553 254 LINE",
"553 355 LINE",
"184 355 LINE",
"184 496 LINE",
"596 496 LINE",
"596 600 LINE",
"56 600 LINE",
"56 0 LINE"
);
}
);
width = 638;
},
{
associatedMasterId = "6BCBDBF6-8315-4194-A290-F71994A92467";
layerId = "52E13490-14C7-40A0-8056-84C98BC82FBD";
name = foreground;
paths = (
{
closed = 1;
nodes = (
"602 0 LINE",
"602 104 LINE",
"184 104 LINE",
"184 251 LINE",
"553 251 LINE",
"553 355 LINE",
"184 355 LINE",
"184 496 LINE",
"596 496 LINE",
"596 600 LINE",
"56 600 LINE",
"56 0 LINE"
);
}
);
width = 642;
},
{
anchors = (
{
name = bottom;
position = "{333, 0}";
},
{
name = ogonek;
position = "{658, 8}";
},
{
name = top;
position = "{333, 600}";
},
{
name = topleft;
position = "{27, 600}";
}
);
background = {
paths = (
{
closed = 1;
nodes = (
"291 0 LINE",
"291 222 LINE",
"541 222 LINE",
"541 382 LINE",
"291 382 LINE",
"291 600 LINE",
"43 600 LINE",
"43 0 LINE"
);
}
);
};
layerId = "4F9EBE27-C263-4ED9-B2A0-4AD0096E628D";
paths = (
{
closed = 1;
nodes = (
"695 0 LINE",
"695 160 LINE",
"294 160 LINE",
"294 238 LINE",
"654 238 LINE",
"654 371 LINE",
"294 371 LINE",
"294 448 LINE",
"689 448 LINE",
"689 600 LINE",
"46 600 LINE",
"46 0 LINE"
);
}
);
width = 725;
}
);
leftKerningGroup = H;
leftMetricsKey = H;
rightKerningGroup = E;
unicode = 0045;
},
{
glyphname = Schwa;
lastChange = "2023-09-18 16:35:21 +0000";
layers = (
{
layerId = "6BCBDBF6-8315-4194-A290-F71994A92467";
paths = (
{
closed = 1;
nodes = (
"683 492 OFFCURVE",
"546 616 OFFCURVE",
"333 616 CURVE SMOOTH",
"234 616 OFFCURVE",
"170 602 OFFCURVE",
"72 557 CURVE",
"56 451 LINE",
"169 493 OFFCURVE",
"235 506 OFFCURVE",
"306 506 CURVE SMOOTH",
"447 506 OFFCURVE",
"533 442 OFFCURVE",
"551 343 CURVE",
"36 343 LINE",
"36 321 LINE SMOOTH",
"36 96 OFFCURVE",
"159 -14 OFFCURVE",
"350 -14 CURVE SMOOTH",
"553 -14 OFFCURVE",
"683 109 OFFCURVE",
"683 300 CURVE SMOOTH"
);
},
{
closed = 1;
nodes = (
"548 149 OFFCURVE",
"476 91 OFFCURVE",
"350 91 CURVE SMOOTH",
"230 91 OFFCURVE",
"162 149 OFFCURVE",
"158 255 CURVE",
"554 255 LINE"
);
}
);
width = 719;
},
{
layerId = "4F9EBE27-C263-4ED9-B2A0-4AD0096E628D";
paths = (
{
closed = 1;
nodes = (
"821 522 OFFCURVE",
"663 648 OFFCURVE",
"366 648 CURVE SMOOTH",
"230 648 OFFCURVE",
"121 622 OFFCURVE",
"46 582 CURVE",
"38 404 LINE",
"103 434 OFFCURVE",
"193 459 OFFCURVE",
"289 459 CURVE SMOOTH",
"408 459 OFFCURVE",
"505 420 OFFCURVE",
"550 354 CURVE",
"18 354 LINE",
"18 316 LINE SMOOTH",
"18 90 OFFCURVE",
"165 -29 OFFCURVE",
"394 -29 CURVE SMOOTH",
"662 -29 OFFCURVE",
"821 98 OFFCURVE",
"821 314 CURVE SMOOTH"
);
},
{
closed = 1;
nodes = (
"553 192 OFFCURVE",
"502 149 OFFCURVE",
"417 149 CURVE SMOOTH",
"334 149 OFFCURVE",
"290 192 OFFCURVE",
"290 249 CURVE",
"553 249 LINE"
);
}
);
width = 840;
}
);
leftKerningGroup = O;
leftMetricsKey = O;
rightKerningGroup = O;
rightMetricsKey = O;
unicode = 018F;
},
{
glyphname = F;
lastChange = "2023-09-17 15:40:37 +0000";
layers = (
{
anchors = (
{
name = bottom;
position = "{302, 0}";
},
{
name = top;
position = "{302, 600}";
}
);
layerId = "6BCBDBF6-8315-4194-A290-F71994A92467";
paths = (
{
closed = 1;
nodes = (
"184 0 LINE",
"184 248 LINE",
"536 248 LINE",
"536 352 LINE",
"184 352 LINE",
"184 496 LINE",
"579 496 LINE",
"579 600 LINE",
"56 600 LINE",
"56 0 LINE"
);
}
);
width = 603;
},
{
associatedMasterId = "6BCBDBF6-8315-4194-A290-F71994A92467";
layerId = "58AA2E78-C827-409E-A00A-3B183D685FA2";
name = foreground;
paths = (
{
closed = 1;
nodes = (
"184 0 LINE",
"184 248 LINE",
"544 248 LINE",
"544 352 LINE",
"184 352 LINE",
"184 496 LINE",
"587 496 LINE",
"587 600 LINE",
"56 600 LINE",
"56 0 LINE"
);
}
);
width = 603;
},
{
anchors = (
{
name = bottom;
position = "{246, 0}";
},
{
name = top;
position = "{246, 600}";
}
);
layerId = "4F9EBE27-C263-4ED9-B2A0-4AD0096E628D";
paths = (
{
closed = 1;
nodes = (
"294 0 LINE",
"294 198 LINE",
"630 198 LINE",
"630 355 LINE",
"294 355 LINE",
"294 432 LINE",
"665 432 LINE",
"665 600 LINE",
"46 600 LINE",
"46 0 LINE"
);
}
);
width = 694;
}
);
leftKerningGroup = H;
leftMetricsKey = E;
rightKerningGroup = F;
unicode = 0046;
},
{
glyphname = G;
lastChange = "2023-09-17 15:40:37 +0000";
layers = (
{
anchors = (
{
name = bottom;
position = "{417, 0}";
},
{
name = top;
position = "{366, 600}";
}
);
layerId = "6BCBDBF6-8315-4194-A290-F71994A92467";
paths = (
{
closed = 1;
nodes = (
"36 106 OFFCURVE",
"181 -14 OFFCURVE",
"418 -14 CURVE SMOOTH",
"525 -14 OFFCURVE",
"622 12 OFFCURVE",
"684 58 CURVE",
"684 340 LINE",
"390 340 LINE",
"390 240 LINE",
"564 240 LINE",
"564 114 LINE",
"522 100 OFFCURVE",
"475 93 OFFCURVE",
"427 93 CURVE SMOOTH",
"254 93 OFFCURVE",
"164 165 OFFCURVE",
"164 301 CURVE SMOOTH",
"164 438 OFFCURVE",
"257 511 OFFCURVE",
"428 511 CURVE SMOOTH",
"522 511 OFFCURVE",
"605 490 OFFCURVE",
"659 461 CURVE",
"650 575 LINE",
"593 598 OFFCURVE",
"513 614 OFFCURVE",
"423 614 CURVE SMOOTH",
"182 614 OFFCURVE",
"36 494 OFFCURVE",
"36 301 CURVE SMOOTH"
);
}
);
width = 724;
},
{
associatedMasterId = "6BCBDBF6-8315-4194-A290-F71994A92467";
layerId = "1197D2B9-ED60-4443-BEE4-5A8BA0AA7117";
name = foreground;
paths = (
{
closed = 1;
nodes = (
"36 103 OFFCURVE",
"181 -17 OFFCURVE",
"418 -17 CURVE SMOOTH",
"518 -17 OFFCURVE",
"618 7 OFFCURVE",
"684 56 CURVE",
"684 340 LINE",
"390 340 LINE",
"390 236 LINE",
"564 236 LINE",
"564 111 LINE",
"525 98 OFFCURVE",
"478 90 OFFCURVE",
"427 90 CURVE SMOOTH",
"264 90 OFFCURVE",
"164 168 OFFCURVE",
"164 301 CURVE SMOOTH",
"164 434 OFFCURVE",
"267 512 OFFCURVE",
"434 512 CURVE SMOOTH",
"519 512 OFFCURVE",
"603 491 OFFCURVE",
"659 454 CURVE",
"650 570 LINE",
"581 606 OFFCURVE",
"494 616 OFFCURVE",
"423 616 CURVE SMOOTH",
"182 616 OFFCURVE",
"36 497 OFFCURVE",
"36 301 CURVE SMOOTH"
);
}
);
width = 716;
},
{
anchors = (
{
name = bottom;
position = "{427, 0}";
},
{
name = top;
position = "{418, 600}";
}
);
background = {
paths = (
{
closed = 1;
nodes = (
"651 575 LINE",
"587 605 OFFCURVE",
"506 620 OFFCURVE",
"406 620 CURVE SMOOTH",
"133 620 OFFCURVE",
"-15 510 OFFCURVE",
"-15 298 CURVE SMOOTH",
"-15 85 OFFCURVE",
"136 -21 OFFCURVE",
"406 -21 CURVE SMOOTH",
"517 -21 OFFCURVE",
"599 -3 OFFCURVE",
"664 26 CURVE",
"674 209 LINE",
"611 186 OFFCURVE",
"547 168 OFFCURVE",
"468 168 CURVE SMOOTH",
"335 168 OFFCURVE",
"263 212 OFFCURVE",
"263 306 CURVE SMOOTH",
"263 398 OFFCURVE",
"331 441 OFFCURVE",
"457 441 CURVE SMOOTH",
"533 441 OFFCURVE",
"596 425 OFFCURVE",
"658 399 CURVE"
);
}
);
};
layerId = "4F9EBE27-C263-4ED9-B2A0-4AD0096E628D";
paths = (
{
closed = 1;
nodes = (
"18 79 OFFCURVE",
"185 -21 OFFCURVE",
"452 -21 CURVE SMOOTH",
"587 -21 OFFCURVE",
"685 6 OFFCURVE",
"746 36 CURVE",
"746 365 LINE",
"397 365 LINE",
"397 233 LINE",
"542 233 LINE",
"542 162 LINE",
"518 158 OFFCURVE",
"494 156 OFFCURVE",
"466 156 CURVE SMOOTH",
"344 156 OFFCURVE",
"290 203 OFFCURVE",
"290 302 CURVE SMOOTH",
"290 404 OFFCURVE",
"350 447 OFFCURVE",
"483 447 CURVE SMOOTH",
"541 447 OFFCURVE",
"614 442 OFFCURVE",
"722 421 CURVE",
"713 593 LINE",
"650 606 OFFCURVE",
"546 620 OFFCURVE",
"447 620 CURVE SMOOTH",
"171 620 OFFCURVE",
"18 498 OFFCURVE",
"18 293 CURVE SMOOTH"
);
}
);
width = 794;
}
);
leftKerningGroup = O;
leftMetricsKey = O;
rightKerningGroup = G;
unicode = 0047;
},
{
glyphname = H;
lastChange = "2023-09-17 15:40:37 +0000";
layers = (
{
anchors = (
{
name = bottom;
position = "{373, 0}";
},
{
name = center;
position = "{373, 300}";
},
{
name = top;
position = "{373, 600}";
},
{
name = topleft;
position = "{16, 600}";
}
);
layerId = "6BCBDBF6-8315-4194-A290-F71994A92467";
paths = (
{
closed = 1;
nodes = (
"184 0 LINE",
"184 250 LINE",
"562 250 LINE",
"562 0 LINE",
"690 0 LINE",
"690 600 LINE",
"562 600 LINE",
"562 354 LINE",
"184 354 LINE",
"184 600 LINE",
"56 600 LINE",
"56 0 LINE"
);
}
);
width = 746;
},
{
associatedMasterId = "6BCBDBF6-8315-4194-A290-F71994A92467";
layerId = "455D1B1E-E55D-4C40-90A2-AD581D1E757E";
name = foreground;
paths = (
{
closed = 1;
nodes = (
"184 0 LINE",
"184 250 LINE",
"562 250 LINE",
"562 0 LINE",
"690 0 LINE",
"690 600 LINE",
"562 600 LINE",
"562 354 LINE",
"184 354 LINE",
"184 600 LINE",
"56 600 LINE",
"56 0 LINE"
);
}
);
width = 746;
},
{
anchors = (
{
name = bottom;
position = "{403, 0}";
},
{
name = center;
position = "{403, 300}";
},
{
name = top;
position = "{403, 600}";
},
{
name = topleft;
position = "{46, 600}";
}
);
layerId = "4F9EBE27-C263-4ED9-B2A0-4AD0096E628D";
paths = (
{
closed = 1;
nodes = (
"294 0 LINE",
"294 222 LINE",
"512 222 LINE",
"512 0 LINE",
"760 0 LINE",
"760 600 LINE",
"512 600 LINE",
"512 382 LINE",
"294 382 LINE",
"294 600 LINE",
"46 600 LINE",
"46 0 LINE"
);
}
);
width = 808;
}
);
leftKerningGroup = H;
rightKerningGroup = H;
unicode = 0048;
},
{
glyphname = Hbar;
lastChange = "2023-09-17 15:40:37 +0000";
layers = (
{
components = (
{
name = H;
transform = "{1, 0, 0, 1, 20, 0}";
}
);
layerId = "6BCBDBF6-8315-4194-A290-F71994A92467";
paths = (
{
closed = 1;
nodes = (
"770 443 LINE",
"770 530 LINE",
"16 530 LINE",
"16 442 LINE"
);
}
);
width = 786;
},
{
components = (
{
name = H;
transform = "{1, 0, 0, 1, -6, 0}";
}
);
layerId = "4F9EBE27-C263-4ED9-B2A0-4AD0096E628D";
paths = (
{
closed = 1;
nodes = (
"846 427 LINE",
"846 554 LINE",
"-65 554 LINE",
"-65 426 LINE"
);
}
);
width = 782;
}
);
leftKerningGroup = H;
rightKerningGroup = H;
unicode = 0126;
},
{
glyphname = I;
lastChange = "2023-09-17 15:40:37 +0000";
layers = (
{
anchors = (
{
name = bottom;
position = "{120, 0}";
},
{
name = ogonek;
position = "{180, 6}";
},
{
name = top;
position = "{120, 600}";
},
{
name = topleft;
position = "{16, 600}";
}
);
layerId = "6BCBDBF6-8315-4194-A290-F71994A92467";
paths = (
{
closed = 1;
nodes = (
"184 0 LINE",
"184 600 LINE",
"56 600 LINE",
"56 0 LINE"
);
}
);
width = 240;
},
{
associatedMasterId = "6BCBDBF6-8315-4194-A290-F71994A92467";
layerId = "5BCDC843-98AD-46E8-9C3C-0E78BE75F217";
name = foreground;
paths = (
{
closed = 1;
nodes = (
"194 0 LINE",
"194 600 LINE",
"66 600 LINE",
"66 0 LINE"
);
}
);
width = 259;
},
{
anchors = (
{
name = bottom;
position = "{170, 0}";
},
{
name = ogonek;
position = "{257, 8}";
},
{
name = top;
position = "{170, 600}";
},
{
name = topleft;
position = "{22, 600}";
}
);
layerId = "4F9EBE27-C263-4ED9-B2A0-4AD0096E628D";
paths = (
{
closed = 1;
nodes = (
"294 0 LINE",
"294 600 LINE",
"46 600 LINE",
"46 0 LINE"
);
}
);
width = 342;
}
);
leftKerningGroup = H;
leftMetricsKey = H;
rightKerningGroup = H;
rightMetricsKey = H;
unicode = 0049;
},
{
glyphname = J;
lastChange = "2023-09-17 15:40:37 +0000";
layers = (
{
anchors = (
{
name = bottom;
position = "{258, 0}";
},
{
name = top;
position = "{348, 600}";
}
);
background = {
paths = (
{
closed = 1;
nodes = (
"62 -7 OFFCURVE",
"116 -17 OFFCURVE",
"182 -17 CURVE SMOOTH",
"372 -17 OFFCURVE",
"487 64 OFFCURVE",
"487 208 CURVE SMOOTH",
"487 600 LINE",
"359 600 LINE",
"359 210 LINE SMOOTH",
"359 133 OFFCURVE",
"276 82 OFFCURVE",
"158 82 CURVE SMOOTH",
"106 82 OFFCURVE",
"51 92 OFFCURVE",
"0 108 CURVE",
"0 12 LINE"
);
}
);
};
layerId = "6BCBDBF6-8315-4194-A290-F71994A92467";
paths = (
{
closed = 1;
nodes = (
"74 -7 OFFCURVE",
"133 -17 OFFCURVE",
"198 -17 CURVE SMOOTH",
"381 -17 OFFCURVE",
"491 55 OFFCURVE",
"491 208 CURVE SMOOTH",
"491 600 LINE",
"363 600 LINE",
"363 211 LINE SMOOTH",
"363 138 OFFCURVE",
"297 92 OFFCURVE",
"170 92 CURVE SMOOTH",
"124 92 OFFCURVE",
"76 98 OFFCURVE",
"28 114 CURVE",
"28 8 LINE"
);
},
{
closed = 1;
nodes = (
"149 500 LINE",
"435 500 LINE",
"435 600 LINE",
"149 600 LINE"
);
}
);
width = 547;
},
{
associatedMasterId = "6BCBDBF6-8315-4194-A290-F71994A92467";
layerId = "E7A2DD3C-444B-4F4D-BBC5-906E1B6D35AC";
name = foreground;
paths = (
{
closed = 1;
nodes = (
"86 -7 OFFCURVE",
"140 -17 OFFCURVE",
"206 -17 CURVE SMOOTH",
"396 -17 OFFCURVE",
"511 64 OFFCURVE",
"511 208 CURVE SMOOTH",
"511 600 LINE",
"383 600 LINE",
"383 214 LINE SMOOTH",
"383 138 OFFCURVE",
"300 87 OFFCURVE",
"182 87 CURVE SMOOTH",
"127 87 OFFCURVE",
"70 96 OFFCURVE",
"16 113 CURVE",
"24 12 LINE"
);
}
);
width = 567;
},
{
anchors = (
{
name = bottom;
position = "{286, 0}";
},
{
name = top;
position = "{458, 600}";
}
);
associatedMasterId = "6BCBDBF6-8315-4194-A290-F71994A92467";
background = {
paths = (
{
closed = 1;
nodes = (
"90 -7 OFFCURVE",
"144 -17 OFFCURVE",
"210 -17 CURVE SMOOTH",
"400 -17 OFFCURVE",
"515 64 OFFCURVE",
"515 208 CURVE SMOOTH",
"515 600 LINE",
"387 600 LINE",
"387 210 LINE SMOOTH",
"387 133 OFFCURVE",
"304 82 OFFCURVE",
"186 82 CURVE SMOOTH",
"134 82 OFFCURVE",
"79 92 OFFCURVE",
"28 108 CURVE",
"28 12 LINE"
);
}
);
};
layerId = "926FFB61-C86A-4F7B-B2AD-EA84D91FDBC5";
name = "3 Feb 21, 13:43";
paths = (
{
closed = 1;
nodes = (
"90 -7 OFFCURVE",
"144 -17 OFFCURVE",
"210 -17 CURVE SMOOTH",
"400 -17 OFFCURVE",
"515 64 OFFCURVE",
"515 208 CURVE SMOOTH",
"515 600 LINE",
"387 600 LINE",
"387 206 LINE SMOOTH",
"387 130 OFFCURVE",
"304 87 OFFCURVE",
"186 87 CURVE SMOOTH",
"131 87 OFFCURVE",
"74 96 OFFCURVE",
"20 118 CURVE",
"28 12 LINE"
);
}
);
width = 571;
},
{
anchors = (
{
name = bottom;
position = "{317, 0}";
},
{
name = top;
position = "{384, 600}";
}
);
layerId = "4F9EBE27-C263-4ED9-B2A0-4AD0096E628D";
paths = (
{
closed = 1;
nodes = (
"70 -7 OFFCURVE",
"128 -20 OFFCURVE",
"214 -20 CURVE SMOOTH",
"456 -20 OFFCURVE",
"590 84 OFFCURVE",
"590 237 CURVE SMOOTH",
"590 600 LINE",
"342 600 LINE",
"342 327 LINE SMOOTH",
"342 207 OFFCURVE",
"298 168 OFFCURVE",
"154 168 CURVE SMOOTH",
"99 168 OFFCURVE",
"59 174 OFFCURVE",
"23 186 CURVE",
"23 8 LINE"
);
},
{
closed = 1;
nodes = (
"144 436 LINE",
"454 436 LINE",
"454 600 LINE",
"144 600 LINE"
);
}
);
width = 638;
}
);
leftKerningGroup = J;
rightKerningGroup = J;
rightMetricsKey = H;
unicode = 004A;
},
{
glyphname = K;
lastChange = "2023-09-17 15:40:37 +0000";
layers = (
{
anchors = (
{
name = bottom;
position = "{346, 0}";
},
{
name = top;
position = "{358, 600}";
}
);
layerId = "6BCBDBF6-8315-4194-A290-F71994A92467";
paths = (
{
closed = 1;
nodes = (
"184 0 LINE",
"184 600 LINE",
"56 600 LINE",
"56 0 LINE"
);
},
{
closed = 1;
nodes = (
"686 0 LINE",
"346 355 LINE",
"330 379 LINE",
"210 330 LINE",
"519 0 LINE"
);
},
{
closed = 1;
nodes = (
"132 308 LINE",
"166 204 LINE",
"290 290 LINE",
"311 310 LINE",
"678 600 LINE",
"510 600 LINE"
);
}
);
width = 702;
},
{
associatedMasterId = "6BCBDBF6-8315-4194-A290-F71994A92467";
layerId = "098440A0-50DD-4A4F-9BA4-6DCF3EFF94F3";
name = foreground;
paths = (
{
closed = 1;
nodes = (
"194 0 LINE",
"194 600 LINE",
"66 600 LINE",
"66 0 LINE"
);
},
{
closed = 1;
nodes = (
"708 0 LINE",
"372 357 LINE",
"239 334 LINE",
"548 0 LINE"
);
},
{
closed = 1;
nodes = (
"118 256 LINE",
"180 175 LINE",
"689 600 LINE",
"529 600 LINE"
);
}
);
width = 745;
},
{
anchors = (
{
name = bottom;
position = "{442, 0}";
},
{
name = top;
position = "{442, 600}";
}
);
layerId = "4F9EBE27-C263-4ED9-B2A0-4AD0096E628D";
paths = (
{
closed = 1;
nodes = (
"294 0 LINE",
"294 600 LINE",
"46 600 LINE",
"46 0 LINE"
);
},
{
closed = 1;
nodes = (
"836 0 LINE",
"497 358 LINE",
"400 379 LINE",
"241 330 LINE",
"526 0 LINE"
);
},
{
closed = 1;
nodes = (
"162 316 LINE",
"253 159 LINE",
"377 257 LINE",
"462 310 LINE",
"824 600 LINE",
"520 600 LINE"
);
}
);
width = 855;
}
);
leftKerningGroup = H;
leftMetricsKey = H;
rightKerningGroup = K;
unicode = 004B;
},
{
glyphname = L;
lastChange = "2023-09-17 15:40:37 +0000";
layers = (
{
anchors = (
{
name = bottom;
position = "{300, 0}";
},
{
name = center;
position = "{300, 300}";
},
{
name = top;
position = "{141, 600}";
},
{
name = topright;
position = "{192, 616}";
}
);
layerId = "6BCBDBF6-8315-4194-A290-F71994A92467";
paths = (
{
closed = 1;
nodes = (
"184 0 LINE",
"560 0 LINE",
"560 104 LINE",
"184 104 LINE",
"184 600 LINE",
"56 600 LINE",
"56 0 LINE"
);
}
);
width = 592;
},
{
associatedMasterId = "6BCBDBF6-8315-4194-A290-F71994A92467";
layerId = "48D46DA8-1553-49FB-AFF2-EF46CFB97878";
name = foreground;
paths = (
{
closed = 1;
nodes = (
"184 0 LINE",
"560 0 LINE",
"560 104 LINE",
"184 104 LINE",
"184 600 LINE",
"56 600 LINE",
"56 0 LINE"
);
}
);
width = 600;
},
{
anchors = (
{
name = bottom;
position = "{346, 0}";
},
{
name = center;
position = "{346, 300}";
},
{
name = top;
position = "{226, 600}";
},
{
name = topright;
position = "{319, 600}";
}
);
layerId = "4F9EBE27-C263-4ED9-B2A0-4AD0096E628D";
paths = (
{
closed = 1;
nodes = (
"294 0 LINE",
"670 0 LINE",
"670 184 LINE",
"294 184 LINE",
"294 600 LINE",
"46 600 LINE",
"46 0 LINE"
);
}
);
width = 690;
}
);
leftKerningGroup = H;
leftMetricsKey = H;
rightKerningGroup = L;
unicode = 004C;
},
{
glyphname = Lslash;
lastChange = "2023-09-18 16:35:21 +0000";
layers = (
{
components = (
{
name = L;
}
);
layerId = "6BCBDBF6-8315-4194-A290-F71994A92467";
paths = (
{
closed = 1;
nodes = (
"-4 227 LINE",
"359 375 LINE",
"359 478 LINE",
"-4 331 LINE"
);
}
);
width = 592;
},
{
components = (
{
name = L;
transform = "{1, 0, 0, 1, -7, 0}";
}
);
layerId = "4F9EBE27-C263-4ED9-B2A0-4AD0096E628D";
paths = (
{
closed = 1;
nodes = (
"-51 210 LINE",
"459 400 LINE",
"459 551 LINE",
"-51 362 LINE"
);
}
);
width = 683;
}
);
leftKerningGroup = H;
rightKerningGroup = L;
rightMetricsKey = L;
unicode = 0141;
},
{
glyphname = M;
lastChange = "2023-09-17 15:40:37 +0000";
layers = (
{
anchors = (
{
name = bottom;
position = "{418, 0}";
},
{
name = top;
position = "{418, 600}";
}
);
layerId = "6BCBDBF6-8315-4194-A290-F71994A92467";
paths = (
{
closed = 1;
nodes = (
"180 0 LINE",
"180 472 LINE",
"158 475 LINE",
"360 0 LINE",
"477 0 LINE",
"678 475 LINE",
"657 472 LINE",
"657 0 LINE",
"781 0 LINE",
"781 600 LINE",
"625 600 LINE",
"397 79 LINE",
"440 79 LINE",
"211 600 LINE",
"56 600 LINE",
"56 0 LINE"
);
}
);
width = 837;
},
{
associatedMasterId = "6BCBDBF6-8315-4194-A290-F71994A92467";
layerId = "D7BA5304-6D57-43F6-BDB7-259F1D7C130B";
name = foreground;
paths = (
{
closed = 1;
nodes = (
"180 0 LINE",
"180 410 LINE",
"376 0 LINE",
"493 0 LINE",
"688 410 LINE",
"688 0 LINE",
"813 0 LINE",
"813 600 LINE",
"657 600 LINE",
"434 129 LINE",
"211 600 LINE",
"56 600 LINE",
"56 0 LINE"
);
}
);
width = 869;
},
{
anchors = (
{
name = bottom;
position = "{434, 0}";
},
{
name = top;
position = "{434, 600}";
}
);
associatedMasterId = "6BCBDBF6-8315-4194-A290-F71994A92467";
layerId = "42AADCEC-45AB-4145-A14B-645D538153A9";
name = "9 Feb 21, 22:33";
paths = (
{
closed = 1;
nodes = (
"180 0 LINE",
"180 464 LINE",
"158 459 LINE",
"376 0 LINE",
"493 0 LINE",
"710 459 LINE",
"688 464 LINE",
"688 0 LINE",
"813 0 LINE",
"813 600 LINE",
"657 600 LINE",
"434 129 LINE",
"211 600 LINE",
"56 600 LINE",
"56 0 LINE"
);
}
);
width = 869;
},
{
anchors = (
{
name = bottom;
position = "{306, 0}";
},
{
name = top;
position = "{298, 600}";
}
);
layerId = "4F9EBE27-C263-4ED9-B2A0-4AD0096E628D";
paths = (
{
closed = 1;
nodes = (
"286 0 LINE",
"286 488 LINE",
"237 468 LINE",
"406 0 LINE",
"555 0 LINE",
"724 468 LINE",
"675 472 LINE",
"675 0 LINE",
"915 0 LINE",
"915 600 LINE",
"599 600 LINE",
"462 230 LINE",
"500 230 LINE",
"362 600 LINE",
"46 600 LINE",
"46 0 LINE"
);
}
);
width = 963;
}
);
leftKerningGroup = M;
leftMetricsKey = H;
rightKerningGroup = M;
rightMetricsKey = H;
unicode = 004D;
},
{
glyphname = N;
lastChange = "2023-09-17 15:40:37 +0000";
layers = (
{
anchors = (
{
name = bottom;
position = "{373, 0}";
},
{
name = top;
position = "{381, 600}";
}
);
layerId = "6BCBDBF6-8315-4194-A290-F71994A92467";
paths = (
{
closed = 1;
nodes = (
"184 0 LINE",
"184 490 LINE",
"148 477 LINE",
"578 0 LINE",
"706 0 LINE",
"706 600 LINE",
"578 600 LINE",
"578 110 LINE",
"614 123 LINE",
"184 600 LINE",
"56 600 LINE",
"56 0 LINE"
);
}
);
width = 762;
},
{
associatedMasterId = "6BCBDBF6-8315-4194-A290-F71994A92467";
layerId = "E4CD88F4-33E6-49EA-A615-963C47427C7C";
name = foreground;
paths = (
{
closed = 1;
nodes = (
"184 0 LINE",
"184 437 LINE",
"578 0 LINE",
"706 0 LINE",
"706 600 LINE",
"578 600 LINE",
"578 163 LINE",
"184 600 LINE",
"56 600 LINE",
"56 0 LINE"
);
}
);
width = 762;
},
{
anchors = (
{
name = bottom;
position = "{435, 0}";
},
{
name = top;
position = "{435, 600}";
}
);
layerId = "4F9EBE27-C263-4ED9-B2A0-4AD0096E628D";
paths = (
{
closed = 1;
nodes = (
"286 0 LINE",
"286 488 LINE",
"229 468 LINE",
"486 0 LINE",
"823 0 LINE",
"823 600 LINE",
"583 600 LINE",
"583 230 LINE",
"602 230 LINE",
"402 600 LINE",
"46 600 LINE",
"46 0 LINE"
);
}
);
width = 871;
}
);
leftKerningGroup = H;
leftMetricsKey = H;
rightKerningGroup = H;
rightMetricsKey = H;
unicode = 004E;
},
{
glyphname = O;
lastChange = "2023-09-17 15:40:37 +0000";
layers = (
{
anchors = (
{
name = bottom;
position = "{392, 0}";
},
{
name = center;
position = "{392, 300}";
},
{
name = ogonek;
position = "{706, 8}";
},
{
name = top;
position = "{392, 600}";
},
{
name = topleft;
position = "{16, 600}";
},
{
name = topright;
position = "{768, 600}";
}
);
layerId = "6BCBDBF6-8315-4194-A290-F71994A92467";
paths = (
{
closed = 1;
nodes = (
"610 -14 OFFCURVE",
"748 110 OFFCURVE",
"748 300 CURVE SMOOTH",
"748 490 OFFCURVE",
"610 614 OFFCURVE",
"392 614 CURVE SMOOTH",
"174 614 OFFCURVE",
"36 490 OFFCURVE",
"36 300 CURVE SMOOTH",
"36 110 OFFCURVE",
"174 -14 OFFCURVE",
"392 -14 CURVE SMOOTH"
);
},
{
closed = 1;
nodes = (
"254 91 OFFCURVE",
"164 173 OFFCURVE",
"164 300 CURVE SMOOTH",
"164 427 OFFCURVE",
"254 510 OFFCURVE",
"392 510 CURVE SMOOTH",
"530 510 OFFCURVE",
"620 427 OFFCURVE",
"620 300 CURVE SMOOTH",
"620 173 OFFCURVE",
"530 91 OFFCURVE",
"392 91 CURVE SMOOTH"
);
}
);
width = 784;
},
{
associatedMasterId = "6BCBDBF6-8315-4194-A290-F71994A92467";
layerId = "8F811ACE-6062-44A9-8268-CC7A9FE24AA3";
name = foreground;
paths = (
{
closed = 1;
nodes = (
"610 -17 OFFCURVE",
"748 107 OFFCURVE",
"748 300 CURVE SMOOTH",
"748 492 OFFCURVE",
"610 616 OFFCURVE",
"392 616 CURVE SMOOTH",
"174 616 OFFCURVE",
"36 492 OFFCURVE",
"36 300 CURVE SMOOTH",
"36 107 OFFCURVE",
"174 -17 OFFCURVE",
"392 -17 CURVE SMOOTH"
);
},
{
closed = 1;
nodes = (
"258 87 OFFCURVE",
"164 171 OFFCURVE",
"164 300 CURVE SMOOTH",
"164 428 OFFCURVE",
"258 512 OFFCURVE",
"392 512 CURVE SMOOTH",
"526 512 OFFCURVE",
"620 428 OFFCURVE",
"620 300 CURVE SMOOTH",
"620 171 OFFCURVE",
"526 87 OFFCURVE",
"392 87 CURVE SMOOTH"
);
}
);
width = 784;
},
{
anchors = (
{
name = bottom;
position = "{422, 0}";
},
{
name = center;
position = "{422, 300}";
},
{
name = ogonek;
position = "{758, 8}";
},
{
name = top;
position = "{422, 600}";
},
{
name = topleft;
position = "{18, 600}";
},
{
name = topright;
position = "{826, 600}";
}
);
layerId = "4F9EBE27-C263-4ED9-B2A0-4AD0096E628D";
paths = (
{
closed = 1;
nodes = (
"688 -21 OFFCURVE",
"826 103 OFFCURVE",
"826 300 CURVE SMOOTH",
"826 496 OFFCURVE",
"688 620 OFFCURVE",
"422 620 CURVE SMOOTH",
"157 620 OFFCURVE",
"18 496 OFFCURVE",
"18 300 CURVE SMOOTH",
"18 103 OFFCURVE",
"157 -21 OFFCURVE",
"422 -21 CURVE SMOOTH"
);
},
{
closed = 1;
nodes = (
"333 163 OFFCURVE",
"290 210 OFFCURVE",
"290 300 CURVE SMOOTH",
"290 393 OFFCURVE",
"333 440 OFFCURVE",
"424 438 CURVE SMOOTH",
"512 435 OFFCURVE",
"554 388 OFFCURVE",
"554 300 CURVE SMOOTH",
"554 210 OFFCURVE",
"512 163 OFFCURVE",
"422 163 CURVE SMOOTH"
);
}
);
width = 845;
}
);
leftKerningGroup = O;
rightKerningGroup = O;
unicode = 004F;
},
{
glyphname = Oslash;
lastChange = "2023-09-17 15:40:37 +0000";
layers = (
{
components = (
{
name = O;
}
);
layerId = "6BCBDBF6-8315-4194-A290-F71994A92467";
paths = (
{
closed = 1;
nodes = (
"56 18 LINE",
"122 -46 LINE",
"750 569 LINE",
"684 634 LINE"
);
}
);
width = 784;
},
{
components = (
{
name = O;
}
);
layerId = "4F9EBE27-C263-4ED9-B2A0-4AD0096E628D";
paths = (
{
closed = 1;
nodes = (
"56 20 LINE",
"146 -70 LINE",
"790 574 LINE",
"700 665 LINE"
);
}
);
width = 842;
}
);
leftKerningGroup = O;
rightKerningGroup = O;
unicode = 00D8;
},
{
glyphname = OE;
lastChange = "2023-09-18 16:35:21 +0000";
layers = (
{
anchors = (
{
name = bottom;
position = "{1106, 0}";
},
{
name = center;
position = "{392, 300}";
},
{
name = ogonek;
position = "{1382, 6}";
},
{
name = top;
position = "{1106, 600}";
},
{
name = topleft;
position = "{800, 600}";
},
{
name = topright;
position = "{768, 600}";
}
);
layerId = "6BCBDBF6-8315-4194-A290-F71994A92467";
paths = (
{
closed = 1;
nodes = (
"553 600 LINE",
"512 608 OFFCURVE",
"456 614 OFFCURVE",
"392 614 CURVE SMOOTH",
"174 614 OFFCURVE",
"36 490 OFFCURVE",
"36 300 CURVE SMOOTH",
"36 110 OFFCURVE",
"174 -14 OFFCURVE",
"392 -14 CURVE SMOOTH",
"456 -14 OFFCURVE",
"513 -7 OFFCURVE",
"554 1 CURVE",
"562 128 LINE",
"522 105 OFFCURVE",
"464 91 OFFCURVE",
"392 91 CURVE SMOOTH",
"254 91 OFFCURVE",
"164 173 OFFCURVE",
"164 300 CURVE SMOOTH",
"164 427 OFFCURVE",
"254 510 OFFCURVE",
"392 510 CURVE SMOOTH",
"464 510 OFFCURVE",
"522 495 OFFCURVE",
"562 473 CURVE"
);
},
{
closed = 1;
nodes = (
"1098 0 LINE",
"1098 104 LINE",
"680 104 LINE",
"680 254 LINE",
"1049 254 LINE",
"1049 355 LINE",
"680 355 LINE",
"680 496 LINE",
"1092 496 LINE",
"1092 600 LINE",
"552 600 LINE",
"552 0 LINE"
);
}
);
width = 1134;
},
{
anchors = (
{
name = bottom;
position = "{394, 0}";
},
{
name = center;
position = "{394, 300}";
},
{
name = ogonek;
position = "{708, 8}";
},
{
name = top;
position = "{394, 600}";
},
{
name = topleft;
position = "{18, 600}";
},
{
name = topright;
position = "{770, 600}";
}
);
layerId = "4F9EBE27-C263-4ED9-B2A0-4AD0096E628D";
paths = (
{
closed = 1;
nodes = (
"581 592 LINE",
"527 610 OFFCURVE",
"473 620 OFFCURVE",
"401 620 CURVE SMOOTH",
"157 620 OFFCURVE",
"18 496 OFFCURVE",
"18 300 CURVE SMOOTH",
"18 103 OFFCURVE",
"157 -21 OFFCURVE",
"398 -21 CURVE SMOOTH",
"473 -21 OFFCURVE",
"531 -9 OFFCURVE",
"581 12 CURVE",
"573 210 LINE",
"536 172 OFFCURVE",
"479 163 OFFCURVE",
"438 163 CURVE SMOOTH",
"341 163 OFFCURVE",
"282 210 OFFCURVE",
"282 300 CURVE SMOOTH",
"282 393 OFFCURVE",
"341 438 OFFCURVE",
"440 438 CURVE SMOOTH",
"506 438 OFFCURVE",
"543 416 OFFCURVE",
"573 386 CURVE"
);
},
{
closed = 1;
nodes = (
"1198 0 LINE",
"1198 160 LINE",
"797 160 LINE",
"797 238 LINE",
"1157 238 LINE",
"1157 371 LINE",
"797 371 LINE",
"797 448 LINE",
"1191 448 LINE",
"1191 600 LINE",
"549 600 LINE",
"549 0 LINE"
);
}
);
width = 1228;
}
);
leftKerningGroup = O;
leftMetricsKey = O;
rightKerningGroup = E;
rightMetricsKey = E;
unicode = 0152;
},
{
glyphname = P;
lastChange = "2023-09-17 15:40:37 +0000";
layers = (
{
anchors = (
{
name = bottom;
position = "{345, 0}";
},
{
name = top;
position = "{345, 600}";
}
);
layerId = "6BCBDBF6-8315-4194-A290-F71994A92467";
paths = (
{
closed = 1;
nodes = (
"184 0 LINE",
"184 224 LINE",
"461 224 LINE SMOOTH",
"562 224 OFFCURVE",
"662 284 OFFCURVE",
"662 412 CURVE SMOOTH",
"662 511 OFFCURVE",
"602 600 OFFCURVE",
"461 600 CURVE SMOOTH",
"56 600 LINE",
"56 0 LINE"
);
},
{
closed = 1;
nodes = (
"184 496 LINE",
"415 496 LINE SMOOTH",
"498 496 OFFCURVE",
"534 471 OFFCURVE",
"534 412 CURVE SMOOTH",
"534 353 OFFCURVE",
"501 328 OFFCURVE",
"421 328 CURVE SMOOTH",
"184 328 LINE"
);
}
);
width = 690;
},
{
associatedMasterId = "6BCBDBF6-8315-4194-A290-F71994A92467";
layerId = "0910EA56-68CF-428B-95E6-80752DD1FB37";
name = foreground;
paths = (
{
closed = 1;
nodes = (
"194 0 LINE",
"194 224 LINE",
"470 224 LINE SMOOTH",
"571 224 OFFCURVE",
"671 284 OFFCURVE",
"671 412 CURVE SMOOTH",
"671 511 OFFCURVE",
"611 600 OFFCURVE",
"470 600 CURVE SMOOTH",
"66 600 LINE",
"66 0 LINE"
);
},
{
closed = 1;
nodes = (
"194 496 LINE",
"425 496 LINE SMOOTH",
"504 496 OFFCURVE",
"543 468 OFFCURVE",
"543 412 CURVE SMOOTH",
"543 358 OFFCURVE",
"506 328 OFFCURVE",
"430 328 CURVE SMOOTH",
"194 328 LINE"
);
}
);
width = 707;
},
{
anchors = (
{
name = bottom;
position = "{398, 0}";
},
{
name = top;
position = "{398, 600}";
}
);
layerId = "4F9EBE27-C263-4ED9-B2A0-4AD0096E628D";
paths = (
{
closed = 1;
nodes = (
"294 0 LINE",
"294 176 LINE",
"579 176 LINE SMOOTH",
"702 176 OFFCURVE",
"780 261 OFFCURVE",
"780 393 CURVE SMOOTH",
"780 519 OFFCURVE",
"702 600 OFFCURVE",
"579 600 CURVE SMOOTH",
"46 600 LINE",
"46 0 LINE"
);
},
{
closed = 1;
nodes = (
"294 440 LINE",
"438 440 LINE SMOOTH",
"495 440 OFFCURVE",
"524 429 OFFCURVE",
"524 388 CURVE SMOOTH",
"524 349 OFFCURVE",
"496 336 OFFCURVE",
"443 336 CURVE SMOOTH",
"294 336 LINE"
);
}
);
width = 791;
}
);
leftKerningGroup = H;
leftMetricsKey = H;
rightKerningGroup = P;
unicode = 0050;
},
{
glyphname = Thorn;
lastChange = "2023-09-17 15:40:37 +0000";
layers = (
{
layerId = "6BCBDBF6-8315-4194-A290-F71994A92467";
paths = (
{
closed = 1;
nodes = (
"184 0 LINE",
"184 128 LINE",
"461 128 LINE SMOOTH",
"562 128 OFFCURVE",
"662 188 OFFCURVE",
"662 316 CURVE SMOOTH",
"662 415 OFFCURVE",
"602 504 OFFCURVE",
"461 504 CURVE SMOOTH",
"184 504 LINE",
"184 628 LINE",
"56 628 LINE",
"56 0 LINE"
);
},
{
closed = 1;
nodes = (
"184 400 LINE",
"415 400 LINE SMOOTH",
"498 400 OFFCURVE",
"534 375 OFFCURVE",
"534 316 CURVE SMOOTH",
"534 257 OFFCURVE",
"501 232 OFFCURVE",
"421 232 CURVE SMOOTH",
"184 232 LINE"
);
}
);
width = 690;
},
{
layerId = "4F9EBE27-C263-4ED9-B2A0-4AD0096E628D";
paths = (
{
closed = 1;
nodes = (
"294 0 LINE",
"294 104 LINE",
"579 104 LINE SMOOTH",
"702 104 OFFCURVE",
"780 189 OFFCURVE",
"780 321 CURVE SMOOTH",
"780 447 OFFCURVE",
"702 528 OFFCURVE",
"579 528 CURVE SMOOTH",
"294 528 LINE",
"294 624 LINE",
"46 624 LINE",
"46 0 LINE"
);
},
{
closed = 1;
nodes = (
"294 368 LINE",
"438 368 LINE SMOOTH",
"495 368 OFFCURVE",
"524 357 OFFCURVE",
"524 316 CURVE SMOOTH",
"524 277 OFFCURVE",
"496 264 OFFCURVE",
"443 264 CURVE SMOOTH",
"294 264 LINE"
);
}
);
width = 791;
}
);
leftKerningGroup = H;
rightKerningGroup = Thorn;
rightMetricsKey = P;
unicode = 00DE;
},
{
glyphname = Q;
lastChange = "2023-09-17 15:40:37 +0000";
layers = (
{
associatedMasterId = "6BCBDBF6-8315-4194-A290-F71994A92467";
components = (
{
name = O;
}
);
layerId = "CAD23A4B-9B80-40D7-BDF7-F23787A3978A";
name = foreground;
paths = (
{
closed = 1;
nodes = (
"562 -138 LINE",
"703 -114 LINE",
"530 34 LINE",
"397 -2 LINE"
);
}
);
width = 784;
},
{
anchors = (
{
name = bottom;
position = "{392, 0}";
},
{
name = top;
position = "{392, 600}";
}
);
associatedMasterId = "6BCBDBF6-8315-4194-A290-F71994A92467";
components = (
{
name = O;
}
);
layerId = "CF310807-EDCD-4C18-A71F-3F3A856D9BAB";
name = "7 Feb 21, 13:06";
paths = (
{
closed = 1;
nodes = (
"562 -138 LINE",
"703 -114 LINE",
"530 34 LINE",
"397 -2 LINE"
);
}
);
width = 784;
},
{
anchors = (
{
name = bottom;
position = "{392, 0}";
},
{
name = top;
position = "{392, 600}";
}
);
associatedMasterId = "6BCBDBF6-8315-4194-A290-F71994A92467";
components = (
{
locked = 1;
name = O;
}
);
layerId = "C19714F2-0150-4B73-98E7-90EAAC104FA0";
name = "7 Feb 21, 13:08";
paths = (
{
closed = 1;
nodes = (
"578 -151 LINE",
"694 -62 LINE",
"254 31 LINE",
"203 22 LINE"
);
}
);
width = 784;
},
{
anchors = (
{
name = bottom;
position = "{392, 0}";
},
{
name = center;
position = "{392, 300}";
},
{
name = ogonek;
position = "{706, 8}";
},
{
name = top;
position = "{392, 600}";
},
{
name = topleft;
position = "{16, 600}";
},
{
name = topright;
position = "{768, 600}";
}
);
associatedMasterId = "6BCBDBF6-8315-4194-A290-F71994A92467";
background = {
paths = (
{
closed = 1;
nodes = (
"690 -172 LINE",
"690 -46 LINE",
"476 -8 LINE",
"644 20 OFFCURVE",
"748 135 OFFCURVE",
"748 300 CURVE SMOOTH",
"748 490 OFFCURVE",
"610 614 OFFCURVE",
"392 614 CURVE SMOOTH",
"174 614 OFFCURVE",
"36 490 OFFCURVE",
"36 300 CURVE SMOOTH",
"36 169 OFFCURVE",
"102 70 OFFCURVE",
"213 20 CURVE"
);
},
{
closed = 1;
nodes = (
"164 427 OFFCURVE",
"254 510 OFFCURVE",
"392 510 CURVE SMOOTH",
"530 510 OFFCURVE",
"620 427 OFFCURVE",
"620 300 CURVE SMOOTH",
"620 173 OFFCURVE",
"530 91 OFFCURVE",
"392 91 CURVE SMOOTH",
"254 91 OFFCURVE",
"164 173 OFFCURVE",
"164 300 CURVE SMOOTH"
);
}
);
};
layerId = "6240E5C7-FB9E-430B-9AB5-4873A37998B4";
name = "19 Apr 21, 12:24";
paths = (
{
closed = 1;
nodes = (
"690 -172 CURVE",
"690 -46 LINE",
"332 -8 LINE",
"645 -23 OFFCURVE",
"748 135 OFFCURVE",
"748 300 CURVE SMOOTH",
"748 490 OFFCURVE",
"610 614 OFFCURVE",
"392 614 CURVE SMOOTH",
"174 614 OFFCURVE",
"36 490 OFFCURVE",
"36 300 CURVE SMOOTH",
"36 169 OFFCURVE",
"74 -39 OFFCURVE"
);
},
{
closed = 1;
nodes = (
"164 427 OFFCURVE",
"254 510 OFFCURVE",
"392 510 CURVE SMOOTH",
"530 510 OFFCURVE",
"620 427 OFFCURVE",
"620 300 CURVE SMOOTH",
"620 173 OFFCURVE",
"530 91 OFFCURVE",
"392 91 CURVE SMOOTH",
"254 91 OFFCURVE",
"164 173 OFFCURVE",
"164 300 CURVE SMOOTH"
);
}
);
width = 784;
},
{
anchors = (
{
name = bottom;
position = "{392, 0}";
},
{
name = top;
position = "{392, 600}";
}
);
layerId = "6BCBDBF6-8315-4194-A290-F71994A92467";
name = "150";
paths = (
{
closed = 1;
nodes = (
"610 -14 OFFCURVE",
"748 110 OFFCURVE",
"748 300 CURVE SMOOTH",
"748 490 OFFCURVE",
"610 614 OFFCURVE",
"392 614 CURVE SMOOTH",
"174 614 OFFCURVE",
"36 490 OFFCURVE",
"36 300 CURVE SMOOTH",
"36 110 OFFCURVE",
"174 -14 OFFCURVE",
"392 -14 CURVE SMOOTH"
);
},
{
closed = 1;
nodes = (
"254 91 OFFCURVE",
"164 173 OFFCURVE",
"164 300 CURVE SMOOTH",
"164 427 OFFCURVE",
"254 510 OFFCURVE",
"392 510 CURVE SMOOTH",
"530 510 OFFCURVE",
"620 427 OFFCURVE",
"620 300 CURVE SMOOTH",
"620 173 OFFCURVE",
"530 91 OFFCURVE",
"392 91 CURVE SMOOTH"
);
},
{
closed = 1;
nodes = (
"524 -172 LINE",
"683 -172 LINE",
"461 75 LINE",
"343 35 LINE"
);
}
);
width = 784;
},
{
anchors = (
{
name = bottom;
position = "{392, 0}";
},
{
name = center;
position = "{392, 300}";
},
{
name = ogonek;
position = "{706, 8}";
},
{
name = top;
position = "{392, 600}";
},
{
name = topleft;
position = "{16, 600}";
},
{
name = topright;
position = "{768, 600}";
}
);
associatedMasterId = "6BCBDBF6-8315-4194-A290-F71994A92467";
layerId = "5C0B9A4A-837E-4967-B473-5C7006288C41";
name = "19 Apr 21, 13:55";
paths = (
{
closed = 1;
nodes = (
"690 -172 LINE",
"690 -46 LINE",
"476 -8 LINE",
"644 20 OFFCURVE",
"748 135 OFFCURVE",
"748 300 CURVE SMOOTH",
"748 490 OFFCURVE",
"610 614 OFFCURVE",
"392 614 CURVE SMOOTH",
"174 614 OFFCURVE",
"36 490 OFFCURVE",
"36 300 CURVE SMOOTH",
"36 169 OFFCURVE",
"102 70 OFFCURVE",
"213 20 CURVE"
);
},
{
closed = 1;
nodes = (
"164 427 OFFCURVE",
"254 510 OFFCURVE",
"392 510 CURVE SMOOTH",
"530 510 OFFCURVE",
"620 427 OFFCURVE",
"620 300 CURVE SMOOTH",
"620 173 OFFCURVE",
"530 91 OFFCURVE",
"392 91 CURVE SMOOTH",
"254 91 OFFCURVE",
"164 173 OFFCURVE",
"164 300 CURVE SMOOTH"
);
}
);
width = 784;
},
{
anchors = (
{
name = bottom;
position = "{392, 0}";
},
{
name = center;
position = "{392, 300}";
},
{
name = ogonek;
position = "{706, 8}";
},
{
name = top;
position = "{392, 600}";
},
{
name = topleft;
position = "{16, 600}";
},
{
name = topright;
position = "{768, 600}";
}
);
associatedMasterId = "6BCBDBF6-8315-4194-A290-F71994A92467";
layerId = "EBEF4F95-3D2B-47BA-A072-3B17C9607498";
name = "19 Apr 21, 13:58";
paths = (
{
closed = 1;
nodes = (
"610 -14 OFFCURVE",
"748 110 OFFCURVE",
"748 300 CURVE SMOOTH",
"748 490 OFFCURVE",
"610 614 OFFCURVE",
"392 614 CURVE SMOOTH",
"174 614 OFFCURVE",
"36 490 OFFCURVE",
"36 300 CURVE SMOOTH",
"36 110 OFFCURVE",
"174 -14 OFFCURVE",
"392 -14 CURVE SMOOTH"
);
},
{
closed = 1;
nodes = (
"254 91 OFFCURVE",
"164 173 OFFCURVE",
"164 300 CURVE SMOOTH",
"164 427 OFFCURVE",
"254 510 OFFCURVE",
"392 510 CURVE SMOOTH",
"530 510 OFFCURVE",
"620 427 OFFCURVE",
"620 300 CURVE SMOOTH",
"620 173 OFFCURVE",
"530 91 OFFCURVE",
"392 91 CURVE SMOOTH"
);
},
{
closed = 1;
nodes = (
"524 -172 LINE",
"616 -91 LINE",
"469 75 LINE",
"341 35 LINE"
);
}
);
width = 784;
},
{
anchors = (
{
name = bottom;
position = "{422, 0}";
},
{
name = top;
position = "{422, 600}";
}
);
layerId = "4F9EBE27-C263-4ED9-B2A0-4AD0096E628D";
paths = (
{
closed = 1;
nodes = (
"688 -16 OFFCURVE",
"826 103 OFFCURVE",
"826 300 CURVE SMOOTH",
"826 496 OFFCURVE",
"688 620 OFFCURVE",
"422 620 CURVE SMOOTH",
"157 620 OFFCURVE",
"18 496 OFFCURVE",
"18 300 CURVE SMOOTH",
"18 103 OFFCURVE",
"157 -16 OFFCURVE",
"422 -16 CURVE SMOOTH"
);
},
{
closed = 1;
nodes = (
"333 163 OFFCURVE",
"290 210 OFFCURVE",
"290 300 CURVE SMOOTH",
"290 393 OFFCURVE",
"333 440 OFFCURVE",
"424 438 CURVE SMOOTH",
"512 435 OFFCURVE",
"554 388 OFFCURVE",
"554 300 CURVE SMOOTH",
"554 210 OFFCURVE",
"512 163 OFFCURVE",
"422 163 CURVE SMOOTH"
);
},
{
closed = 1;
nodes = (
"502 -160 LINE",
"798 -160 LINE",
"540 75 LINE",
"286 35 LINE"
);
}
);
width = 845;
}
);
leftKerningGroup = O;
leftMetricsKey = O;
rightKerningGroup = O;
rightMetricsKey = O;
unicode = 0051;
},
{
glyphname = R;
lastChange = "2023-09-17 15:40:37 +0000";
layers = (
{
anchors = (
{
name = bottom;
position = "{363, 0}";
},
{
name = top;
position = "{346, 600}";
}
);
layerId = "6BCBDBF6-8315-4194-A290-F71994A92467";
paths = (
{
closed = 1;
nodes = (
"184 0 LINE",
"184 236 LINE",
"339 236 LINE",
"522 0 LINE",
"678 0 LINE",
"479 247 LINE",
"598 253 OFFCURVE",
"670 320 OFFCURVE",
"670 418 CURVE SMOOTH",
"670 525 OFFCURVE",
"591 600 OFFCURVE",
"450 600 CURVE SMOOTH",
"56 600 LINE",
"56 0 LINE"
);
},
{
closed = 1;
nodes = (
"184 496 LINE",
"423 496 LINE SMOOTH",
"506 496 OFFCURVE",
"542 473 OFFCURVE",
"542 418 CURVE SMOOTH",
"542 363 OFFCURVE",
"509 340 OFFCURVE",
"429 340 CURVE SMOOTH",
"184 340 LINE"
);
}
);
width = 704;
},
{
associatedMasterId = "6BCBDBF6-8315-4194-A290-F71994A92467";
layerId = "E3849A30-33ED-4573-85C5-33BC44B14189";
name = foreground;
paths = (
{
closed = 1;
nodes = (
"184 0 LINE",
"184 236 LINE",
"349 236 LINE",
"531 0 LINE",
"676 0 LINE",
"477 247 LINE",
"598 253 OFFCURVE",
"670 320 OFFCURVE",
"670 418 CURVE SMOOTH",
"670 525 OFFCURVE",
"591 600 OFFCURVE",
"450 600 CURVE SMOOTH",
"56 600 LINE",
"56 0 LINE"
);
},
{
closed = 1;
nodes = (
"184 496 LINE",
"423 496 LINE SMOOTH",
"502 496 OFFCURVE",
"542 470 OFFCURVE",
"542 418 CURVE SMOOTH",
"542 366 OFFCURVE",
"504 340 OFFCURVE",
"429 340 CURVE SMOOTH",
"184 340 LINE"
);
}
);
width = 692;
},
{
anchors = (
{
name = bottom;
position = "{402, 0}";
},
{
name = top;
position = "{402, 600}";
}
);
background = {
paths = (
{
closed = 1;
nodes = (
"294 0 LINE",
"294 208 LINE",
"539 208 LINE SMOOTH",
"662 208 OFFCURVE",
"764 261 OFFCURVE",
"764 393 CURVE SMOOTH",
"764 519 OFFCURVE",
"686 600 OFFCURVE",
"563 600 CURVE SMOOTH",
"46 600 LINE",
"46 0 LINE"
);
},
{
closed = 1;
nodes = (
"294 443 LINE",
"438 443 LINE SMOOTH",
"495 443 OFFCURVE",
"524 432 OFFCURVE",
"524 391 CURVE SMOOTH",
"524 352 OFFCURVE",
"496 339 OFFCURVE",
"443 339 CURVE SMOOTH",
"294 339 LINE"
);
},
{
closed = 1;
nodes = (
"496 0 LINE",
"781 0 LINE",
"534 247 LINE",
"290 236 LINE"
);
}
);
};
layerId = "4F9EBE27-C263-4ED9-B2A0-4AD0096E628D";
paths = (
{
closed = 1;
nodes = (
"294 0 LINE",
"294 208 LINE",
"306 208 LINE",
"496 0 LINE",
"797 0 LINE",
"579 210 LINE",
"695 218 OFFCURVE",
"780 273 OFFCURVE",
"780 393 CURVE SMOOTH",
"780 519 OFFCURVE",
"702 600 OFFCURVE",
"579 600 CURVE SMOOTH",
"46 600 LINE",
"46 0 LINE"
);
},
{
closed = 1;
nodes = (
"294 443 LINE",
"438 443 LINE SMOOTH",
"495 443 OFFCURVE",
"524 432 OFFCURVE",
"524 391 CURVE SMOOTH",
"524 352 OFFCURVE",
"496 339 OFFCURVE",
"443 339 CURVE SMOOTH",
"294 339 LINE"
);
}
);
width = 798;
},
{
anchors = (
{
name = bottom;
position = "{395, 0}";
},
{
name = top;
position = "{395, 600}";
}
);
associatedMasterId = "4F9EBE27-C263-4ED9-B2A0-4AD0096E628D";
layerId = "CA5BBAA6-CAEC-4044-8C42-710ACC3C5346";
name = "14 Oct 21, 15:38";
paths = (
{
closed = 1;
nodes = (
"288 0 LINE",
"288 208 LINE",
"533 208 LINE SMOOTH",
"655 208 OFFCURVE",
"758 261 OFFCURVE",
"758 393 CURVE SMOOTH",
"758 519 OFFCURVE",
"679 600 OFFCURVE",
"557 600 CURVE SMOOTH",
"40 600 LINE",
"40 0 LINE"
);
},
{
closed = 1;
nodes = (
"288 443 LINE",
"431 443 LINE SMOOTH",
"489 443 OFFCURVE",
"518 432 OFFCURVE",
"518 391 CURVE SMOOTH",
"518 352 OFFCURVE",
"490 339 OFFCURVE",
"437 339 CURVE SMOOTH",
"288 339 LINE"
);
},
{
closed = 1;
nodes = (
"490 0 LINE",
"774 0 LINE",
"527 247 LINE",
"283 236 LINE"
);
}
);
width = 790;
}
);
leftKerningGroup = H;
leftMetricsKey = H;
rightKerningGroup = R;
unicode = 0052;
},
{
glyphname = S;
lastChange = "2023-09-17 15:40:37 +0000";
layers = (
{
anchors = (
{
name = bottom;
position = "{338, 0}";
},
{
name = top;
position = "{338, 600}";
}
);
background = {
paths = (
{
closed = 1;
nodes = (
"45 351 OFFCURVE",
"130 291 OFFCURVE",
"312 261 CURVE SMOOTH",
"456 238 OFFCURVE",
"512 210 OFFCURVE",
"512 160 CURVE SMOOTH",
"512 114 OFFCURVE",
"463 93 OFFCURVE",
"354 93 CURVE SMOOTH",
"238 93 OFFCURVE",
"146 116 OFFCURVE",
"42 174 CURVE",
"50 57 LINE",
"140 5 OFFCURVE",
"230 -17 OFFCURVE",
"353 -17 CURVE SMOOTH",
"548 -17 OFFCURVE",
"640 38 OFFCURVE",
"640 154 CURVE SMOOTH",
"640 263 OFFCURVE",
"562 324 OFFCURVE",
"374 362 CURVE SMOOTH",
"232 390 OFFCURVE",
"173 410 OFFCURVE",
"173 452 CURVE SMOOTH",
"173 488 OFFCURVE",
"218 512 OFFCURVE",
"325 512 CURVE SMOOTH",
"437 512 OFFCURVE",
"529 492 OFFCURVE",
"605 450 CURVE",
"597 564 LINE",
"532 598 OFFCURVE",
"440 616 OFFCURVE",
"330 616 CURVE SMOOTH",
"138 616 OFFCURVE",
"45 560 OFFCURVE",
"45 451 CURVE SMOOTH"
);
}
);
};
guideLines = (
{
angle = 90;
position = "{424, 0}";
}
);
layerId = "6BCBDBF6-8315-4194-A290-F71994A92467";
paths = (
{
closed = 1;
nodes = (
"46 196 OFFCURVE",
"507 307 OFFCURVE",
"507 169 CURVE SMOOTH",
"507 122 OFFCURVE",
"458 94 OFFCURVE",
"354 94 CURVE SMOOTH",
"243 94 OFFCURVE",
"152 124 OFFCURVE",
"47 174 CURVE",
"55 51 LINE",
"139 11 OFFCURVE",
"243 -14 OFFCURVE",
"353 -14 CURVE SMOOTH",
"535 -14 OFFCURVE",
"634 52 OFFCURVE",
"634 171 CURVE SMOOTH",
"634 426 OFFCURVE",
"172 321 OFFCURVE",
"172 446 CURVE SMOOTH",
"172 489 OFFCURVE",
"220 512 OFFCURVE",
"336 512 CURVE SMOOTH",
"442 512 OFFCURVE",
"533 491 OFFCURVE",
"605 466 CURVE",
"598 578 LINE",
"533 597 OFFCURVE",
"441 614 OFFCURVE",
"334 614 CURVE SMOOTH",
"141 614 OFFCURVE",
"49 558 OFFCURVE",
"48 449 CURVE SMOOTH"
);
}
);
width = 664;
},
{
associatedMasterId = "6BCBDBF6-8315-4194-A290-F71994A92467";
guideLines = (
{
angle = 90;
position = "{416.5, 0}";
}
);
layerId = "71917E73-C426-482F-A9C4-1499F63BB30D";
name = foreground;
paths = (
{
closed = 1;
nodes = (
"39 206 OFFCURVE",
"506 302 OFFCURVE",
"506 160 CURVE SMOOTH",
"506 113 OFFCURVE",
"451 90 OFFCURVE",
"342 90 CURVE SMOOTH",
"230 90 OFFCURVE",
"138 114 OFFCURVE",
"32 174 CURVE",
"44 54 LINE",
"130 4 OFFCURVE",
"228 -20 OFFCURVE",
"342 -20 CURVE SMOOTH",
"534 -20 OFFCURVE",
"634 42 OFFCURVE",
"634 158 CURVE SMOOTH",
"634 416 OFFCURVE",
"167 336 OFFCURVE",
"167 450 CURVE SMOOTH",
"167 493 OFFCURVE",
"227 516 OFFCURVE",
"335 516 CURVE SMOOTH",
"437 516 OFFCURVE",
"527 494 OFFCURVE",
"600 451 CURVE",
"591 567 LINE",
"528 601 OFFCURVE",
"438 619 OFFCURVE",
"335 619 CURVE SMOOTH",
"142 619 OFFCURVE",
"39 559 OFFCURVE",
"39 447 CURVE SMOOTH"
);
}
);
width = 662;
},
{
anchors = (
{
name = bottom;
position = "{331, 0}";
},
{
name = top;
position = "{331, 600}";
}
);
associatedMasterId = "6BCBDBF6-8315-4194-A290-F71994A92467";
background = {
paths = (
{
closed = 1;
nodes = (
"32 202 OFFCURVE",
"531 298 OFFCURVE",
"531 162 CURVE SMOOTH",
"531 114 OFFCURVE",
"472 90 OFFCURVE",
"350 90 CURVE SMOOTH",
"225 90 OFFCURVE",
"127 116 OFFCURVE",
"37 174 CURVE",
"37 54 LINE",
"124 4 OFFCURVE",
"227 -20 OFFCURVE",
"350 -20 CURVE SMOOTH",
"554 -20 OFFCURVE",
"659 42 OFFCURVE",
"659 161 CURVE SMOOTH",
"659 410 OFFCURVE",
"160 330 OFFCURVE",
"160 442 CURVE SMOOTH",
"160 488 OFFCURVE",
"219 514 OFFCURVE",
"329 514 CURVE SMOOTH",
"436 514 OFFCURVE",
"533 497 OFFCURVE",
"608 450 CURVE",
"608 567 LINE",
"534 606 OFFCURVE",
"434 619 OFFCURVE",
"324 619 CURVE SMOOTH",
"134 619 OFFCURVE",
"32 555 OFFCURVE",
"32 437 CURVE SMOOTH"
);
}
);
};
guideLines = (
{
angle = 90;
position = "{416.5, 0}";
}
);
layerId = "897397F1-D4B6-4CBF-ABD9-A7CE468DE625";
name = "11 Jan 21, 19:26";
paths = (
{
closed = 1;
nodes = (
"39 206 OFFCURVE",
"506 302 OFFCURVE",
"506 160 CURVE SMOOTH",
"506 113 OFFCURVE",
"451 90 OFFCURVE",
"342 90 CURVE SMOOTH",
"230 90 OFFCURVE",
"138 114 OFFCURVE",
"36 170 CURVE",
"44 54 LINE",
"130 4 OFFCURVE",
"228 -20 OFFCURVE",
"342 -20 CURVE SMOOTH",
"534 -20 OFFCURVE",
"634 42 OFFCURVE",
"634 158 CURVE SMOOTH",
"634 416 OFFCURVE",
"167 335 OFFCURVE",
"167 450 CURVE SMOOTH",
"167 490 OFFCURVE",
"229 515 OFFCURVE",
"335 515 CURVE SMOOTH",
"437 515 OFFCURVE",
"527 492 OFFCURVE",
"599 452 CURVE",
"591 567 LINE",
"528 601 OFFCURVE",
"438 619 OFFCURVE",
"335 619 CURVE SMOOTH",
"142 619 OFFCURVE",
"39 559 OFFCURVE",
"39 447 CURVE SMOOTH"
);
}
);
width = 662;
},
{
anchors = (
{
name = bottom;
position = "{331, 0}";
},
{
name = top;
position = "{331, 600}";
}
);
associatedMasterId = "6BCBDBF6-8315-4194-A290-F71994A92467";
background = {
paths = (
{
closed = 1;
nodes = (
"32 202 OFFCURVE",
"531 298 OFFCURVE",
"531 162 CURVE SMOOTH",
"531 114 OFFCURVE",
"472 90 OFFCURVE",
"350 90 CURVE SMOOTH",
"225 90 OFFCURVE",
"127 116 OFFCURVE",
"37 174 CURVE",
"37 54 LINE",
"124 4 OFFCURVE",
"227 -20 OFFCURVE",
"350 -20 CURVE SMOOTH",
"554 -20 OFFCURVE",
"659 42 OFFCURVE",
"659 161 CURVE SMOOTH",
"659 410 OFFCURVE",
"160 330 OFFCURVE",
"160 442 CURVE SMOOTH",
"160 488 OFFCURVE",
"219 514 OFFCURVE",
"329 514 CURVE SMOOTH",
"436 514 OFFCURVE",
"533 497 OFFCURVE",
"608 450 CURVE",
"608 567 LINE",
"534 606 OFFCURVE",
"434 619 OFFCURVE",
"324 619 CURVE SMOOTH",
"134 619 OFFCURVE",
"32 555 OFFCURVE",
"32 437 CURVE SMOOTH"
);
}
);
};
guideLines = (
{
angle = 90;
position = "{416.5, 0}";
}
);
layerId = "5AB75996-ABA0-45B2-BF58-AA25432B0D85";
name = "3 Feb 21, 15:04";
paths = (
{
closed = 1;
nodes = (
"39 343 OFFCURVE",
"118 290 OFFCURVE",
"314 258 CURVE SMOOTH",
"458 234 OFFCURVE",
"506 211 OFFCURVE",
"506 165 CURVE SMOOTH",
"506 117 OFFCURVE",
"452 93 OFFCURVE",
"342 93 CURVE SMOOTH",
"231 93 OFFCURVE",
"140 117 OFFCURVE",
"36 174 CURVE",
"44 57 LINE",
"130 7 OFFCURVE",
"228 -17 OFFCURVE",
"342 -17 CURVE SMOOTH",
"534 -17 OFFCURVE",
"634 46 OFFCURVE",
"634 165 CURVE SMOOTH",
"634 270 OFFCURVE",
"558 322 OFFCURVE",
"345 365 CURVE SMOOTH",
"214 390 OFFCURVE",
"167 412 OFFCURVE",
"167 448 CURVE SMOOTH",
"167 490 OFFCURVE",
"226 512 OFFCURVE",
"335 512 CURVE SMOOTH",
"434 512 OFFCURVE",
"525 490 OFFCURVE",
"599 449 CURVE",
"591 564 LINE",
"528 598 OFFCURVE",
"438 616 OFFCURVE",
"335 616 CURVE SMOOTH",
"142 616 OFFCURVE",
"39 556 OFFCURVE",
"39 444 CURVE SMOOTH"
);
}
);
width = 662;
},
{
anchors = (
{
name = bottom;
position = "{331, 0}";
},
{
name = top;
position = "{331, 600}";
}
);
associatedMasterId = "6BCBDBF6-8315-4194-A290-F71994A92467";
background = {
paths = (
{
closed = 1;
nodes = (
"32 202 OFFCURVE",
"531 298 OFFCURVE",
"531 162 CURVE SMOOTH",
"531 114 OFFCURVE",
"472 90 OFFCURVE",
"350 90 CURVE SMOOTH",
"225 90 OFFCURVE",
"127 116 OFFCURVE",
"37 174 CURVE",
"37 54 LINE",
"124 4 OFFCURVE",
"227 -20 OFFCURVE",
"350 -20 CURVE SMOOTH",
"554 -20 OFFCURVE",
"659 42 OFFCURVE",
"659 161 CURVE SMOOTH",
"659 410 OFFCURVE",
"160 330 OFFCURVE",
"160 442 CURVE SMOOTH",
"160 488 OFFCURVE",
"219 514 OFFCURVE",
"329 514 CURVE SMOOTH",
"436 514 OFFCURVE",
"533 497 OFFCURVE",
"608 450 CURVE",
"608 567 LINE",
"534 606 OFFCURVE",
"434 619 OFFCURVE",
"324 619 CURVE SMOOTH",
"134 619 OFFCURVE",
"32 555 OFFCURVE",
"32 437 CURVE SMOOTH"
);
}
);
};
guideLines = (
{
angle = 90;
position = "{416.5, 0}";
}
);
layerId = "95708926-C0BE-430B-B43F-35104D7E2E5F";
name = "3 Feb 21, 15:14";
paths = (
{
closed = 1;
nodes = (
"39 351 OFFCURVE",
"124 291 OFFCURVE",
"306 261 CURVE SMOOTH",
"450 238 OFFCURVE",
"506 210 OFFCURVE",
"506 160 CURVE SMOOTH",
"506 114 OFFCURVE",
"458 93 OFFCURVE",
"348 93 CURVE SMOOTH",
"232 93 OFFCURVE",
"141 116 OFFCURVE",
"36 174 CURVE",
"44 57 LINE",
"134 5 OFFCURVE",
"225 -17 OFFCURVE",
"347 -17 CURVE SMOOTH",
"542 -17 OFFCURVE",
"634 38 OFFCURVE",
"634 154 CURVE SMOOTH",
"634 263 OFFCURVE",
"556 324 OFFCURVE",
"369 362 CURVE SMOOTH",
"226 390 OFFCURVE",
"167 410 OFFCURVE",
"167 452 CURVE SMOOTH",
"167 488 OFFCURVE",
"212 512 OFFCURVE",
"319 512 CURVE SMOOTH",
"431 512 OFFCURVE",
"523 492 OFFCURVE",
"599 450 CURVE",
"591 564 LINE",
"526 598 OFFCURVE",
"434 616 OFFCURVE",
"325 616 CURVE SMOOTH",
"133 616 OFFCURVE",
"39 560 OFFCURVE",
"39 451 CURVE SMOOTH"
);
}
);
width = 662;
},
{
anchors = (
{
name = bottom;
position = "{331, 0}";
},
{
name = top;
position = "{331, 600}";
}
);
associatedMasterId = "6BCBDBF6-8315-4194-A290-F71994A92467";
background = {
paths = (
{
closed = 1;
nodes = (
"39 351 OFFCURVE",
"124 291 OFFCURVE",
"306 261 CURVE SMOOTH",
"450 238 OFFCURVE",
"506 210 OFFCURVE",
"506 160 CURVE SMOOTH",
"506 114 OFFCURVE",
"458 93 OFFCURVE",
"348 93 CURVE SMOOTH",
"232 93 OFFCURVE",
"141 116 OFFCURVE",
"36 174 CURVE",
"44 57 LINE",
"134 5 OFFCURVE",
"225 -17 OFFCURVE",
"347 -17 CURVE SMOOTH",
"542 -17 OFFCURVE",
"634 38 OFFCURVE",
"634 154 CURVE SMOOTH",
"634 263 OFFCURVE",
"556 324 OFFCURVE",
"369 362 CURVE SMOOTH",
"226 390 OFFCURVE",
"167 410 OFFCURVE",
"167 452 CURVE SMOOTH",
"167 488 OFFCURVE",
"212 512 OFFCURVE",
"319 512 CURVE SMOOTH",
"431 512 OFFCURVE",
"523 492 OFFCURVE",
"599 450 CURVE",
"591 564 LINE",
"526 598 OFFCURVE",
"434 616 OFFCURVE",
"325 616 CURVE SMOOTH",
"133 616 OFFCURVE",
"39 560 OFFCURVE",
"39 451 CURVE SMOOTH"
);
}
);
};
guideLines = (
{
angle = 90;
position = "{416.5, 0}";
}
);
layerId = "986D9277-C63F-493A-BF1A-945B532A6492";
name = "3 Feb 21, 15:21";
paths = (
{
closed = 1;
nodes = (
"39 202 OFFCURVE",
"506 310 OFFCURVE",
"506 162 CURVE SMOOTH",
"506 114 OFFCURVE",
"458 93 OFFCURVE",
"348 93 CURVE SMOOTH",
"232 93 OFFCURVE",
"141 116 OFFCURVE",
"36 174 CURVE",
"44 57 LINE",
"134 5 OFFCURVE",
"225 -17 OFFCURVE",
"347 -17 CURVE SMOOTH",
"542 -17 OFFCURVE",
"634 38 OFFCURVE",
"634 154 CURVE SMOOTH",
"634 418 OFFCURVE",
"167 330 OFFCURVE",
"167 451 CURVE SMOOTH",
"167 489 OFFCURVE",
"212 512 OFFCURVE",
"327 512 CURVE SMOOTH",
"431 512 OFFCURVE",
"523 492 OFFCURVE",
"599 450 CURVE",
"591 564 LINE",
"526 598 OFFCURVE",
"434 616 OFFCURVE",
"325 616 CURVE SMOOTH",
"133 616 OFFCURVE",
"39 560 OFFCURVE",
"39 450 CURVE SMOOTH"
);
}
);
width = 662;
},
{
anchors = (
{
name = bottom;
position = "{331, 0}";
},
{
name = top;
position = "{331, 600}";
}
);
associatedMasterId = "6BCBDBF6-8315-4194-A290-F71994A92467";
background = {
paths = (
{
closed = 1;
nodes = (
"39 351 OFFCURVE",
"124 291 OFFCURVE",
"306 261 CURVE SMOOTH",
"450 238 OFFCURVE",
"506 210 OFFCURVE",
"506 160 CURVE SMOOTH",
"506 114 OFFCURVE",
"458 93 OFFCURVE",
"348 93 CURVE SMOOTH",
"232 93 OFFCURVE",
"141 116 OFFCURVE",
"36 174 CURVE",
"44 57 LINE",
"134 5 OFFCURVE",
"225 -17 OFFCURVE",
"347 -17 CURVE SMOOTH",
"542 -17 OFFCURVE",
"634 38 OFFCURVE",
"634 154 CURVE SMOOTH",
"634 263 OFFCURVE",
"556 324 OFFCURVE",
"369 362 CURVE SMOOTH",
"226 390 OFFCURVE",
"167 410 OFFCURVE",
"167 452 CURVE SMOOTH",
"167 488 OFFCURVE",
"212 512 OFFCURVE",
"319 512 CURVE SMOOTH",
"431 512 OFFCURVE",
"523 492 OFFCURVE",
"599 450 CURVE",
"591 564 LINE",
"526 598 OFFCURVE",
"434 616 OFFCURVE",
"325 616 CURVE SMOOTH",
"133 616 OFFCURVE",
"39 560 OFFCURVE",
"39 451 CURVE SMOOTH"
);
}
);
};
guideLines = (
{
angle = 90;
position = "{416.5, 0}";
}
);
layerId = "82017188-8DE8-4A65-B82E-B297E6AED657";
name = "7 Feb 21, 12:58";
paths = (
{
closed = 1;
nodes = (
"34 202 OFFCURVE",
"506 310 OFFCURVE",
"506 162 CURVE SMOOTH",
"506 114 OFFCURVE",
"458 93 OFFCURVE",
"348 93 CURVE SMOOTH",
"232 93 OFFCURVE",
"141 116 OFFCURVE",
"36 174 CURVE",
"44 57 LINE",
"128 9 OFFCURVE",
"232 -17 OFFCURVE",
"347 -17 CURVE SMOOTH",
"536 -17 OFFCURVE",
"634 42 OFFCURVE",
"634 154 CURVE SMOOTH",
"634 418 OFFCURVE",
"162 330 OFFCURVE",
"162 451 CURVE SMOOTH",
"162 490 OFFCURVE",
"207 514 OFFCURVE",
"327 514 CURVE SMOOTH",
"431 514 OFFCURVE",
"523 494 OFFCURVE",
"599 451 CURVE",
"591 564 LINE",
"526 598 OFFCURVE",
"434 616 OFFCURVE",
"325 616 CURVE SMOOTH",
"128 616 OFFCURVE",
"34 560 OFFCURVE",
"34 450 CURVE SMOOTH"
);
}
);
width = 662;
},
{
anchors = (
{
name = bottom;
position = "{337, 0}";
},
{
name = top;
position = "{337, 600}";
}
);
associatedMasterId = "6BCBDBF6-8315-4194-A290-F71994A92467";
background = {
paths = (
{
closed = 1;
nodes = (
"45 351 OFFCURVE",
"130 291 OFFCURVE",
"312 261 CURVE SMOOTH",
"456 238 OFFCURVE",
"512 210 OFFCURVE",
"512 160 CURVE SMOOTH",
"512 114 OFFCURVE",
"463 93 OFFCURVE",
"354 93 CURVE SMOOTH",
"238 93 OFFCURVE",
"146 116 OFFCURVE",
"42 174 CURVE",
"50 57 LINE",
"140 5 OFFCURVE",
"230 -17 OFFCURVE",
"353 -17 CURVE SMOOTH",
"548 -17 OFFCURVE",
"640 38 OFFCURVE",
"640 154 CURVE SMOOTH",
"640 263 OFFCURVE",
"562 324 OFFCURVE",
"374 362 CURVE SMOOTH",
"232 390 OFFCURVE",
"173 410 OFFCURVE",
"173 452 CURVE SMOOTH",
"173 488 OFFCURVE",
"218 512 OFFCURVE",
"325 512 CURVE SMOOTH",
"437 512 OFFCURVE",
"529 492 OFFCURVE",
"605 450 CURVE",
"597 564 LINE",
"532 598 OFFCURVE",
"440 616 OFFCURVE",
"330 616 CURVE SMOOTH",
"138 616 OFFCURVE",
"45 560 OFFCURVE",
"45 451 CURVE SMOOTH"
);
}
);
};
guideLines = (
{
angle = 90;
position = "{424, 0}";
}
);
layerId = "16C1D393-E431-4201-B012-3FD97D11C5DC";
name = "9 Feb 21, 00:55";
paths = (
{
closed = 1;
nodes = (
"40 202 OFFCURVE",
"512 310 OFFCURVE",
"512 162 CURVE SMOOTH",
"512 114 OFFCURVE",
"463 93 OFFCURVE",
"354 93 CURVE SMOOTH",
"238 93 OFFCURVE",
"146 116 OFFCURVE",
"42 174 CURVE",
"50 57 LINE",
"134 9 OFFCURVE",
"238 -17 OFFCURVE",
"353 -17 CURVE SMOOTH",
"542 -17 OFFCURVE",
"640 42 OFFCURVE",
"640 154 CURVE SMOOTH",
"640 418 OFFCURVE",
"168 330 OFFCURVE",
"168 451 CURVE SMOOTH",
"168 490 OFFCURVE",
"213 514 OFFCURVE",
"333 514 CURVE SMOOTH",
"437 514 OFFCURVE",
"529 494 OFFCURVE",
"605 451 CURVE",
"597 564 LINE",
"532 598 OFFCURVE",
"440 616 OFFCURVE",
"330 616 CURVE SMOOTH",
"134 616 OFFCURVE",
"40 560 OFFCURVE",
"40 450 CURVE SMOOTH"
);
}
);
width = 664;
},
{
anchors = (
{
name = bottom;
position = "{337, 0}";
},
{
name = top;
position = "{337, 600}";
}
);
associatedMasterId = "6BCBDBF6-8315-4194-A290-F71994A92467";
background = {
paths = (
{
closed = 1;
nodes = (
"45 351 OFFCURVE",
"130 291 OFFCURVE",
"312 261 CURVE SMOOTH",
"456 238 OFFCURVE",
"512 210 OFFCURVE",
"512 160 CURVE SMOOTH",
"512 114 OFFCURVE",
"463 93 OFFCURVE",
"354 93 CURVE SMOOTH",
"238 93 OFFCURVE",
"146 116 OFFCURVE",
"42 174 CURVE",
"50 57 LINE",
"140 5 OFFCURVE",
"230 -17 OFFCURVE",
"353 -17 CURVE SMOOTH",
"548 -17 OFFCURVE",
"640 38 OFFCURVE",
"640 154 CURVE SMOOTH",
"640 263 OFFCURVE",
"562 324 OFFCURVE",
"374 362 CURVE SMOOTH",
"232 390 OFFCURVE",
"173 410 OFFCURVE",
"173 452 CURVE SMOOTH",
"173 488 OFFCURVE",
"218 512 OFFCURVE",
"325 512 CURVE SMOOTH",
"437 512 OFFCURVE",
"529 492 OFFCURVE",
"605 450 CURVE",
"597 564 LINE",
"532 598 OFFCURVE",
"440 616 OFFCURVE",
"330 616 CURVE SMOOTH",
"138 616 OFFCURVE",
"45 560 OFFCURVE",
"45 451 CURVE SMOOTH"
);
}
);
};
guideLines = (
{
angle = 90;
position = "{424, 0}";
}
);
layerId = "325E2D89-F194-441F-8CF7-220F342AF744";
name = "22 Feb 21, 19:26";
paths = (
{
closed = 1;
nodes = (
"48 209 OFFCURVE",
"506 320 OFFCURVE",
"506 172 CURVE SMOOTH",
"506 122 OFFCURVE",
"457 94 OFFCURVE",
"354 94 CURVE SMOOTH",
"246 94 OFFCURVE",
"154 124 OFFCURVE",
"50 182 CURVE",
"58 59 LINE",
"142 11 OFFCURVE",
"246 -14 OFFCURVE",
"353 -14 CURVE SMOOTH",
"534 -14 OFFCURVE",
"632 52 OFFCURVE",
"632 171 CURVE SMOOTH",
"632 430 OFFCURVE",
"172 329 OFFCURVE",
"172 450 CURVE SMOOTH",
"172 489 OFFCURVE",
"220 512 OFFCURVE",
"336 512 CURVE SMOOTH",
"442 512 OFFCURVE",
"533 491 OFFCURVE",
"605 458 CURVE",
"598 570 LINE",
"533 597 OFFCURVE",
"441 614 OFFCURVE",
"334 614 CURVE SMOOTH",
"141 614 OFFCURVE",
"48 558 OFFCURVE",
"48 449 CURVE SMOOTH"
);
}
);
width = 664;
},
{
anchors = (
{
name = bottom;
position = "{337, 0}";
},
{
name = top;
position = "{337, 600}";
}
);
associatedMasterId = "6BCBDBF6-8315-4194-A290-F71994A92467";
background = {
paths = (
{
closed = 1;
nodes = (
"45 351 OFFCURVE",
"130 291 OFFCURVE",
"312 261 CURVE SMOOTH",
"456 238 OFFCURVE",
"512 210 OFFCURVE",
"512 160 CURVE SMOOTH",
"512 114 OFFCURVE",
"463 93 OFFCURVE",
"354 93 CURVE SMOOTH",
"238 93 OFFCURVE",
"146 116 OFFCURVE",
"42 174 CURVE",
"50 57 LINE",
"140 5 OFFCURVE",
"230 -17 OFFCURVE",
"353 -17 CURVE SMOOTH",
"548 -17 OFFCURVE",
"640 38 OFFCURVE",
"640 154 CURVE SMOOTH",
"640 263 OFFCURVE",
"562 324 OFFCURVE",
"374 362 CURVE SMOOTH",
"232 390 OFFCURVE",
"173 410 OFFCURVE",
"173 452 CURVE SMOOTH",
"173 488 OFFCURVE",
"218 512 OFFCURVE",
"325 512 CURVE SMOOTH",
"437 512 OFFCURVE",
"529 492 OFFCURVE",
"605 450 CURVE",
"597 564 LINE",
"532 598 OFFCURVE",
"440 616 OFFCURVE",
"330 616 CURVE SMOOTH",
"138 616 OFFCURVE",
"45 560 OFFCURVE",
"45 451 CURVE SMOOTH"
);
}
);
};
guideLines = (
{
angle = 90;
position = "{424, 0}";
}
);
layerId = "2A500F0F-FAAA-4104-B59E-43C4EEDE3244";
name = "11 Apr 21, 22:08";
paths = (
{
closed = 1;
nodes = (
"48 196 OFFCURVE",
"506 307 OFFCURVE",
"506 169 CURVE SMOOTH",
"506 122 OFFCURVE",
"457 94 OFFCURVE",
"354 94 CURVE SMOOTH",
"246 94 OFFCURVE",
"154 124 OFFCURVE",
"50 182 CURVE",
"58 59 LINE",
"142 11 OFFCURVE",
"246 -14 OFFCURVE",
"353 -14 CURVE SMOOTH",
"534 -14 OFFCURVE",
"632 52 OFFCURVE",
"632 171 CURVE SMOOTH",
"632 426 OFFCURVE",
"172 321 OFFCURVE",
"172 446 CURVE SMOOTH",
"172 489 OFFCURVE",
"220 512 OFFCURVE",
"336 512 CURVE SMOOTH",
"442 512 OFFCURVE",
"533 491 OFFCURVE",
"605 458 CURVE",
"598 570 LINE",
"533 597 OFFCURVE",
"441 614 OFFCURVE",
"334 614 CURVE SMOOTH",
"141 614 OFFCURVE",
"48 558 OFFCURVE",
"48 449 CURVE SMOOTH"
);
}
);
width = 664;
},
{
anchors = (
{
name = bottom;
position = "{337, 0}";
},
{
name = top;
position = "{337, 600}";
}
);
associatedMasterId = "6BCBDBF6-8315-4194-A290-F71994A92467";
background = {
paths = (
{
closed = 1;
nodes = (
"45 351 OFFCURVE",
"130 291 OFFCURVE",
"312 261 CURVE SMOOTH",
"456 238 OFFCURVE",
"512 210 OFFCURVE",
"512 160 CURVE SMOOTH",
"512 114 OFFCURVE",
"463 93 OFFCURVE",
"354 93 CURVE SMOOTH",
"238 93 OFFCURVE",
"146 116 OFFCURVE",
"42 174 CURVE",
"50 57 LINE",
"140 5 OFFCURVE",
"230 -17 OFFCURVE",
"353 -17 CURVE SMOOTH",
"548 -17 OFFCURVE",
"640 38 OFFCURVE",
"640 154 CURVE SMOOTH",
"640 263 OFFCURVE",
"562 324 OFFCURVE",
"374 362 CURVE SMOOTH",
"232 390 OFFCURVE",
"173 410 OFFCURVE",
"173 452 CURVE SMOOTH",
"173 488 OFFCURVE",
"218 512 OFFCURVE",
"325 512 CURVE SMOOTH",
"437 512 OFFCURVE",
"529 492 OFFCURVE",
"605 450 CURVE",
"597 564 LINE",
"532 598 OFFCURVE",
"440 616 OFFCURVE",
"330 616 CURVE SMOOTH",
"138 616 OFFCURVE",
"45 560 OFFCURVE",
"45 451 CURVE SMOOTH"
);
}
);
};
guideLines = (
{
angle = 90;
position = "{424, 0}";
}
);
layerId = "5CDC9493-BBC1-4A3F-B4CD-BC7609ABC2EB";
name = "19 Apr 21, 14:02";
paths = (
{
closed = 1;
nodes = (
"46 196 OFFCURVE",
"507 307 OFFCURVE",
"507 169 CURVE SMOOTH",
"507 122 OFFCURVE",
"458 94 OFFCURVE",
"354 94 CURVE SMOOTH",
"243 94 OFFCURVE",
"152 124 OFFCURVE",
"47 182 CURVE",
"55 59 LINE",
"139 11 OFFCURVE",
"243 -14 OFFCURVE",
"353 -14 CURVE SMOOTH",
"535 -14 OFFCURVE",
"634 52 OFFCURVE",
"634 171 CURVE SMOOTH",
"634 426 OFFCURVE",
"172 321 OFFCURVE",
"172 446 CURVE SMOOTH",
"172 489 OFFCURVE",
"220 512 OFFCURVE",
"336 512 CURVE SMOOTH",
"442 512 OFFCURVE",
"533 491 OFFCURVE",
"605 466 CURVE",
"598 578 LINE",
"533 597 OFFCURVE",
"441 614 OFFCURVE",
"334 614 CURVE SMOOTH",
"141 614 OFFCURVE",
"49 558 OFFCURVE",
"48 449 CURVE SMOOTH"
);
}
);
width = 664;
},
{
associatedMasterId = "4F9EBE27-C263-4ED9-B2A0-4AD0096E628D";
layerId = "5E6A21F7-0B9C-401A-A69F-8FE2B1B91840";
name = "14 Oct 21, 16:15";
paths = (
{
closed = 1;
nodes = (
"25 150 OFFCURVE",
"484 263 OFFCURVE",
"484 183 CURVE SMOOTH",
"484 162 OFFCURVE",
"454 150 OFFCURVE",
"362 150 CURVE SMOOTH",
"223 150 OFFCURVE",
"134 180 OFFCURVE",
"32 230 CURVE",
"40 43 LINE",
"144 3 OFFCURVE",
"274 -22 OFFCURVE",
"410 -22 CURVE SMOOTH",
"645 -22 OFFCURVE",
"771 67 OFFCURVE",
"771 204 CURVE SMOOTH",
"770 485 OFFCURVE",
"310 360 OFFCURVE",
"310 442 CURVE SMOOTH",
"310 462 OFFCURVE",
"336 474 OFFCURVE",
"417 474 CURVE SMOOTH",
"559 474 OFFCURVE",
"638 462 OFFCURVE",
"734 428 CURVE",
"726 588 LINE",
"644 606 OFFCURVE",
"527 624 OFFCURVE",
"390 624 CURVE SMOOTH",
"143 624 OFFCURVE",
"25 560 OFFCURVE",
"25 426 CURVE SMOOTH"
);
}
);
width = 779;
},
{
anchors = (
{
name = bottom;
position = "{396, 0}";
},
{
name = top;
position = "{396, 600}";
}
);
background = {
paths = (
{
closed = 1;
nodes = (
"47 130 OFFCURVE",
"490 270 OFFCURVE",
"490 189 CURVE SMOOTH",
"490 167 OFFCURVE",
"460 154 OFFCURVE",
"373 154 CURVE SMOOTH",
"250 154 OFFCURVE",
"130 181 OFFCURVE",
"46 227 CURVE",
"54 45 LINE",
"161 5 OFFCURVE",
"277 -21 OFFCURVE",
"416 -21 CURVE SMOOTH",
"655 -21 OFFCURVE",
"762 52 OFFCURVE",
"762 192 CURVE SMOOTH",
"762 475 OFFCURVE",
"316 339 OFFCURVE",
"316 422 CURVE SMOOTH",
"316 442 OFFCURVE",
"345 455 OFFCURVE",
"431 455 CURVE SMOOTH",
"523 455 OFFCURVE",
"623 442 OFFCURVE",
"724 410 CURVE",
"717 584 LINE",
"634 602 OFFCURVE",
"534 620 OFFCURVE",
"413 620 CURVE SMOOTH",
"137 620 OFFCURVE",
"47 534 OFFCURVE",
"47 410 CURVE SMOOTH"
);
}
);
};
layerId = "4F9EBE27-C263-4ED9-B2A0-4AD0096E628D";
name = "300";
paths = (
{
closed = 1;
nodes = (
"47 159 OFFCURVE",
"490 270 OFFCURVE",
"490 189 CURVE SMOOTH",
"490 167 OFFCURVE",
"460 154 OFFCURVE",
"373 154 CURVE SMOOTH",
"250 154 OFFCURVE",
"130 181 OFFCURVE",
"46 227 CURVE",
"54 45 LINE",
"161 5 OFFCURVE",
"277 -21 OFFCURVE",
"416 -21 CURVE SMOOTH",
"636 -21 OFFCURVE",
"762 51 OFFCURVE",
"762 194 CURVE SMOOTH",
"762 463 OFFCURVE",
"316 343 OFFCURVE",
"316 426 CURVE SMOOTH",
"316 446 OFFCURVE",
"345 459 OFFCURVE",
"431 459 CURVE SMOOTH",
"523 459 OFFCURVE",
"623 446 OFFCURVE",
"726 414 CURVE",
"718 588 LINE",
"634 606 OFFCURVE",
"534 624 OFFCURVE",
"397 624 CURVE SMOOTH",
"168 624 OFFCURVE",
"47 564 OFFCURVE",
"47 429 CURVE SMOOTH"
);
}
);
width = 791;
}
);
leftKerningGroup = S;
rightKerningGroup = S;
unicode = 0053;
},
{
glyphname = Germandbls;
lastChange = "2023-09-17 15:40:37 +0000";
layers = (
{
background = {
paths = (
{
closed = 1;
nodes = (
"174 0 LINE",
"174 452 LINE SMOOTH",
"174 514 OFFCURVE",
"219 540 OFFCURVE",
"317 540 CURVE SMOOTH",
"407 540 OFFCURVE",
"456 522 OFFCURVE",
"456 487 CURVE SMOOTH",
"456 416 OFFCURVE",
"249 448 OFFCURVE",
"249 310 CURVE SMOOTH",
"249 150 OFFCURVE",
"533 215 OFFCURVE",
"533 130 CURVE SMOOTH",
"533 92 OFFCURVE",
"478 74 OFFCURVE",
"417 74 CURVE SMOOTH",
"365 74 OFFCURVE",
"302 87 OFFCURVE",
"246 112 CURVE",
"246 18 LINE",
"302 -5 OFFCURVE",
"373 -17 OFFCURVE",
"438 -17 CURVE SMOOTH",
"560 -17 OFFCURVE",
"653 30 OFFCURVE",
"653 130 CURVE SMOOTH",
"653 318 OFFCURVE",
"369 228 OFFCURVE",
"369 314 CURVE SMOOTH",
"369 387 OFFCURVE",
"576 335 OFFCURVE",
"576 490 CURVE SMOOTH",
"576 584 OFFCURVE",
"501 632 OFFCURVE",
"321 632 CURVE SMOOTH",
"150 632 OFFCURVE",
"54 565 OFFCURVE",
"54 454 CURVE SMOOTH",
"54 0 LINE"
);
},
{
closed = 1;
nodes = (
"70 448 LINE",
"-48 448 LINE",
"-48 356 LINE",
"70 356 LINE"
);
}
);
};
layerId = "6BCBDBF6-8315-4194-A290-F71994A92467";
paths = (
{
closed = 1;
nodes = (
"184 0 LINE",
"184 364 LINE SMOOTH",
"184 446 OFFCURVE",
"222 496 OFFCURVE",
"327 496 CURVE SMOOTH",
"568 496 LINE",
"558 527 LINE",
"283 334 LINE",
"283 257 LINE",
"485 257 OFFCURVE",
"562 239 OFFCURVE",
"562 170 CURVE SMOOTH",
"562 120 OFFCURVE",
"522 95 OFFCURVE",
"424 95 CURVE SMOOTH",
"362 95 OFFCURVE",
"304 104 OFFCURVE",
"265 118 CURVE",
"265 18 LINE",
"321 1 OFFCURVE",
"383 -9 OFFCURVE",
"442 -9 CURVE SMOOTH",
"578 -9 OFFCURVE",
"698 40 OFFCURVE",
"698 166 CURVE SMOOTH",
"698 282 OFFCURVE",
"599 338 OFFCURVE",
"434 338 CURVE",
"642 477 LINE",
"642 600 LINE",
"339 600 LINE SMOOTH",
"156 600 OFFCURVE",
"56 511 OFFCURVE",
"56 374 CURVE SMOOTH",
"56 0 LINE"
);
}
);
width = 722;
},
{
background = {
paths = (
{
closed = 1;
nodes = (
"210 0 LINE",
"210 364 LINE SMOOTH",
"210 446 OFFCURVE",
"248 496 OFFCURVE",
"354 496 CURVE SMOOTH",
"541 496 LINE",
"310 334 LINE",
"310 257 LINE",
"511 257 OFFCURVE",
"589 239 OFFCURVE",
"589 170 CURVE SMOOTH",
"589 120 OFFCURVE",
"548 95 OFFCURVE",
"450 95 CURVE SMOOTH",
"388 95 OFFCURVE",
"330 104 OFFCURVE",
"291 114 CURVE",
"291 18 LINE",
"347 1 OFFCURVE",
"410 -9 OFFCURVE",
"469 -9 CURVE SMOOTH",
"604 -9 OFFCURVE",
"725 40 OFFCURVE",
"725 166 CURVE SMOOTH",
"725 282 OFFCURVE",
"626 338 OFFCURVE",
"460 338 CURVE",
"669 477 LINE",
"669 600 LINE",
"366 600 LINE SMOOTH",
"182 600 OFFCURVE",
"82 511 OFFCURVE",
"82 374 CURVE SMOOTH",
"82 0 LINE"
);
}
);
};
layerId = "4F9EBE27-C263-4ED9-B2A0-4AD0096E628D";
paths = (
{
closed = 1;
nodes = (
"226 0 LINE",
"226 308 LINE SMOOTH",
"226 390 OFFCURVE",
"248 440 OFFCURVE",
"354 440 CURVE SMOOTH",
"666 440 LINE",
"605 528 LINE",
"362 357 LINE",
"362 242 LINE",
"511 242 OFFCURVE",
"540 234 OFFCURVE",
"540 200 CURVE SMOOTH",
"540 167 OFFCURVE",
"513 153 OFFCURVE",
"454 153 CURVE SMOOTH",
"386 153 OFFCURVE",
"331 161 OFFCURVE",
"285 172 CURVE",
"293 -4 LINE",
"346 -14 OFFCURVE",
"403 -21 OFFCURVE",
"475 -21 CURVE SMOOTH",
"665 -21 OFFCURVE",
"789 50 OFFCURVE",
"789 184 CURVE SMOOTH",
"789 309 OFFCURVE",
"669 362 OFFCURVE",
"567 354 CURVE",
"752 454 LINE",
"752 600 LINE",
"366 600 LINE SMOOTH",
"143 600 OFFCURVE",
"18 522 OFFCURVE",
"18 374 CURVE SMOOTH",
"18 0 LINE"
);
}
);
width = 818;
}
);
leftKerningGroup = Germandbls;
rightKerningGroup = Germandbls;
unicode = 1E9E;
},
{
glyphname = T;
lastChange = "2023-09-17 15:40:37 +0000";
layers = (
{
anchors = (
{
name = bottom;
position = "{332, 0}";
},
{
name = center;
position = "{332, 300}";
},
{
name = top;
position = "{332, 600}";
}
);
layerId = "6BCBDBF6-8315-4194-A290-F71994A92467";
paths = (
{
closed = 1;
nodes = (
"268 496 LINE",
"268 0 LINE",
"396 0 LINE",
"396 496 LINE",
"632 496 LINE",
"632 600 LINE",
"32 600 LINE",
"32 496 LINE"
);
}
);
width = 664;
},
{
associatedMasterId = "6BCBDBF6-8315-4194-A290-F71994A92467";
layerId = "05B0A305-5D16-4E10-B86F-2B51F313A355";
name = foreground;
paths = (
{
closed = 1;
nodes = (
"260 496 LINE",
"260 0 LINE",
"388 0 LINE",
"388 496 LINE",
"632 496 LINE",
"632 600 LINE",
"16 600 LINE",
"16 496 LINE"
);
}
);
width = 648;
},
{
anchors = (
{
name = bottom;
position = "{376, 0}";
},
{
name = center;
position = "{376, 300}";
},
{
name = top;
position = "{376, 600}";
}
);
layerId = "4F9EBE27-C263-4ED9-B2A0-4AD0096E628D";
paths = (
{
closed = 1;
nodes = (
"252 408 LINE",
"252 0 LINE",
"500 0 LINE",
"500 409 LINE",
"724 409 LINE",
"724 600 LINE",
"28 600 LINE",
"28 408 LINE"
);
}
);
width = 754;
}
);
leftKerningGroup = T;
rightKerningGroup = T;
unicode = 0054;
},
{
glyphname = U;
lastChange = "2023-09-17 15:40:37 +0000";
layers = (
{
anchors = (
{
name = bottom;
position = "{366, 0}";
},
{
name = ogonek;
position = "{487, 8}";
},
{
name = top;
position = "{366, 600}";
},
{
name = topright;
position = "{717, 600}";
}
);
layerId = "6BCBDBF6-8315-4194-A290-F71994A92467";
paths = (
{
closed = 1;
nodes = (
"56 86 OFFCURVE",
"178 -14 OFFCURVE",
"367 -14 CURVE SMOOTH",
"558 -14 OFFCURVE",
"677 89 OFFCURVE",
"677 255 CURVE SMOOTH",
"677 600 LINE",
"549 600 LINE",
"549 246 LINE SMOOTH",
"549 152 OFFCURVE",
"478 91 OFFCURVE",
"368 91 CURVE SMOOTH",
"256 91 OFFCURVE",
"184 152 OFFCURVE",
"184 246 CURVE SMOOTH",
"184 600 LINE",
"56 600 LINE",
"56 239 LINE SMOOTH"
);
}
);
width = 733;
},
{
associatedMasterId = "6BCBDBF6-8315-4194-A290-F71994A92467";
layerId = "509DC822-697B-43A9-BDCD-D837440A6DB9";
name = foreground;
paths = (
{
closed = 1;
nodes = (
"40 83 OFFCURVE",
"162 -17 OFFCURVE",
"351 -17 CURVE SMOOTH",
"538 -17 OFFCURVE",
"661 83 OFFCURVE",
"661 237 CURVE SMOOTH",
"661 600 LINE",
"533 600 LINE",
"533 244 LINE SMOOTH",
"533 152 OFFCURVE",
"459 89 OFFCURVE",
"352 89 CURVE SMOOTH",
"243 89 OFFCURVE",
"168 152 OFFCURVE",
"168 244 CURVE SMOOTH",
"168 600 LINE",
"40 600 LINE",
"40 237 LINE SMOOTH"
);
}
);
width = 701;
},
{
anchors = (
{
name = bottom;
position = "{405, 0}";
},
{
name = ogonek;
position = "{534, 8}";
},
{
name = top;
position = "{405, 600}";
},
{
name = topright;
position = "{787, 600}";
}
);
layerId = "4F9EBE27-C263-4ED9-B2A0-4AD0096E628D";
paths = (
{
closed = 1;
nodes = (
"46 67 OFFCURVE",
"167 -20 OFFCURVE",
"406 -20 CURVE SMOOTH",
"643 -20 OFFCURVE",
"763 73 OFFCURVE",
"763 250 CURVE SMOOTH",
"763 600 LINE",
"515 600 LINE",
"515 311 LINE SMOOTH",
"515 194 OFFCURVE",
"489 156 OFFCURVE",
"406 156 CURVE SMOOTH",
"322 156 OFFCURVE",
"294 194 OFFCURVE",
"294 311 CURVE SMOOTH",
"294 600 LINE",
"46 600 LINE",
"46 234 LINE SMOOTH"
);
}
);
width = 811;
}
);
leftKerningGroup = U;
leftMetricsKey = H;
rightKerningGroup = U;
rightMetricsKey = H;
unicode = 0055;
},
{
glyphname = V;
lastChange = "2023-09-17 15:40:37 +0000";
layers = (
{
anchors = (
{
name = bottom;
position = "{368, 0}";
},
{
name = top;
position = "{368, 600}";
}
);
background = {
paths = (
{
closed = 1;
nodes = (
"22 600 LINE",
"327 0 LINE",
"470 0 LINE",
"774 600 LINE",
"634 600 LINE",
"400 128 LINE",
"164 600 LINE"
);
}
);
};
layerId = "6BCBDBF6-8315-4194-A290-F71994A92467";
paths = (
{
closed = 1;
nodes = (
"16 600 LINE",
"298 0 LINE",
"440 0 LINE",
"720 600 LINE",
"580 600 LINE",
"349 78 LINE",
"393 78 LINE",
"158 600 LINE"
);
}
);
width = 736;
},
{
associatedMasterId = "6BCBDBF6-8315-4194-A290-F71994A92467";
layerId = "A3A62E90-77FF-45C8-9E62-D45AC25026D1";
name = foreground;
paths = (
{
closed = 1;
nodes = (
"16 600 LINE",
"298 0 LINE",
"440 0 LINE",
"720 600 LINE",
"580 600 LINE",
"370 128 LINE",
"158 600 LINE"
);
}
);
width = 736;
},
{
anchors = (
{
name = bottom;
position = "{226, 0}";
},
{
name = top;
position = "{226, 600}";
}
);
layerId = "4F9EBE27-C263-4ED9-B2A0-4AD0096E628D";
paths = (
{
closed = 1;
nodes = (
"14 600 LINE",
"286 0 LINE",
"606 0 LINE",
"870 600 LINE",
"598 600 LINE",
"402 80 LINE",
"508 80 LINE",
"306 600 LINE"
);
}
);
width = 885;
}
);
leftKerningGroup = V;
rightKerningGroup = V;
unicode = 0056;
},
{
glyphname = W;
lastChange = "2023-09-17 15:40:37 +0000";
layers = (
{
anchors = (
{
name = bottom;
position = "{520, 0}";
},
{
name = top;
position = "{520, 600}";
}
);
layerId = "6BCBDBF6-8315-4194-A290-F71994A92467";
paths = (
{
closed = 1;
nodes = (
"235 0 LINE",
"386 0 LINE",
"534 510 LINE",
"503 510 LINE",
"654 0 LINE",
"807 0 LINE",
"1018 600 LINE",
"882 600 LINE",
"719 95 LINE",
"752 95 LINE",
"596 600 LINE",
"447 600 LINE",
"292 94 LINE",
"324 95 LINE",
"164 600 LINE",
"26 600 LINE"
);
}
);
width = 1039;
},
{
associatedMasterId = "6BCBDBF6-8315-4194-A290-F71994A92467";
layerId = "AAC2F2C2-F94F-4AC4-BCA5-D53F79AED9F4";
name = foreground;
paths = (
{
closed = 1;
nodes = (
"247 0 LINE",
"398 0 LINE",
"517 467 LINE",
"648 0 LINE",
"802 0 LINE",
"1010 600 LINE",
"874 600 LINE",
"730 146 LINE",
"594 600 LINE",
"446 600 LINE",
"320 146 LINE",
"168 600 LINE",
"30 600 LINE"
);
}
);
width = 1039;
},
{
anchors = (
{
name = bottom;
position = "{579, 0}";
},
{
name = top;
position = "{579, 600}";
}
);
background = {
paths = (
{
closed = 1;
nodes = (
"-2 600 LINE",
"271 0 LINE",
"590 0 LINE",
"854 600 LINE",
"583 600 LINE",
"387 64 LINE",
"491 64 LINE",
"289 600 LINE"
);
}
);
};
layerId = "4F9EBE27-C263-4ED9-B2A0-4AD0096E628D";
paths = (
{
closed = 1;
nodes = (
"213 0 LINE",
"483 0 LINE",
"647 566 LINE",
"507 566 LINE",
"672 0 LINE",
"946 0 LINE",
"1154 600 LINE",
"909 600 LINE",
"727 32 LINE",
"858 32 LINE",
"703 600 LINE",
"463 600 LINE",
"310 32 LINE",
"441 32 LINE",
"260 600 LINE",
"5 600 LINE"
);
}
);
width = 1157;
}
);
leftKerningGroup = W;
rightKerningGroup = W;
unicode = 0057;
},
{
glyphname = X;
lastChange = "2023-09-17 15:40:37 +0000";
layers = (
{
anchors = (
{
name = bottom;
position = "{366, 0}";
},
{
name = top;
position = "{366, 600}";
}
);
background = {
paths = (
{
closed = 1;
nodes = (
"706 600 LINE",
"541 600 LINE",
"359 384 LINE",
"433 287 LINE"
);
},
{
closed = 1;
nodes = (
"717 0 LINE",
"401 354 LINE",
"200 600 LINE",
"33 600 LINE",
"323 259 LINE",
"549 0 LINE"
);
},
{
closed = 1;
nodes = (
"182 0 LINE",
"362 224 LINE",
"286 322 LINE",
"17 0 LINE"
);
}
);
};
layerId = "6BCBDBF6-8315-4194-A290-F71994A92467";
paths = (
{
closed = 1;
nodes = (
"714 0 LINE",
"443 305 LINE",
"706 600 LINE",
"542 600 LINE",
"368 394 LINE",
"199 600 LINE",
"34 600 LINE",
"280 312 LINE",
"18 0 LINE",
"182 0 LINE",
"359 218 LINE",
"549 0 LINE"
);
}
);
width = 733;
},
{
associatedMasterId = "6BCBDBF6-8315-4194-A290-F71994A92467";
layerId = "3F4A420A-AC18-4CFD-AD64-9B8223F66417";
name = foreground;
paths = (
{
closed = 1;
nodes = (
"713 600 LINE",
"538 600 LINE",
"358 384 LINE",
"435 287 LINE"
);
},
{
closed = 1;
nodes = (
"722 0 LINE",
"407 354 LINE",
"206 600 LINE",
"33 600 LINE",
"323 259 LINE",
"549 0 LINE"
);
},
{
closed = 1;
nodes = (
"194 0 LINE",
"371 224 LINE",
"292 322 LINE",
"18 0 LINE"
);
}
);
width = 734;
},
{
anchors = (
{
name = bottom;
position = "{366, 0}";
},
{
name = top;
position = "{366, 600}";
}
);
associatedMasterId = "6BCBDBF6-8315-4194-A290-F71994A92467";
background = {
paths = (
{
closed = 1;
nodes = (
"551 180 LINE",
"166 640 LINE",
"68 558 LINE",
"454 98 LINE"
);
}
);
};
layerId = "677ACC8A-EC48-41A5-AAC2-FAE4644AA7DA";
name = "5 Feb 21, 20:48";
paths = (
{
closed = 1;
nodes = (
"706 600 LINE",
"541 600 LINE",
"359 384 LINE",
"433 287 LINE"
);
},
{
closed = 1;
nodes = (
"717 0 LINE",
"401 354 LINE",
"200 600 LINE",
"33 600 LINE",
"323 259 LINE",
"549 0 LINE"
);
},
{
closed = 1;
nodes = (
"182 0 LINE",
"362 224 LINE",
"286 322 LINE",
"17 0 LINE"
);
}
);
width = 733;
},
{
anchors = (
{
name = bottom;
position = "{366, 0}";
},
{
name = top;
position = "{366, 600}";
}
);
associatedMasterId = "6BCBDBF6-8315-4194-A290-F71994A92467";
background = {
paths = (
{
closed = 1;
nodes = (
"706 600 LINE",
"541 600 LINE",
"359 384 LINE",
"433 287 LINE"
);
},
{
closed = 1;
nodes = (
"717 0 LINE",
"401 354 LINE",
"200 600 LINE",
"33 600 LINE",
"323 259 LINE",
"549 0 LINE"
);
},
{
closed = 1;
nodes = (
"182 0 LINE",
"362 224 LINE",
"286 322 LINE",
"17 0 LINE"
);
}
);
};
layerId = "7396F269-892B-44CB-A28E-FE5F867A94EE";
name = "5 Feb 21, 20:55";
paths = (
{
closed = 1;
nodes = (
"706 600 LINE",
"542 600 LINE",
"359 384 LINE",
"433 288 LINE"
);
},
{
closed = 1;
nodes = (
"717 0 LINE",
"401 354 LINE",
"199 600 LINE",
"33 600 LINE",
"323 259 LINE",
"549 0 LINE"
);
},
{
closed = 1;
nodes = (
"182 0 LINE",
"364 224 LINE",
"286 322 LINE",
"17 0 LINE"
);
}
);
width = 733;
},
{
anchors = (
{
name = bottom;
position = "{302, 0}";
},
{
name = top;
position = "{302, 600}";
}
);
background = {
paths = (
{
closed = 1;
nodes = (
"857 0 LINE",
"586 306 LINE",
"841 600 LINE",
"557 600 LINE",
"338 310 LINE",
"539 311 LINE",
"318 600 LINE",
"25 600 LINE",
"262 311 LINE",
"0 0 LINE",
"285 0 LINE",
"512 303 LINE",
"310 299 LINE",
"563 0 LINE"
);
}
);
};
layerId = "4F9EBE27-C263-4ED9-B2A0-4AD0096E628D";
paths = (
{
closed = 1;
nodes = (
"857 0 LINE",
"586 306 LINE",
"857 600 LINE",
"573 600 LINE",
"438 442 LINE",
"302 600 LINE",
"9 600 LINE",
"262 311 LINE",
"0 0 LINE",
"285 0 LINE",
"418 174 LINE",
"563 0 LINE"
);
}
);
width = 857;
}
);
leftKerningGroup = X;
rightKerningGroup = X;
unicode = 0058;
},
{
glyphname = Y;
lastChange = "2023-09-17 15:40:37 +0000";
layers = (
{
anchors = (
{
name = bottom;
position = "{344, 0}";
},
{
name = top;
position = "{344, 600}";
},
{
name = topleft;
position = "{16, 600}";
}
);
background = {
paths = (
{
closed = 1;
nodes = (
"16 600 LINE",
"298 0 LINE",
"440 0 LINE",
"720 600 LINE",
"580 600 LINE",
"370 128 LINE",
"158 600 LINE"
);
}
);
};
layerId = "6BCBDBF6-8315-4194-A290-F71994A92467";
paths = (
{
closed = 1;
nodes = (
"0 600 LINE",
"283 208 LINE",
"406 208 LINE",
"688 600 LINE",
"540 600 LINE",
"315 282 LINE",
"378 282 LINE",
"150 600 LINE"
);
},
{
closed = 1;
nodes = (
"409 0 LINE",
"409 268 LINE",
"281 268 LINE",
"281 0 LINE"
);
}
);
width = 688;
},
{
associatedMasterId = "6BCBDBF6-8315-4194-A290-F71994A92467";
layerId = "8928EF81-19CD-4BBE-B0A2-008CD312208A";
name = foreground;
paths = (
{
closed = 1;
nodes = (
"0 600 LINE",
"282 216 LINE",
"408 216 LINE",
"688 600 LINE",
"540 600 LINE",
"346 328 LINE",
"150 600 LINE"
);
},
{
closed = 1;
nodes = (
"409 0 LINE",
"409 268 LINE",
"281 268 LINE",
"281 0 LINE"
);
}
);
width = 688;
},
{
anchors = (
{
name = bottom;
position = "{434, 0}";
},
{
name = top;
position = "{434, 600}";
},
{
name = topleft;
position = "{18, 600}";
}
);
layerId = "4F9EBE27-C263-4ED9-B2A0-4AD0096E628D";
paths = (
{
closed = 1;
nodes = (
"10 600 LINE",
"293 208 LINE",
"576 208 LINE",
"858 600 LINE",
"574 600 LINE",
"334 206 LINE",
"554 206 LINE",
"310 600 LINE"
);
},
{
closed = 1;
nodes = (
"578 0 LINE",
"578 268 LINE",
"290 268 LINE",
"290 0 LINE"
);
}
);
width = 869;
}
);
leftKerningGroup = Y;
rightKerningGroup = Y;
unicode = 0059;
},
{
glyphname = Z;
lastChange = "2023-09-17 15:40:37 +0000";
layers = (
{
anchors = (
{
name = bottom;
position = "{352, 0}";
},
{
name = center;
position = "{352, 300}";
},
{
name = top;
position = "{352, 600}";
}
);
background = {
paths = (
{
closed = 1;
nodes = (
"538 496 LINE",
"538 600 LINE",
"2 600 LINE",
"2 496 LINE"
);
},
{
closed = 1;
nodes = (
"554 0 LINE",
"554 104 LINE",
"18 104 LINE",
"18 0 LINE"
);
},
{
closed = 1;
nodes = (
"-103 0 LINE",
"60 0 LINE",
"626 600 LINE",
"462 600 LINE"
);
}
);
};
layerId = "6BCBDBF6-8315-4194-A290-F71994A92467";
paths = (
{
closed = 1;
nodes = (
"640 0 LINE",
"640 104 LINE",
"177 103 LINE",
"196 86 LINE",
"638 489 LINE",
"638 600 LINE",
"72 600 LINE",
"72 496 LINE",
"522 496 LINE",
"500 513 LINE",
"56 112 LINE",
"56 0 LINE"
);
}
);
width = 696;
},
{
associatedMasterId = "6BCBDBF6-8315-4194-A290-F71994A92467";
layerId = "AAF52107-A7CB-4BBC-B739-42D6495F491E";
name = foreground;
paths = (
{
closed = 1;
nodes = (
"596 0 LINE",
"596 104 LINE",
"141 103 LINE",
"155 86 LINE",
"589 489 LINE",
"589 600 LINE",
"44 600 LINE",
"44 496 LINE",
"470 496 LINE",
"456 513 LINE",
"20 112 LINE",
"20 0 LINE"
);
}
);
width = 400;
},
{
anchors = (
{
name = bottom;
position = "{410, 0}";
},
{
name = center;
position = "{410, 300}";
},
{
name = top;
position = "{410, 600}";
}
);
layerId = "4F9EBE27-C263-4ED9-B2A0-4AD0096E628D";
paths = (
{
closed = 1;
nodes = (
"774 0 LINE",
"774 184 LINE",
"183 175 LINE",
"226 62 LINE",
"756 417 LINE",
"756 600 LINE",
"66 600 LINE",
"66 424 LINE",
"640 432 LINE",
"594 544 LINE",
"46 184 LINE",
"46 0 LINE"
);
}
);
width = 822;
}
);
leftKerningGroup = Z;
leftMetricsKey = H;
rightKerningGroup = Z;
rightMetricsKey = H;
unicode = 005A;
},
{
glyphname = I.ss01;
lastChange = "2023-09-17 15:40:37 +0000";
layers = (
{
anchors = (
{
name = bottom;
position = "{269, 0}";
},
{
name = ogonek;
position = "{482, 0}";
},
{
name = top;
position = "{269, 600}";
},
{
name = topleft;
position = "{16, 600}";
}
);
layerId = "6BCBDBF6-8315-4194-A290-F71994A92467";
paths = (
{
closed = 1;
nodes = (
"331 0 LINE",
"331 600 LINE",
"207 600 LINE",
"207 0 LINE"
);
},
{
closed = 1;
nodes = (
"56 496 LINE",
"482 496 LINE",
"482 600 LINE",
"56 600 LINE"
);
},
{
closed = 1;
nodes = (
"56 0 LINE",
"482 0 LINE",
"482 104 LINE",
"56 104 LINE"
);
}
);
width = 538;
},
{
associatedMasterId = "6BCBDBF6-8315-4194-A290-F71994A92467";
layerId = "5BCDC843-98AD-46E8-9C3C-0E78BE75F217";
name = foreground;
paths = (
{
closed = 1;
nodes = (
"194 0 LINE",
"194 600 LINE",
"66 600 LINE",
"66 0 LINE"
);
}
);
width = 259;
},
{
anchors = (
{
name = bottom;
position = "{338, 0}";
},
{
name = ogonek;
position = "{593, 8}";
},
{
name = top;
position = "{338, 600}";
},
{
name = topleft;
position = "{22, 600}";
}
);
layerId = "4F9EBE27-C263-4ED9-B2A0-4AD0096E628D";
paths = (
{
closed = 1;
nodes = (
"459 0 LINE",
"459 600 LINE",
"218 600 LINE",
"218 0 LINE"
);
},
{
closed = 1;
nodes = (
"46 440 LINE",
"630 440 LINE",
"630 600 LINE",
"46 600 LINE"
);
},
{
closed = 1;
nodes = (
"46 0 LINE",
"630 0 LINE",
"630 160 LINE",
"46 160 LINE"
);
}
);
width = 678;
}
);
leftKerningGroup = I.ss01;
leftMetricsKey = H;
rightKerningGroup = I.ss01;
rightMetricsKey = H;
},
{
glyphname = IJ.ss01;
lastChange = "2023-09-17 15:40:37 +0000";
layers = (
{
layerId = "6BCBDBF6-8315-4194-A290-F71994A92467";
paths = (
{
closed = 1;
nodes = (
"196 184 LINE",
"196 600 LINE",
"68 600 LINE",
"68 184 LINE"
);
},
{
closed = 1;
nodes = (
"102 -7 OFFCURVE",
"161 -17 OFFCURVE",
"226 -17 CURVE SMOOTH",
"409 -17 OFFCURVE",
"519 55 OFFCURVE",
"519 208 CURVE SMOOTH",
"519 600 LINE",
"391 600 LINE",
"391 211 LINE SMOOTH",
"391 138 OFFCURVE",
"325 92 OFFCURVE",
"198 92 CURVE SMOOTH",
"152 92 OFFCURVE",
"104 98 OFFCURVE",
"56 114 CURVE",
"56 8 LINE"
);
},
{
closed = 1;
nodes = (
"289 500 LINE",
"463 500 LINE",
"463 600 LINE",
"289 600 LINE"
);
}
);
width = 575;
},
{
layerId = "4F9EBE27-C263-4ED9-B2A0-4AD0096E628D";
paths = (
{
closed = 1;
nodes = (
"294 246 LINE",
"294 600 LINE",
"46 600 LINE",
"46 246 LINE"
);
},
{
closed = 1;
nodes = (
"136 -12 OFFCURVE",
"222 -20 OFFCURVE",
"294 -20 CURVE SMOOTH",
"560 -20 OFFCURVE",
"694 92 OFFCURVE",
"694 245 CURVE SMOOTH",
"694 600 LINE",
"462 600 LINE",
"462 335 LINE SMOOTH",
"462 215 OFFCURVE",
"402 168 OFFCURVE",
"234 168 CURVE SMOOTH",
"171 168 OFFCURVE",
"109 176 OFFCURVE",
"47 194 CURVE",
"47 16 LINE"
);
},
{
closed = 1;
nodes = (
"344 436 LINE",
"558 436 LINE",
"558 600 LINE",
"344 600 LINE"
);
}
);
width = 742;
}
);
leftKerningGroup = IJ.ss01;
leftMetricsKey = I;
rightKerningGroup = IJ.ss01;
rightMetricsKey = J;
},
{
glyphname = Q.ss01;
lastChange = "2023-09-17 15:40:37 +0000";
layers = (
{
background = {
paths = (
{
closed = 1;
nodes = (
"690 -172 LINE",
"690 -46 LINE",
"476 -8 LINE",
"644 20 OFFCURVE",
"748 135 OFFCURVE",
"748 300 CURVE SMOOTH",
"748 490 OFFCURVE",
"610 614 OFFCURVE",
"392 614 CURVE SMOOTH",
"174 614 OFFCURVE",
"36 490 OFFCURVE",
"36 300 CURVE SMOOTH",
"36 169 OFFCURVE",
"102 70 OFFCURVE",
"213 20 CURVE"
);
},
{
closed = 1;
nodes = (
"164 427 OFFCURVE",
"254 510 OFFCURVE",
"392 510 CURVE SMOOTH",
"530 510 OFFCURVE",
"620 427 OFFCURVE",
"620 300 CURVE SMOOTH",
"620 173 OFFCURVE",
"530 91 OFFCURVE",
"392 91 CURVE SMOOTH",
"254 91 OFFCURVE",
"164 173 OFFCURVE",
"164 300 CURVE SMOOTH"
);
}
);
};
layerId = "6BCBDBF6-8315-4194-A290-F71994A92467";
paths = (
{
closed = 1;
nodes = (
"36 94 OFFCURVE",
"170 -50 OFFCURVE",
"690 -180 CURVE",
"690 -54 LINE",
"476 -8 LINE",
"644 20 OFFCURVE",
"748 135 OFFCURVE",
"748 300 CURVE SMOOTH",
"748 490 OFFCURVE",
"610 614 OFFCURVE",
"392 614 CURVE SMOOTH",
"174 614 OFFCURVE",
"36 490 OFFCURVE",
"36 300 CURVE SMOOTH"
);
},
{
closed = 1;
nodes = (
"164 427 OFFCURVE",
"254 510 OFFCURVE",
"392 510 CURVE SMOOTH",
"530 510 OFFCURVE",
"620 427 OFFCURVE",
"620 300 CURVE SMOOTH",
"620 173 OFFCURVE",
"530 91 OFFCURVE",
"392 91 CURVE SMOOTH",
"254 91 OFFCURVE",
"164 173 OFFCURVE",
"164 300 CURVE SMOOTH"
);
}
);
width = 784;
},
{
background = {
paths = (
{
closed = 1;
nodes = (
"18 170 OFFCURVE",
"79 72 OFFCURVE",
"197 20 CURVE",
"375 -74 OFFCURVE",
"554 -166 OFFCURVE",
"733 -260 CURVE",
"773 -30 LINE",
"542 -11 LINE",
"730 22 OFFCURVE",
"826 135 OFFCURVE",
"826 300 CURVE SMOOTH",
"826 496 OFFCURVE",
"688 620 OFFCURVE",
"422 620 CURVE SMOOTH",
"157 620 OFFCURVE",
"18 496 OFFCURVE",
"18 300 CURVE SMOOTH"
);
},
{
closed = 1;
nodes = (
"333 163 OFFCURVE",
"290 210 OFFCURVE",
"290 300 CURVE SMOOTH",
"290 393 OFFCURVE",
"333 440 OFFCURVE",
"424 438 CURVE SMOOTH",
"512 435 OFFCURVE",
"554 388 OFFCURVE",
"554 300 CURVE SMOOTH",
"554 210 OFFCURVE",
"512 163 OFFCURVE",
"422 163 CURVE SMOOTH"
);
}
);
};
layerId = "4F9EBE27-C263-4ED9-B2A0-4AD0096E628D";
paths = (
{
closed = 1;
nodes = (
"18 41 OFFCURVE",
"242 -166 OFFCURVE",
"765 -292 CURVE",
"781 -54 LINE",
"478 -3 LINE",
"730 22 OFFCURVE",
"826 135 OFFCURVE",
"826 300 CURVE SMOOTH",
"826 496 OFFCURVE",
"688 620 OFFCURVE",
"422 620 CURVE SMOOTH",
"157 620 OFFCURVE",
"18 496 OFFCURVE",
"18 284 CURVE SMOOTH"
);
},
{
closed = 1;
nodes = (
"290 393 OFFCURVE",
"333 440 OFFCURVE",
"424 438 CURVE SMOOTH",
"512 435 OFFCURVE",
"554 388 OFFCURVE",
"554 300 CURVE SMOOTH",
"554 210 OFFCURVE",
"512 163 OFFCURVE",
"422 163 CURVE SMOOTH",
"333 163 OFFCURVE",
"290 210 OFFCURVE",
"290 300 CURVE SMOOTH"
);
}
);
width = 845;
},
{
associatedMasterId = "6BCBDBF6-8315-4194-A290-F71994A92467";
layerId = "BFC85E66-0AF8-4160-8126-B090454FF476";
name = "8 Nov 21, 16:20";
paths = (
{
closed = 1;
nodes = (
"690 -172 LINE",
"690 -46 LINE",
"476 -8 LINE",
"644 20 OFFCURVE",
"748 135 OFFCURVE",
"748 300 CURVE SMOOTH",
"748 490 OFFCURVE",
"610 614 OFFCURVE",
"392 614 CURVE SMOOTH",
"174 614 OFFCURVE",
"36 490 OFFCURVE",
"36 300 CURVE SMOOTH",
"36 169 OFFCURVE",
"102 70 OFFCURVE",
"213 20 CURVE"
);
},
{
closed = 1;
nodes = (
"164 427 OFFCURVE",
"254 510 OFFCURVE",
"392 510 CURVE SMOOTH",
"530 510 OFFCURVE",
"620 427 OFFCURVE",
"620 300 CURVE SMOOTH",
"620 173 OFFCURVE",
"530 91 OFFCURVE",
"392 91 CURVE SMOOTH",
"254 91 OFFCURVE",
"164 173 OFFCURVE",
"164 300 CURVE SMOOTH"
);
}
);
width = 784;
},
{
anchors = (
{
name = bottom;
position = "{392, 0}";
},
{
name = center;
position = "{392, 300}";
},
{
name = ogonek;
position = "{706, 8}";
},
{
name = top;
position = "{392, 600}";
},
{
name = topleft;
position = "{16, 600}";
},
{
name = topright;
position = "{768, 600}";
}
);
associatedMasterId = "4F9EBE27-C263-4ED9-B2A0-4AD0096E628D";
layerId = "A8737036-214A-4C6B-A4FD-453838462141";
name = "8 Nov 21, 16:23";
paths = (
{
closed = 1;
nodes = (
"686 -21 OFFCURVE",
"824 103 OFFCURVE",
"824 300 CURVE SMOOTH",
"824 496 OFFCURVE",
"686 620 OFFCURVE",
"420 620 CURVE SMOOTH",
"154 620 OFFCURVE",
"16 496 OFFCURVE",
"16 300 CURVE SMOOTH",
"16 103 OFFCURVE",
"154 -21 OFFCURVE",
"420 -21 CURVE SMOOTH"
);
},
{
closed = 1;
nodes = (
"330 163 OFFCURVE",
"288 210 OFFCURVE",
"288 300 CURVE SMOOTH",
"288 393 OFFCURVE",
"330 440 OFFCURVE",
"422 438 CURVE SMOOTH",
"510 435 OFFCURVE",
"552 388 OFFCURVE",
"552 300 CURVE SMOOTH",
"552 210 OFFCURVE",
"510 163 OFFCURVE",
"420 163 CURVE SMOOTH"
);
},
{
closed = 1;
nodes = (
"194 20 LINE",
"730 -260 LINE",
"770 -30 LINE",
"500 -8 LINE"
);
}
);
width = 840;
}
);
leftKerningGroup = Q.ss01;
leftMetricsKey = O;
rightKerningGroup = Q.ss01;
rightMetricsKey = O;
},
{
glyphname = a;
lastChange = "2023-09-18 16:41:26 +0000";
layers = (
{
anchors = (
{
name = bottom;
position = "{265, 0}";
},
{
name = ogonek;
position = "{496, 0}";
},
{
name = top;
position = "{281, 448}";
}
);
background = {
paths = (
{
closed = 1;
nodes = (
"21 29 OFFCURVE",
"82 -17 OFFCURVE",
"180 -17 CURVE SMOOTH",
"262 -17 OFFCURVE",
"331 17 OFFCURVE",
"379 80 CURVE",
"379 0 LINE",
"496 0 LINE",
"496 267 LINE",
"496 395 OFFCURVE",
"416 464 OFFCURVE",
"263 464 CURVE SMOOTH",
"179 464 OFFCURVE",
"104 446 OFFCURVE",
"49 405 CURVE",
"44 309 LINE",
"89 346 OFFCURVE",
"161 372 OFFCURVE",
"240 372 CURVE SMOOTH",
"326 372 OFFCURVE",
"378 342 OFFCURVE",
"378 282 CURVE",
"378 266 LINE",
"349 266 LINE SMOOTH",
"129 266 OFFCURVE",
"21 212 OFFCURVE",
"21 102 CURVE SMOOTH"
);
},
{
closed = 1;
nodes = (
"132 167 OFFCURVE",
"203 189 OFFCURVE",
"352 189 CURVE SMOOTH",
"378 189 LINE",
"378 146 LINE",
"325 96 OFFCURVE",
"274 74 OFFCURVE",
"217 74 CURVE SMOOTH",
"164 74 OFFCURVE",
"132 92 OFFCURVE",
"132 122 CURVE SMOOTH"
);
}
);
};
layerId = "6BCBDBF6-8315-4194-A290-F71994A92467";
paths = (
{
closed = 1;
nodes = (
"28 31 OFFCURVE",
"86 -14 OFFCURVE",
"183 -14 CURVE SMOOTH",
"270 -14 OFFCURVE",
"336 24 OFFCURVE",
"379 80 CURVE",
"379 0 LINE",
"496 0 LINE",
"496 267 LINE SMOOTH",
"496 392 OFFCURVE",
"410 462 OFFCURVE",
"255 462 CURVE SMOOTH",
"182 462 OFFCURVE",
"124 446 OFFCURVE",
"65 418 CURVE",
"65 330 LINE",
"139 358 OFFCURVE",
"188 370 OFFCURVE",
"243 370 CURVE SMOOTH",
"330 370 OFFCURVE",
"378 336 OFFCURVE",
"378 276 CURVE SMOOTH",
"378 261 LINE",
"349 261 LINE SMOOTH",
"133 261 OFFCURVE",
"28 210 OFFCURVE",
"28 107 CURVE SMOOTH"
);
},
{
closed = 1;
nodes = (
"142 166 OFFCURVE",
"196 189 OFFCURVE",
"352 189 CURVE SMOOTH",
"378 189 LINE",
"378 134 LINE",
"326 94 OFFCURVE",
"272 73 OFFCURVE",
"221 73 CURVE SMOOTH",
"173 73 OFFCURVE",
"142 92 OFFCURVE",
"142 124 CURVE SMOOTH"
);
}
);
width = 536;
},
{
associatedMasterId = "6BCBDBF6-8315-4194-A290-F71994A92467";
layerId = "7A8026EB-D1BC-4FB2-807E-549008A4621F";
name = foreground;
paths = (
{
closed = 1;
nodes = (
"24 29 OFFCURVE",
"85 -17 OFFCURVE",
"183 -17 CURVE SMOOTH",
"266 -17 OFFCURVE",
"334 17 OFFCURVE",
"382 80 CURVE",
"382 0 LINE",
"499 0 LINE",
"499 267 LINE",
"499 395 OFFCURVE",
"419 464 OFFCURVE",
"266 464 CURVE SMOOTH",
"186 464 OFFCURVE",
"114 445 OFFCURVE",
"60 405 CURVE",
"50 309 LINE",
"98 346 OFFCURVE",
"167 372 OFFCURVE",
"246 372 CURVE SMOOTH",
"330 372 OFFCURVE",
"382 342 OFFCURVE",
"382 282 CURVE",
"382 266 LINE",
"352 266 LINE SMOOTH",
"132 266 OFFCURVE",
"24 212 OFFCURVE",
"24 102 CURVE SMOOTH"
);
},
{
closed = 1;
nodes = (
"135 167 OFFCURVE",
"206 189 OFFCURVE",
"355 189 CURVE SMOOTH",
"382 189 LINE",
"382 134 LINE",
"328 96 OFFCURVE",
"278 74 OFFCURVE",
"220 74 CURVE SMOOTH",
"167 74 OFFCURVE",
"135 92 OFFCURVE",
"135 122 CURVE SMOOTH"
);
}
);
width = 539;
},
{
anchors = (
{
name = bottom;
position = "{272, 0}";
},
{
name = ogonek;
position = "{489, 8}";
},
{
name = top;
position = "{280, 448}";
}
);
associatedMasterId = "6BCBDBF6-8315-4194-A290-F71994A92467";
background = {
paths = (
{
closed = 1;
nodes = (
"28 29 OFFCURVE",
"89 -17 OFFCURVE",
"187 -17 CURVE SMOOTH",
"270 -17 OFFCURVE",
"338 17 OFFCURVE",
"386 80 CURVE",
"386 0 LINE",
"503 0 LINE",
"503 267 LINE",
"503 395 OFFCURVE",
"423 464 OFFCURVE",
"270 464 CURVE SMOOTH",
"186 464 OFFCURVE",
"111 446 OFFCURVE",
"56 405 CURVE",
"51 309 LINE",
"96 346 OFFCURVE",
"168 372 OFFCURVE",
"247 372 CURVE SMOOTH",
"334 372 OFFCURVE",
"386 342 OFFCURVE",
"386 282 CURVE",
"386 266 LINE",
"356 266 LINE SMOOTH",
"136 266 OFFCURVE",
"28 212 OFFCURVE",
"28 102 CURVE SMOOTH"
);
},
{
closed = 1;
nodes = (
"139 167 OFFCURVE",
"210 189 OFFCURVE",
"359 189 CURVE SMOOTH",
"386 189 LINE",
"386 146 LINE",
"332 96 OFFCURVE",
"282 74 OFFCURVE",
"224 74 CURVE SMOOTH",
"171 74 OFFCURVE",
"139 92 OFFCURVE",
"139 122 CURVE SMOOTH"
);
}
);
};
layerId = "370C5AEF-266A-453E-966C-B6C91ADFBF5B";
name = "11 Jan 21, 18:01";
paths = (
{
closed = 1;
nodes = (
"28 29 OFFCURVE",
"89 -17 OFFCURVE",
"187 -17 CURVE SMOOTH",
"270 -17 OFFCURVE",
"338 17 OFFCURVE",
"386 80 CURVE",
"386 0 LINE",
"503 0 LINE",
"503 267 LINE",
"503 395 OFFCURVE",
"415 464 OFFCURVE",
"262 464 CURVE SMOOTH",
"182 464 OFFCURVE",
"118 445 OFFCURVE",
"64 405 CURVE",
"64 315 LINE",
"122 350 OFFCURVE",
"182 370 OFFCURVE",
"250 370 CURVE SMOOTH",
"334 370 OFFCURVE",
"386 340 OFFCURVE",
"386 276 CURVE",
"386 266 LINE",
"356 266 LINE SMOOTH",
"136 266 OFFCURVE",
"28 212 OFFCURVE",
"28 107 CURVE SMOOTH"
);
},
{
closed = 1;
nodes = (
"139 166 OFFCURVE",
"210 189 OFFCURVE",
"359 189 CURVE SMOOTH",
"386 189 LINE",
"386 134 LINE",
"326 92 OFFCURVE",
"277 74 OFFCURVE",
"224 74 CURVE SMOOTH",
"171 74 OFFCURVE",
"139 92 OFFCURVE",
"139 122 CURVE SMOOTH"
);
}
);
width = 543;
},
{
anchors = (
{
name = bottom;
position = "{265, 0}";
},
{
name = ogonek;
position = "{482, 8}";
},
{
name = top;
position = "{281, 448}";
}
);
associatedMasterId = "6BCBDBF6-8315-4194-A290-F71994A92467";
background = {
paths = (
{
closed = 1;
nodes = (
"21 29 OFFCURVE",
"82 -17 OFFCURVE",
"180 -17 CURVE SMOOTH",
"262 -17 OFFCURVE",
"331 17 OFFCURVE",
"379 80 CURVE",
"379 0 LINE",
"496 0 LINE",
"496 267 LINE",
"496 395 OFFCURVE",
"416 464 OFFCURVE",
"263 464 CURVE SMOOTH",
"179 464 OFFCURVE",
"104 446 OFFCURVE",
"49 405 CURVE",
"44 309 LINE",
"89 346 OFFCURVE",
"161 372 OFFCURVE",
"240 372 CURVE SMOOTH",
"326 372 OFFCURVE",
"378 342 OFFCURVE",
"378 282 CURVE",
"378 266 LINE",
"349 266 LINE SMOOTH",
"129 266 OFFCURVE",
"21 212 OFFCURVE",
"21 102 CURVE SMOOTH"
);
},
{
closed = 1;
nodes = (
"132 167 OFFCURVE",
"203 189 OFFCURVE",
"352 189 CURVE SMOOTH",
"378 189 LINE",
"378 146 LINE",
"325 96 OFFCURVE",
"274 74 OFFCURVE",
"217 74 CURVE SMOOTH",
"164 74 OFFCURVE",
"132 92 OFFCURVE",
"132 122 CURVE SMOOTH"
);
}
);
};
layerId = "F083FBB3-296E-4777-8981-D0C795E5C1F1";
name = "27 Mar 21, 02:48";
paths = (
{
closed = 1;
nodes = (
"28 30 OFFCURVE",
"87 -17 OFFCURVE",
"186 -17 CURVE SMOOTH",
"267 -17 OFFCURVE",
"330 14 OFFCURVE",
"379 80 CURVE",
"379 0 LINE",
"496 0 LINE",
"496 267 LINE",
"496 397 OFFCURVE",
"408 466 OFFCURVE",
"255 466 CURVE SMOOTH",
"174 466 OFFCURVE",
"110 446 OFFCURVE",
"57 406 CURVE",
"57 317 LINE",
"114 351 OFFCURVE",
"174 372 OFFCURVE",
"243 372 CURVE SMOOTH",
"326 372 OFFCURVE",
"378 342 OFFCURVE",
"378 276 CURVE",
"378 266 LINE",
"349 266 LINE SMOOTH",
"136 266 OFFCURVE",
"28 212 OFFCURVE",
"28 107 CURVE SMOOTH"
);
},
{
closed = 1;
nodes = (
"139 166 OFFCURVE",
"203 189 OFFCURVE",
"352 189 CURVE SMOOTH",
"378 189 LINE",
"378 134 LINE",
"323 92 OFFCURVE",
"270 74 OFFCURVE",
"220 74 CURVE SMOOTH",
"170 74 OFFCURVE",
"139 92 OFFCURVE",
"139 122 CURVE SMOOTH"
);
}
);
width = 536;
},
{
anchors = (
{
name = bottom;
position = "{265, 0}";
},
{
name = ogonek;
position = "{482, 8}";
},
{
name = top;
position = "{281, 448}";
}
);
associatedMasterId = "6BCBDBF6-8315-4194-A290-F71994A92467";
background = {
paths = (
{
closed = 1;
nodes = (
"21 29 OFFCURVE",
"82 -17 OFFCURVE",
"180 -17 CURVE SMOOTH",
"262 -17 OFFCURVE",
"331 17 OFFCURVE",
"379 80 CURVE",
"379 0 LINE",
"496 0 LINE",
"496 267 LINE",
"496 395 OFFCURVE",
"416 464 OFFCURVE",
"263 464 CURVE SMOOTH",
"179 464 OFFCURVE",
"104 446 OFFCURVE",
"49 405 CURVE",
"44 309 LINE",
"89 346 OFFCURVE",
"161 372 OFFCURVE",
"240 372 CURVE SMOOTH",
"326 372 OFFCURVE",
"378 342 OFFCURVE",
"378 282 CURVE",
"378 266 LINE",
"349 266 LINE SMOOTH",
"129 266 OFFCURVE",
"21 212 OFFCURVE",
"21 102 CURVE SMOOTH"
);
},
{
closed = 1;
nodes = (
"132 167 OFFCURVE",
"203 189 OFFCURVE",
"352 189 CURVE SMOOTH",
"378 189 LINE",
"378 146 LINE",
"325 96 OFFCURVE",
"274 74 OFFCURVE",
"217 74 CURVE SMOOTH",
"164 74 OFFCURVE",
"132 92 OFFCURVE",
"132 122 CURVE SMOOTH"
);
}
);
};
layerId = "0DD919BB-6D65-4C42-BDF4-8755C9D67F66";
name = "27 Mar 21, 14:14";
paths = (
{
closed = 1;
nodes = (
"28 30 OFFCURVE",
"87 -17 OFFCURVE",
"186 -17 CURVE SMOOTH",
"267 -17 OFFCURVE",
"330 14 OFFCURVE",
"379 80 CURVE",
"379 0 LINE",
"496 0 LINE",
"496 267 LINE",
"496 397 OFFCURVE",
"408 466 OFFCURVE",
"255 466 CURVE SMOOTH",
"180 466 OFFCURVE",
"114 449 OFFCURVE",
"57 414 CURVE",
"57 325 LINE",
"128 358 OFFCURVE",
"186 372 OFFCURVE",
"243 372 CURVE SMOOTH",
"326 372 OFFCURVE",
"378 342 OFFCURVE",
"378 276 CURVE",
"378 266 LINE",
"349 266 LINE SMOOTH",
"136 266 OFFCURVE",
"28 212 OFFCURVE",
"28 107 CURVE SMOOTH"
);
},
{
closed = 1;
nodes = (
"139 166 OFFCURVE",
"203 189 OFFCURVE",
"352 189 CURVE SMOOTH",
"378 189 LINE",
"378 134 LINE",
"323 92 OFFCURVE",
"270 74 OFFCURVE",
"220 74 CURVE SMOOTH",
"170 74 OFFCURVE",
"139 92 OFFCURVE",
"139 122 CURVE SMOOTH"
);
}
);
width = 536;
},
{
anchors = (
{
name = bottom;
position = "{308, 0}";
},
{
name = ogonek;
position = "{553, 8}";
},
{
name = top;
position = "{308, 456}";
}
);
layerId = "4F9EBE27-C263-4ED9-B2A0-4AD0096E628D";
paths = (
{
closed = 1;
nodes = (
"10 28 OFFCURVE",
"68 -19 OFFCURVE",
"158 -19 CURVE SMOOTH",
"242 -19 OFFCURVE",
"316 20 OFFCURVE",
"366 96 CURVE",
"366 0 LINE",
"590 0 LINE",
"590 238 LINE SMOOTH",
"590 393 OFFCURVE",
"486 478 OFFCURVE",
"294 478 CURVE SMOOTH",
"203 478 OFFCURVE",
"104 461 OFFCURVE",
"46 440 CURVE",
"46 298 LINE",
"128 320 OFFCURVE",
"180 327 OFFCURVE",
"236 327 CURVE SMOOTH",
"320 327 OFFCURVE",
"358 304 OFFCURVE",
"358 260 CURVE SMOOTH",
"358 257 LINE",
"344 257 LINE SMOOTH",
"106 257 OFFCURVE",
"10 202 OFFCURVE",
"10 103 CURVE SMOOTH"
);
},
{
closed = 1;
nodes = (
"222 170 OFFCURVE",
"257 185 OFFCURVE",
"347 185 CURVE SMOOTH",
"358 185 LINE",
"358 150 LINE",
"314 108 OFFCURVE",
"285 99 OFFCURVE",
"263 99 CURVE SMOOTH",
"239 99 OFFCURVE",
"222 110 OFFCURVE",
"222 134 CURVE SMOOTH"
);
}
);
width = 620;
},
{
anchors = (
{
name = bottom;
position = "{265, 0}";
},
{
name = ogonek;
position = "{482, 8}";
},
{
name = top;
position = "{281, 448}";
}
);
associatedMasterId = "6BCBDBF6-8315-4194-A290-F71994A92467";
background = {
paths = (
{
closed = 1;
nodes = (
"21 29 OFFCURVE",
"82 -17 OFFCURVE",
"180 -17 CURVE SMOOTH",
"262 -17 OFFCURVE",
"331 17 OFFCURVE",
"379 80 CURVE",
"379 0 LINE",
"496 0 LINE",
"496 267 LINE",
"496 395 OFFCURVE",
"416 464 OFFCURVE",
"263 464 CURVE SMOOTH",
"179 464 OFFCURVE",
"104 446 OFFCURVE",
"49 405 CURVE",
"44 309 LINE",
"89 346 OFFCURVE",
"161 372 OFFCURVE",
"240 372 CURVE SMOOTH",
"326 372 OFFCURVE",
"378 342 OFFCURVE",
"378 282 CURVE",
"378 266 LINE",
"349 266 LINE SMOOTH",
"129 266 OFFCURVE",
"21 212 OFFCURVE",
"21 102 CURVE SMOOTH"
);
},
{
closed = 1;
nodes = (
"132 167 OFFCURVE",
"203 189 OFFCURVE",
"352 189 CURVE SMOOTH",
"378 189 LINE",
"378 146 LINE",
"325 96 OFFCURVE",
"274 74 OFFCURVE",
"217 74 CURVE SMOOTH",
"164 74 OFFCURVE",
"132 92 OFFCURVE",
"132 122 CURVE SMOOTH"
);
}
);
};
layerId = "3D7FFDC9-36A3-4558-8D8B-5B659A54364B";
name = "9 May 21, 13:57";
paths = (
{
closed = 1;
nodes = (
"28 31 OFFCURVE",
"86 -13 OFFCURVE",
"186 -13 CURVE SMOOTH",
"270 -13 OFFCURVE",
"331 17 OFFCURVE",
"379 80 CURVE",
"379 0 LINE",
"496 0 LINE",
"496 267 LINE SMOOTH",
"496 392 OFFCURVE",
"410 462 OFFCURVE",
"255 462 CURVE SMOOTH",
"182 462 OFFCURVE",
"124 446 OFFCURVE",
"65 410 CURVE",
"65 322 LINE",
"139 357 OFFCURVE",
"188 370 OFFCURVE",
"243 370 CURVE SMOOTH",
"330 370 OFFCURVE",
"378 336 OFFCURVE",
"378 276 CURVE SMOOTH",
"378 261 LINE",
"349 261 LINE SMOOTH",
"133 261 OFFCURVE",
"28 210 OFFCURVE",
"28 107 CURVE SMOOTH"
);
},
{
closed = 1;
nodes = (
"142 166 OFFCURVE",
"196 189 OFFCURVE",
"352 189 CURVE SMOOTH",
"378 189 LINE",
"378 134 LINE",
"326 94 OFFCURVE",
"272 74 OFFCURVE",
"220 74 CURVE SMOOTH",
"173 74 OFFCURVE",
"142 92 OFFCURVE",
"142 122 CURVE SMOOTH"
);
}
);
width = 536;
}
);
leftKerningGroup = a;
rightKerningGroup = n;
unicode = 0061;
},
{
glyphname = ae;
lastChange = "2023-09-18 16:35:21 +0000";
layers = (
{
anchors = (
{
name = bottom;
position = "{442, 0}";
},
{
name = top;
position = "{442, 448}";
}
);
layerId = "6BCBDBF6-8315-4194-A290-F71994A92467";
paths = (
{
closed = 1;
nodes = (
"28 30 OFFCURVE",
"87 -17 OFFCURVE",
"186 -17 CURVE SMOOTH",
"274 -17 OFFCURVE",
"341 8 OFFCURVE",
"426 85 CURVE",
"480 160 LINE",
"480 267 LINE SMOOTH",
"480 394 OFFCURVE",
"408 462 OFFCURVE",
"255 462 CURVE SMOOTH",
"180 462 OFFCURVE",
"122 445 OFFCURVE",
"65 410 CURVE",
"65 321 LINE",
"136 354 OFFCURVE",
"186 368 OFFCURVE",
"243 368 CURVE SMOOTH",
"326 368 OFFCURVE",
"378 337 OFFCURVE",
"378 276 CURVE SMOOTH",
"378 261 LINE",
"349 261 LINE SMOOTH",
"136 261 OFFCURVE",
"28 212 OFFCURVE",
"28 107 CURVE SMOOTH"
);
},
{
closed = 1;
nodes = (
"139 166 OFFCURVE",
"203 189 OFFCURVE",
"352 189 CURVE SMOOTH",
"378 189 LINE",
"378 134 LINE",
"323 92 OFFCURVE",
"270 74 OFFCURVE",
"220 74 CURVE SMOOTH",
"170 74 OFFCURVE",
"139 92 OFFCURVE",
"139 122 CURVE SMOOTH"
);
},
{
closed = 1;
nodes = (
"379 78 OFFCURVE",
"478 -17 OFFCURVE",
"655 -17 CURVE SMOOTH",
"729 -17 OFFCURVE",
"792 -2 OFFCURVE",
"842 26 CURVE",
"854 119 LINE",
"790 91 OFFCURVE",
"731 79 OFFCURVE",
"663 79 CURVE SMOOTH",
"564 79 OFFCURVE",
"498 120 OFFCURVE",
"482 194 CURVE",
"855 194 LINE",
"855 251 LINE SMOOTH",
"855 378 OFFCURVE",
"760 462 OFFCURVE",
"617 462 CURVE SMOOTH",
"462 462 OFFCURVE",
"379 369 OFFCURVE",
"379 223 CURVE SMOOTH"
);
},
{
closed = 1;
nodes = (
"485 334 OFFCURVE",
"533 370 OFFCURVE",
"616 370 CURVE SMOOTH",
"697 370 OFFCURVE",
"741 335 OFFCURVE",
"744 266 CURVE",
"480 266 LINE"
);
}
);
width = 883;
},
{
anchors = (
{
name = bottom;
position = "{624, 0}";
},
{
name = top;
position = "{624, 456}";
}
);
layerId = "4F9EBE27-C263-4ED9-B2A0-4AD0096E628D";
paths = (
{
closed = 1;
nodes = (
"10 27 OFFCURVE",
"68 -21 OFFCURVE",
"158 -21 CURVE SMOOTH",
"242 -21 OFFCURVE",
"350 10 OFFCURVE",
"419 96 CURVE",
"469 141 LINE",
"590 238 LINE SMOOTH",
"590 393 OFFCURVE",
"486 478 OFFCURVE",
"294 478 CURVE SMOOTH",
"203 478 OFFCURVE",
"104 461 OFFCURVE",
"46 440 CURVE",
"46 298 LINE",
"128 320 OFFCURVE",
"180 327 OFFCURVE",
"236 327 CURVE SMOOTH",
"320 327 OFFCURVE",
"358 304 OFFCURVE",
"358 260 CURVE SMOOTH",
"358 257 LINE",
"344 257 LINE SMOOTH",
"106 257 OFFCURVE",
"10 202 OFFCURVE",
"10 103 CURVE SMOOTH"
);
},
{
closed = 1;
nodes = (
"222 170 OFFCURVE",
"257 185 OFFCURVE",
"347 185 CURVE SMOOTH",
"358 185 LINE",
"358 142 LINE",
"314 108 OFFCURVE",
"285 99 OFFCURVE",
"263 99 CURVE SMOOTH",
"239 99 OFFCURVE",
"222 110 OFFCURVE",
"222 134 CURVE SMOOTH"
);
},
{
closed = 1;
nodes = (
"358 69 OFFCURVE",
"486 -19 OFFCURVE",
"714 -19 CURVE SMOOTH",
"808 -19 OFFCURVE",
"878 -6 OFFCURVE",
"947 21 CURVE",
"953 153 LINE",
"888 133 OFFCURVE",
"814 121 OFFCURVE",
"753 121 CURVE SMOOTH",
"664 121 OFFCURVE",
"610 144 OFFCURVE",
"588 194 CURVE",
"954 194 LINE",
"954 251 LINE SMOOTH",
"954 389 OFFCURVE",
"845 478 OFFCURVE",
"675 478 CURVE SMOOTH",
"475 478 OFFCURVE",
"358 383 OFFCURVE",
"358 223 CURVE SMOOTH"
);
},
{
closed = 1;
nodes = (
"586 314 OFFCURVE",
"613 346 OFFCURVE",
"657 346 CURVE SMOOTH",
"699 346 OFFCURVE",
"722 314 OFFCURVE",
"722 266 CURVE",
"586 266 LINE"
);
}
);
width = 977;
}
);
leftKerningGroup = a;
leftMetricsKey = a;
rightKerningGroup = e;
rightMetricsKey = e;
unicode = 00E6;
},
{
glyphname = b;
lastChange = "2023-09-18 16:35:21 +0000";
layers = (
{
anchors = (
{
name = bottom;
position = "{302, 0}";
},
{
name = top;
position = "{302, 628}";
}
);
background = {
paths = (
{
closed = 1;
nodes = (
"198 28 OFFCURVE",
"270 -17 OFFCURVE",
"355 -17 CURVE SMOOTH",
"483 -17 OFFCURVE",
"572 81 OFFCURVE",
"572 221 CURVE SMOOTH",
"572 361 OFFCURVE",
"481 462 OFFCURVE",
"354 462 CURVE SMOOTH",
"268 462 OFFCURVE",
"192 414 OFFCURVE",
"150 332 CURVE",
"154 284 LINE",
"194 340 OFFCURVE",
"244 366 OFFCURVE",
"303 366 CURVE SMOOTH",
"390 366 OFFCURVE",
"449 310 OFFCURVE",
"449 223 CURVE SMOOTH",
"449 138 OFFCURVE",
"390 78 OFFCURVE",
"303 78 CURVE SMOOTH",
"238 78 OFFCURVE",
"188 112 OFFCURVE",
"155 178 CURVE",
"139 119 LINE"
);
},
{
closed = 1;
nodes = (
"49 628 LINE",
"49 0 LINE",
"169 0 LINE",
"169 628 LINE"
);
}
);
};
layerId = "6BCBDBF6-8315-4194-A290-F71994A92467";
paths = (
{
closed = 1;
nodes = (
"280 462 OFFCURVE",
"210 425 OFFCURVE",
"169 361 CURVE",
"169 628 LINE",
"49 628 LINE",
"49 0 LINE",
"169 0 LINE",
"169 81 LINE",
"214 19 OFFCURVE",
"278 -17 OFFCURVE",
"357 -17 CURVE SMOOTH",
"486 -17 OFFCURVE",
"576 82 OFFCURVE",
"576 221 CURVE SMOOTH",
"576 367 OFFCURVE",
"478 462 OFFCURVE",
"356 462 CURVE SMOOTH"
);
},
{
closed = 1;
nodes = (
"398 366 OFFCURVE",
"453 309 OFFCURVE",
"453 222 CURVE SMOOTH",
"453 136 OFFCURVE",
"397 78 OFFCURVE",
"310 78 CURVE SMOOTH",
"224 78 OFFCURVE",
"165 135 OFFCURVE",
"165 220 CURVE SMOOTH",
"165 228 LINE SMOOTH",
"165 311 OFFCURVE",
"225 366 OFFCURVE",
"310 366 CURVE SMOOTH"
);
}
);
width = 604;
},
{
associatedMasterId = "6BCBDBF6-8315-4194-A290-F71994A92467";
layerId = "0B1A8D80-A616-4F1F-8F4E-5466CEE0D393";
name = foreground;
paths = (
{
closed = 1;
nodes = (
"293 462 OFFCURVE",
"222 425 OFFCURVE",
"182 361 CURVE",
"182 628 LINE",
"62 628 LINE",
"62 0 LINE",
"182 0 LINE",
"182 81 LINE",
"226 19 OFFCURVE",
"291 -17 OFFCURVE",
"370 -17 CURVE SMOOTH",
"499 -17 OFFCURVE",
"589 82 OFFCURVE",
"589 221 CURVE SMOOTH",
"589 367 OFFCURVE",
"490 462 OFFCURVE",
"369 462 CURVE SMOOTH"
);
},
{
closed = 1;
nodes = (
"410 366 OFFCURVE",
"466 309 OFFCURVE",
"466 222 CURVE SMOOTH",
"466 136 OFFCURVE",
"410 78 OFFCURVE",
"323 78 CURVE SMOOTH",
"237 78 OFFCURVE",
"178 135 OFFCURVE",
"178 220 CURVE SMOOTH",
"178 228 LINE SMOOTH",
"178 311 OFFCURVE",
"238 366 OFFCURVE",
"323 366 CURVE SMOOTH"
);
}
);
width = 625;
},
{
anchors = (
{
name = bottom;
position = "{346, 0}";
},
{
name = top;
position = "{346, 628}";
}
);
layerId = "4F9EBE27-C263-4ED9-B2A0-4AD0096E628D";
paths = (
{
closed = 1;
nodes = (
"384 475 OFFCURVE",
"310 442 OFFCURVE",
"268 345 CURVE",
"268 640 LINE",
"28 640 LINE",
"28 0 LINE",
"268 0 LINE",
"268 97 LINE",
"313 18 OFFCURVE",
"389 -19 OFFCURVE",
"461 -19 CURVE SMOOTH",
"590 -19 OFFCURVE",
"672 78 OFFCURVE",
"672 221 CURVE SMOOTH",
"672 376 OFFCURVE",
"586 475 OFFCURVE",
"460 475 CURVE SMOOTH"
);
},
{
closed = 1;
nodes = (
"398 326 OFFCURVE",
"420 290 OFFCURVE",
"420 222 CURVE SMOOTH",
"420 155 OFFCURVE",
"398 118 OFFCURVE",
"354 118 CURVE SMOOTH",
"309 118 OFFCURVE",
"286 155 OFFCURVE",
"286 222 CURVE SMOOTH",
"286 228 LINE SMOOTH",
"286 291 OFFCURVE",
"314 326 OFFCURVE",
"354 326 CURVE SMOOTH"
);
}
);
width = 691;
}
);
leftKerningGroup = h;
leftMetricsKey = n;
rightKerningGroup = o;
rightMetricsKey = o;
unicode = 0062;
},
{
glyphname = c;
lastChange = "2023-09-17 15:40:37 +0000";
layers = (
{
anchors = (
{
name = bottom;
position = "{257, 0}";
},
{
name = top;
position = "{281, 448}";
}
);
background = {
paths = (
{
closed = 1;
nodes = (
"135 462 OFFCURVE",
"31 371 OFFCURVE",
"31 223 CURVE SMOOTH",
"31 74 OFFCURVE",
"138 -17 OFFCURVE",
"299 -17 CURVE SMOOTH",
"372 -17 OFFCURVE",
"438 2 OFFCURVE",
"486 31 CURVE",
"486 141 LINE",
"445 104 OFFCURVE",
"379 79 OFFCURVE",
"313 79 CURVE SMOOTH",
"216 79 OFFCURVE",
"151 133 OFFCURVE",
"151 225 CURVE SMOOTH",
"151 314 OFFCURVE",
"213 366 OFFCURVE",
"314 366 CURVE SMOOTH",
"385 366 OFFCURVE",
"438 340 OFFCURVE",
"479 306 CURVE",
"479 417 LINE",
"438 445 OFFCURVE",
"374 462 OFFCURVE",
"305 462 CURVE SMOOTH"
);
}
);
};
guideLines = (
{
angle = 180;
position = "{526, 150}";
showMeasurement = 1;
}
);
layerId = "6BCBDBF6-8315-4194-A290-F71994A92467";
paths = (
{
closed = 1;
nodes = (
"131 462 OFFCURVE",
"28 370 OFFCURVE",
"28 223 CURVE SMOOTH",
"28 75 OFFCURVE",
"132 -17 OFFCURVE",
"299 -17 CURVE SMOOTH",
"371 -17 OFFCURVE",
"429 -3 OFFCURVE",
"478 25 CURVE",
"486 124 LINE",
"444 98 OFFCURVE",
"379 82 OFFCURVE",
"323 82 CURVE SMOOTH",
"214 82 OFFCURVE",
"151 138 OFFCURVE",
"151 225 CURVE SMOOTH",
"151 313 OFFCURVE",
"212 366 OFFCURVE",
"314 366 CURVE SMOOTH",
"365 366 OFFCURVE",
"415 353 OFFCURVE",
"478 322 CURVE",
"474 422 LINE",
"414 450 OFFCURVE",
"360 462 OFFCURVE",
"298 462 CURVE SMOOTH"
);
}
);
width = 510;
},
{
associatedMasterId = "6BCBDBF6-8315-4194-A290-F71994A92467";
layerId = "25EFDEB6-5390-4959-815F-01C5FCEC485A";
name = foreground;
paths = (
{
closed = 1;
nodes = (
"140 462 OFFCURVE",
"36 371 OFFCURVE",
"36 223 CURVE SMOOTH",
"36 74 OFFCURVE",
"142 -17 OFFCURVE",
"304 -17 CURVE SMOOTH",
"377 -17 OFFCURVE",
"435 2 OFFCURVE",
"483 31 CURVE",
"491 133 LINE",
"450 104 OFFCURVE",
"384 79 OFFCURVE",
"318 79 CURVE SMOOTH",
"221 79 OFFCURVE",
"156 133 OFFCURVE",
"156 225 CURVE SMOOTH",
"156 314 OFFCURVE",
"218 366 OFFCURVE",
"318 366 CURVE SMOOTH",
"390 366 OFFCURVE",
"443 340 OFFCURVE",
"484 306 CURVE",
"477 413 LINE",
"436 441 OFFCURVE",
"379 462 OFFCURVE",
"302 462 CURVE SMOOTH"
);
}
);
width = 515;
},
{
anchors = (
{
name = bottom;
position = "{257, 0}";
},
{
name = top;
position = "{281, 448}";
}
);
associatedMasterId = "6BCBDBF6-8315-4194-A290-F71994A92467";
background = {
paths = (
{
closed = 1;
nodes = (
"135 462 OFFCURVE",
"31 371 OFFCURVE",
"31 223 CURVE SMOOTH",
"31 74 OFFCURVE",
"138 -17 OFFCURVE",
"299 -17 CURVE SMOOTH",
"372 -17 OFFCURVE",
"438 2 OFFCURVE",
"486 31 CURVE",
"486 141 LINE",
"445 104 OFFCURVE",
"379 79 OFFCURVE",
"313 79 CURVE SMOOTH",
"216 79 OFFCURVE",
"151 133 OFFCURVE",
"151 225 CURVE SMOOTH",
"151 314 OFFCURVE",
"213 366 OFFCURVE",
"314 366 CURVE SMOOTH",
"385 366 OFFCURVE",
"438 340 OFFCURVE",
"479 306 CURVE",
"479 417 LINE",
"438 445 OFFCURVE",
"374 462 OFFCURVE",
"305 462 CURVE SMOOTH"
);
}
);
};
layerId = "DC93612F-0771-4A8A-978E-DE25D1AF7339";
name = "11 Apr 21, 22:10";
paths = (
{
closed = 1;
nodes = (
"131 462 OFFCURVE",
"28 370 OFFCURVE",
"28 223 CURVE SMOOTH",
"28 75 OFFCURVE",
"132 -17 OFFCURVE",
"299 -17 CURVE SMOOTH",
"367 -17 OFFCURVE",
"426 -1 OFFCURVE",
"478 31 CURVE",
"486 133 LINE",
"439 100 OFFCURVE",
"372 79 OFFCURVE",
"313 79 CURVE SMOOTH",
"214 79 OFFCURVE",
"151 135 OFFCURVE",
"151 225 CURVE SMOOTH",
"151 313 OFFCURVE",
"212 366 OFFCURVE",
"314 366 CURVE SMOOTH",
"370 366 OFFCURVE",
"424 349 OFFCURVE",
"479 314 CURVE",
"472 413 LINE",
"425 445 OFFCURVE",
"366 462 OFFCURVE",
"297 462 CURVE SMOOTH"
);
}
);
width = 510;
},
{
anchors = (
{
name = bottom;
position = "{257, 0}";
},
{
name = top;
position = "{281, 448}";
}
);
associatedMasterId = "6BCBDBF6-8315-4194-A290-F71994A92467";
background = {
paths = (
{
closed = 1;
nodes = (
"135 462 OFFCURVE",
"31 371 OFFCURVE",
"31 223 CURVE SMOOTH",
"31 74 OFFCURVE",
"138 -17 OFFCURVE",
"299 -17 CURVE SMOOTH",
"372 -17 OFFCURVE",
"438 2 OFFCURVE",
"486 31 CURVE",
"486 141 LINE",
"445 104 OFFCURVE",
"379 79 OFFCURVE",
"313 79 CURVE SMOOTH",
"216 79 OFFCURVE",
"151 133 OFFCURVE",
"151 225 CURVE SMOOTH",
"151 314 OFFCURVE",
"213 366 OFFCURVE",
"314 366 CURVE SMOOTH",
"385 366 OFFCURVE",
"438 340 OFFCURVE",
"479 306 CURVE",
"479 417 LINE",
"438 445 OFFCURVE",
"374 462 OFFCURVE",
"305 462 CURVE SMOOTH"
);
}
);
};
layerId = "D424775A-6410-48E0-B20F-8CA08212824B";
name = "19 Apr 21, 14:22";
paths = (
{
closed = 1;
nodes = (
"131 462 OFFCURVE",
"28 370 OFFCURVE",
"28 223 CURVE SMOOTH",
"28 75 OFFCURVE",
"132 -17 OFFCURVE",
"299 -17 CURVE SMOOTH",
"367 -17 OFFCURVE",
"426 -1 OFFCURVE",
"478 31 CURVE",
"486 133 LINE",
"439 100 OFFCURVE",
"372 79 OFFCURVE",
"313 79 CURVE SMOOTH",
"214 79 OFFCURVE",
"151 135 OFFCURVE",
"151 225 CURVE SMOOTH",
"151 313 OFFCURVE",
"212 366 OFFCURVE",
"314 366 CURVE SMOOTH",
"367 366 OFFCURVE",
"418 351 OFFCURVE",
"478 322 CURVE",
"474 422 LINE",
"419 447 OFFCURVE",
"366 462 OFFCURVE",
"298 462 CURVE SMOOTH"
);
}
);
width = 510;
},
{
anchors = (
{
name = bottom;
position = "{334, 0}";
},
{
name = top;
position = "{304, 456}";
}
);
layerId = "4F9EBE27-C263-4ED9-B2A0-4AD0096E628D";
paths = (
{
closed = 1;
nodes = (
"138 475 OFFCURVE",
"18 382 OFFCURVE",
"18 221 CURVE SMOOTH",
"18 72 OFFCURVE",
"136 -19 OFFCURVE",
"355 -19 CURVE SMOOTH",
"429 -19 OFFCURVE",
"493 -10 OFFCURVE",
"553 14 CURVE",
"561 175 LINE",
"520 158 OFFCURVE",
"472 150 OFFCURVE",
"420 150 CURVE SMOOTH",
"322 150 OFFCURVE",
"270 179 OFFCURVE",
"270 237 CURVE SMOOTH",
"270 290 OFFCURVE",
"317 317 OFFCURVE",
"405 317 CURVE SMOOTH",
"458 317 OFFCURVE",
"512 307 OFFCURVE",
"552 290 CURVE",
"548 436 LINE",
"483 466 OFFCURVE",
"408 475 OFFCURVE",
"343 475 CURVE SMOOTH"
);
}
);
width = 590;
}
);
leftKerningGroup = o;
leftMetricsKey = o;
rightKerningGroup = c;
unicode = 0063;
},
{
glyphname = d;
lastChange = "2023-09-18 16:36:03 +0000";
layers = (
{
anchors = (
{
name = bottom;
position = "{306, 0}";
},
{
name = center;
position = "{306, 224}";
},
{
name = top;
position = "{306, 628}";
},
{
name = topright;
position = "{538, 628}";
}
);
layerId = "6BCBDBF6-8315-4194-A290-F71994A92467";
paths = (
{
closed = 1;
nodes = (
"123 462 OFFCURVE",
"28 367 OFFCURVE",
"28 224 CURVE SMOOTH",
"28 82 OFFCURVE",
"124 -17 OFFCURVE",
"252 -17 CURVE SMOOTH",
"329 -17 OFFCURVE",
"393 19 OFFCURVE",
"435 89 CURVE",
"435 0 LINE",
"555 0 LINE",
"555 628 LINE",
"435 628 LINE",
"435 365 LINE",
"398 426 OFFCURVE",
"330 462 OFFCURVE",
"252 462 CURVE SMOOTH"
);
},
{
closed = 1;
nodes = (
"381 366 OFFCURVE",
"439 311 OFFCURVE",
"439 228 CURVE SMOOTH",
"439 220 LINE SMOOTH",
"439 135 OFFCURVE",
"382 78 OFFCURVE",
"295 78 CURVE SMOOTH",
"208 78 OFFCURVE",
"151 136 OFFCURVE",
"151 222 CURVE SMOOTH",
"151 309 OFFCURVE",
"208 366 OFFCURVE",
"295 366 CURVE SMOOTH"
);
}
);
width = 611;
},
{
associatedMasterId = "6BCBDBF6-8315-4194-A290-F71994A92467";
layerId = "80F3C2C6-F840-408D-B691-497C6895E5B2";
name = foreground;
paths = (
{
closed = 1;
nodes = (
"123 458 OFFCURVE",
"28 363 OFFCURVE",
"28 224 CURVE SMOOTH",
"28 82 OFFCURVE",
"124 -17 OFFCURVE",
"252 -17 CURVE SMOOTH",
"329 -17 OFFCURVE",
"393 19 OFFCURVE",
"435 89 CURVE",
"435 0 LINE",
"555 0 LINE",
"555 628 LINE",
"435 628 LINE",
"435 365 LINE",
"398 422 OFFCURVE",
"330 458 OFFCURVE",
"252 458 CURVE SMOOTH"
);
},
{
closed = 1;
nodes = (
"381 366 OFFCURVE",
"439 311 OFFCURVE",
"439 228 CURVE SMOOTH",
"439 220 LINE SMOOTH",
"439 135 OFFCURVE",
"382 78 OFFCURVE",
"295 78 CURVE SMOOTH",
"208 78 OFFCURVE",
"151 136 OFFCURVE",
"151 222 CURVE SMOOTH",
"151 309 OFFCURVE",
"208 366 OFFCURVE",
"295 366 CURVE SMOOTH"
);
}
);
width = 611;
},
{
anchors = (
{
name = bottom;
position = "{347, 0}";
},
{
name = center;
position = "{347, 228}";
},
{
name = top;
position = "{347, 640}";
},
{
name = topright;
position = "{695, 640}";
}
);
background = {
paths = (
{
closed = 1;
nodes = (
"313 -19 OFFCURVE",
"386 14 OFFCURVE",
"429 111 CURVE",
"429 -160 LINE",
"669 -160 LINE",
"669 456 LINE",
"429 456 LINE",
"429 359 LINE",
"384 438 OFFCURVE",
"308 475 OFFCURVE",
"236 475 CURVE SMOOTH",
"107 475 OFFCURVE",
"25 378 OFFCURVE",
"25 234 CURVE SMOOTH",
"25 80 OFFCURVE",
"110 -19 OFFCURVE",
"237 -19 CURVE SMOOTH"
);
},
{
closed = 1;
nodes = (
"298 129 OFFCURVE",
"277 166 OFFCURVE",
"277 233 CURVE SMOOTH",
"277 301 OFFCURVE",
"298 338 OFFCURVE",
"343 338 CURVE SMOOTH",
"388 338 OFFCURVE",
"410 301 OFFCURVE",
"410 234 CURVE SMOOTH",
"410 228 LINE SMOOTH",
"410 165 OFFCURVE",
"383 130 OFFCURVE",
"343 130 CURVE SMOOTH"
);
}
);
};
layerId = "4F9EBE27-C263-4ED9-B2A0-4AD0096E628D";
paths = (
{
closed = 1;
nodes = (
"98 474 OFFCURVE",
"18 367 OFFCURVE",
"18 224 CURVE SMOOTH",
"18 82 OFFCURVE",
"105 -19 OFFCURVE",
"241 -19 CURVE SMOOTH",
"326 -19 OFFCURVE",
"383 17 OFFCURVE",
"426 89 CURVE",
"426 0 LINE",
"666 0 LINE",
"666 640 LINE",
"426 640 LINE",
"426 365 LINE",
"389 438 OFFCURVE",
"321 474 OFFCURVE",
"236 474 CURVE SMOOTH"
);
},
{
closed = 1;
nodes = (
"386 338 OFFCURVE",
"408 301 OFFCURVE",
"408 234 CURVE SMOOTH",
"408 228 LINE SMOOTH",
"408 165 OFFCURVE",
"381 130 OFFCURVE",
"341 130 CURVE SMOOTH",
"296 129 OFFCURVE",
"274 166 OFFCURVE",
"274 233 CURVE SMOOTH",
"274 301 OFFCURVE",
"296 338 OFFCURVE",
"341 338 CURVE SMOOTH"
);
}
);
width = 694;
}
);
leftKerningGroup = o;
leftMetricsKey = o;
rightKerningGroup = l;
unicode = 0064;
},
{
glyphname = eth;
lastChange = "2023-09-17 15:40:37 +0000";
layers = (
{
layerId = "6BCBDBF6-8315-4194-A290-F71994A92467";
paths = (
{
closed = 1;
nodes = (
"445 -18 OFFCURVE",
"551 86 OFFCURVE",
"551 248 CURVE SMOOTH",
"551 438 OFFCURVE",
"440 593 OFFCURVE",
"270 638 CURVE",
"150 597 LINE",
"278 562 OFFCURVE",
"379 478 OFFCURVE",
"408 382 CURVE",
"375 424 OFFCURVE",
"326 446 OFFCURVE",
"259 446 CURVE SMOOTH",
"126 446 OFFCURVE",
"28 359 OFFCURVE",
"28 221 CURVE SMOOTH",
"28 74 OFFCURVE",
"126 -18 OFFCURVE",
"279 -18 CURVE SMOOTH"
);
},
{
closed = 1;
nodes = (
"206 86 OFFCURVE",
"151 139 OFFCURVE",
"151 223 CURVE SMOOTH",
"151 306 OFFCURVE",
"209 361 OFFCURVE",
"296 361 CURVE SMOOTH",
"384 361 OFFCURVE",
"440 307 OFFCURVE",
"440 223 CURVE SMOOTH",
"440 141 OFFCURVE",
"382 86 OFFCURVE",
"296 86 CURVE SMOOTH"
);
},
{
closed = 1;
nodes = (
"414 526 LINE",
"422 530 LINE",
"559 555 LINE",
"542 608 LINE",
"91 525 LINE",
"108 470 LINE"
);
}
);
width = 587;
},
{
associatedMasterId = "6BCBDBF6-8315-4194-A290-F71994A92467";
layerId = "23034B76-0AA5-406E-BD98-F8ADBF514EED";
name = "27 Mar 21, 14:11";
paths = (
{
closed = 1;
nodes = (
"123 454 OFFCURVE",
"28 359 OFFCURVE",
"28 224 CURVE SMOOTH",
"28 82 OFFCURVE",
"132 -17 OFFCURVE",
"290 -17 CURVE SMOOTH",
"458 -17 OFFCURVE",
"557 89 OFFCURVE",
"557 271 CURVE SMOOTH",
"557 441 OFFCURVE",
"483 569 OFFCURVE",
"348 634 CURVE",
"222 616 LINE",
"362 549 OFFCURVE",
"423 473 OFFCURVE",
"435 357 CURVE",
"398 426 OFFCURVE",
"330 454 OFFCURVE",
"258 454 CURVE SMOOTH"
);
},
{
closed = 1;
nodes = (
"381 358 OFFCURVE",
"439 303 OFFCURVE",
"439 228 CURVE SMOOTH",
"439 220 LINE SMOOTH",
"439 143 OFFCURVE",
"382 86 OFFCURVE",
"295 86 CURVE SMOOTH",
"208 86 OFFCURVE",
"151 144 OFFCURVE",
"151 222 CURVE SMOOTH",
"151 301 OFFCURVE",
"208 358 OFFCURVE",
"295 358 CURVE SMOOTH"
);
},
{
closed = 1;
nodes = (
"108 470 LINE",
"414 526 LINE",
"422 530 LINE",
"559 555 LINE",
"542 624 LINE",
"91 541 LINE"
);
}
);
width = 583;
},
{
associatedMasterId = "6BCBDBF6-8315-4194-A290-F71994A92467";
layerId = "BDB93156-3DDD-4BCE-A721-670BA33AB712";
name = "11 Apr 21, 22:13";
paths = (
{
closed = 1;
nodes = (
"28 359 OFFCURVE",
"28 221 CURVE SMOOTH",
"28 74 OFFCURVE",
"126 -18 OFFCURVE",
"279 -18 CURVE SMOOTH",
"445 -18 OFFCURVE",
"551 86 OFFCURVE",
"551 248 CURVE SMOOTH",
"551 438 OFFCURVE",
"440 593 OFFCURVE",
"270 638 CURVE",
"150 597 LINE",
"278 562 OFFCURVE",
"379 478 OFFCURVE",
"408 382 CURVE",
"375 424 OFFCURVE",
"318 449 OFFCURVE",
"256 449 CURVE SMOOTH",
"118 449 OFFCURVE"
);
},
{
closed = 1;
nodes = (
"209 361 OFFCURVE",
"296 361 CURVE SMOOTH",
"384 361 OFFCURVE",
"440 307 OFFCURVE",
"440 223 CURVE SMOOTH",
"440 141 OFFCURVE",
"382 86 OFFCURVE",
"296 86 CURVE SMOOTH",
"206 86 OFFCURVE",
"151 139 OFFCURVE",
"151 223 CURVE SMOOTH",
"151 306 OFFCURVE"
);
},
{
closed = 1;
nodes = (
"108 470 LINE",
"414 526 LINE",
"422 530 LINE",
"559 555 LINE",
"542 608 LINE",
"91 525 LINE"
);
}
);
width = 583;
},
{
layerId = "4F9EBE27-C263-4ED9-B2A0-4AD0096E628D";
paths = (
{
closed = 1;
nodes = (
"546 -18 OFFCURVE",
"670 95 OFFCURVE",
"670 287 CURVE SMOOTH",
"670 463 OFFCURVE",
"567 618 OFFCURVE",
"374 700 CURVE",
"129 634 LINE",
"290 580 OFFCURVE",
"406 478 OFFCURVE",
"434 382 CURVE",
"394 428 OFFCURVE",
"333 453 OFFCURVE",
"250 453 CURVE SMOOTH",
"101 453 OFFCURVE",
"18 359 OFFCURVE",
"18 222 CURVE SMOOTH",
"18 61 OFFCURVE",
"149 -18 OFFCURVE",
"333 -18 CURVE SMOOTH"
);
},
{
closed = 1;
nodes = (
"297 120 OFFCURVE",
"274 155 OFFCURVE",
"274 224 CURVE SMOOTH",
"274 293 OFFCURVE",
"297 329 OFFCURVE",
"341 329 CURVE SMOOTH",
"385 329 OFFCURVE",
"408 294 OFFCURVE",
"408 226 CURVE SMOOTH",
"408 157 OFFCURVE",
"385 121 OFFCURVE",
"341 121 CURVE SMOOTH"
);
},
{
closed = 1;
nodes = (
"458 532 LINE",
"469 532 LINE",
"670 581 LINE",
"648 670 LINE",
"101 543 LINE",
"121 456 LINE"
);
}
);
width = 689;
},
{
associatedMasterId = "4F9EBE27-C263-4ED9-B2A0-4AD0096E628D";
layerId = "D0A32EA3-A047-47F6-BFCB-DAED200C8B46";
name = "27 Oct 21, 14:38";
paths = (
{
closed = 1;
nodes = (
"15 369 OFFCURVE",
"15 221 CURVE SMOOTH",
"15 64 OFFCURVE",
"129 -18 OFFCURVE",
"346 -18 CURVE SMOOTH",
"587 -18 OFFCURVE",
"698 84 OFFCURVE",
"698 280 CURVE SMOOTH",
"698 483 OFFCURVE",
"586 594 OFFCURVE",
"378 654 CURVE",
"177 597 LINE",
"355 560 OFFCURVE",
"444 486 OFFCURVE",
"475 382 CURVE",
"446 420 OFFCURVE",
"391 453 OFFCURVE",
"294 453 CURVE SMOOTH",
"122 453 OFFCURVE"
);
},
{
closed = 1;
nodes = (
"294 321 OFFCURVE",
"363 321 CURVE SMOOTH",
"431 321 OFFCURVE",
"467 287 OFFCURVE",
"467 223 CURVE SMOOTH",
"467 159 OFFCURVE",
"431 126 OFFCURVE",
"363 126 CURVE SMOOTH",
"294 126 OFFCURVE",
"258 159 OFFCURVE",
"258 223 CURVE SMOOTH",
"258 287 OFFCURVE"
);
},
{
closed = 1;
nodes = (
"182 454 LINE",
"487 511 LINE",
"496 514 LINE",
"633 540 LINE",
"610 625 LINE",
"158 542 LINE"
);
}
);
width = 714;
}
);
leftKerningGroup = eth;
leftMetricsKey = d;
rightKerningGroup = eth;
rightMetricsKey = o;
unicode = 00F0;
},
{
glyphname = dcroat;
lastChange = "2023-09-18 16:35:21 +0000";
layers = (
{
components = (
{
name = d;
}
);
layerId = "6BCBDBF6-8315-4194-A290-F71994A92467";
paths = (
{
closed = 1;
nodes = (
"208 508 LINE",
"638 508 LINE",
"638 584 LINE",
"208 584 LINE"
);
}
);
width = 694;
},
{
components = (
{
name = d;
transform = "{1, 0, 0, 1, 10, 0}";
}
);
layerId = "4F9EBE27-C263-4ED9-B2A0-4AD0096E628D";
paths = (
{
closed = 1;
nodes = (
"218 500 LINE",
"744 500 LINE",
"744 600 LINE",
"218 600 LINE"
);
}
);
width = 772;
}
);
leftKerningGroup = o;
rightKerningGroup = l;
rightMetricsKey = d;
unicode = 0111;
},
{
glyphname = e;
lastChange = "2023-09-17 15:40:37 +0000";
layers = (
{
anchors = (
{
name = bottom;
position = "{268, 0}";
},
{
name = ogonek;
position = "{482, 8}";
},
{
name = top;
position = "{276, 448}";
}
);
layerId = "6BCBDBF6-8315-4194-A290-F71994A92467";
paths = (
{
closed = 1;
nodes = (
"28 78 OFFCURVE",
"143 -17 OFFCURVE",
"320 -17 CURVE SMOOTH",
"394 -17 OFFCURVE",
"457 -2 OFFCURVE",
"507 18 CURVE",
"519 111 LINE",
"454 91 OFFCURVE",
"396 79 OFFCURVE",
"336 79 CURVE SMOOTH",
"229 79 OFFCURVE",
"162 122 OFFCURVE",
"146 196 CURVE",
"520 196 LINE",
"520 254 LINE SMOOTH",
"520 380 OFFCURVE",
"425 462 OFFCURVE",
"282 462 CURVE SMOOTH",
"127 462 OFFCURVE",
"28 369 OFFCURVE",
"28 223 CURVE SMOOTH"
);
},
{
closed = 1;
nodes = (
"150 336 OFFCURVE",
"198 372 OFFCURVE",
"281 372 CURVE SMOOTH",
"362 372 OFFCURVE",
"406 338 OFFCURVE",
"409 268 CURVE",
"145 268 LINE"
);
}
);
width = 548;
},
{
associatedMasterId = "6BCBDBF6-8315-4194-A290-F71994A92467";
layerId = "4E793C8F-AF5B-4DC9-921F-1BAA3FE47215";
name = foreground;
paths = (
{
closed = 1;
nodes = (
"28 81 OFFCURVE",
"139 -17 OFFCURVE",
"309 -17 CURVE SMOOTH",
"382 -17 OFFCURVE",
"449 2 OFFCURVE",
"507 34 CURVE",
"519 131 LINE",
"440 95 OFFCURVE",
"379 79 OFFCURVE",
"317 79 CURVE SMOOTH",
"222 79 OFFCURVE",
"162 116 OFFCURVE",
"146 187 CURVE",
"520 187 LINE",
"520 247 LINE SMOOTH",
"520 380 OFFCURVE",
"417 462 OFFCURVE",
"282 462 CURVE SMOOTH",
"132 462 OFFCURVE",
"28 374 OFFCURVE",
"28 223 CURVE SMOOTH"
);
},
{
closed = 1;
nodes = (
"150 335 OFFCURVE",
"204 370 OFFCURVE",
"281 370 CURVE SMOOTH",
"362 370 OFFCURVE",
"406 330 OFFCURVE",
"409 265 CURVE",
"145 265 LINE"
);
}
);
width = 555;
},
{
anchors = (
{
name = bottom;
position = "{318, 0}";
},
{
name = ogonek;
position = "{505, 8}";
},
{
name = top;
position = "{318, 456}";
}
);
layerId = "4F9EBE27-C263-4ED9-B2A0-4AD0096E628D";
paths = (
{
closed = 1;
nodes = (
"18 69 OFFCURVE",
"147 -19 OFFCURVE",
"374 -19 CURVE SMOOTH",
"469 -19 OFFCURVE",
"538 -6 OFFCURVE",
"608 21 CURVE",
"614 153 LINE",
"549 133 OFFCURVE",
"474 121 OFFCURVE",
"414 121 CURVE SMOOTH",
"325 121 OFFCURVE",
"271 144 OFFCURVE",
"249 194 CURVE",
"614 194 LINE",
"614 251 LINE SMOOTH",
"614 389 OFFCURVE",
"506 478 OFFCURVE",
"336 478 CURVE SMOOTH",
"136 478 OFFCURVE",
"18 383 OFFCURVE",
"18 223 CURVE SMOOTH"
);
},
{
closed = 1;
nodes = (
"247 314 OFFCURVE",
"274 346 OFFCURVE",
"318 346 CURVE SMOOTH",
"360 346 OFFCURVE",
"383 314 OFFCURVE",
"383 266 CURVE",
"247 266 LINE"
);
}
);
width = 637;
}
);
leftKerningGroup = o;
leftMetricsKey = o;
rightKerningGroup = e;
unicode = 0065;
},
{
glyphname = f;
lastChange = "2023-09-17 15:40:37 +0000";
layers = (
{
anchors = (
{
name = bottom;
position = "{232, 0}";
},
{
name = top;
position = "{232, 628}";
}
);
background = {
paths = (
{
closed = 1;
nodes = (
"110 356 LINE",
"110 0 LINE",
"230 0 LINE",
"230 356 LINE",
"433 356 LINE",
"433 448 LINE",
"230 448 LINE",
"230 452 LINE SMOOTH",
"230 511 OFFCURVE",
"263 536 OFFCURVE",
"345 536 CURVE",
"398 536 OFFCURVE",
"439 526 OFFCURVE",
"474 503 CURVE",
"474 597 LINE",
"434 619 OFFCURVE",
"392 632 OFFCURVE",
"330 632 CURVE SMOOTH",
"190 632 OFFCURVE",
"110 565 OFFCURVE",
"110 454 CURVE SMOOTH",
"110 448 LINE",
"9 448 LINE",
"9 356 LINE"
);
}
);
};
layerId = "6BCBDBF6-8315-4194-A290-F71994A92467";
paths = (
{
closed = 1;
nodes = (
"102 356 LINE",
"102 0 LINE",
"222 0 LINE",
"222 356 LINE",
"424 356 LINE",
"424 448 LINE",
"222 448 LINE",
"222 452 LINE SMOOTH",
"222 511 OFFCURVE",
"263 536 OFFCURVE",
"344 536 CURVE SMOOTH",
"390 536 OFFCURVE",
"431 530 OFFCURVE",
"474 515 CURVE",
"470 610 LINE",
"422 625 OFFCURVE",
"376 632 OFFCURVE",
"322 632 CURVE SMOOTH",
"183 632 OFFCURVE",
"102 566 OFFCURVE",
"102 454 CURVE SMOOTH",
"102 448 LINE",
"8 448 LINE",
"8 356 LINE"
);
}
);
width = 470;
},
{
associatedMasterId = "6BCBDBF6-8315-4194-A290-F71994A92467";
layerId = "303B6ABA-5B31-4D9C-966E-80765D3CD197";
name = foreground;
paths = (
{
closed = 1;
nodes = (
"109 356 LINE",
"109 0 LINE",
"229 0 LINE",
"229 356 LINE",
"431 356 LINE",
"431 448 LINE",
"229 448 LINE",
"229 452 LINE SMOOTH",
"229 511 OFFCURVE",
"262 536 OFFCURVE",
"343 536 CURVE SMOOTH",
"392 536 OFFCURVE",
"439 527 OFFCURVE",
"478 513 CURVE",
"473 597 LINE",
"432 619 OFFCURVE",
"390 632 OFFCURVE",
"329 632 CURVE SMOOTH",
"189 632 OFFCURVE",
"109 565 OFFCURVE",
"109 454 CURVE SMOOTH",
"109 448 LINE",
"7 448 LINE",
"7 356 LINE"
);
}
);
width = 478;
},
{
anchors = (
{
name = bottom;
position = "{232, 0}";
},
{
name = top;
position = "{232, 628}";
}
);
associatedMasterId = "6BCBDBF6-8315-4194-A290-F71994A92467";
background = {
paths = (
{
closed = 1;
nodes = (
"110 356 LINE",
"110 0 LINE",
"230 0 LINE",
"230 356 LINE",
"433 356 LINE",
"433 448 LINE",
"230 448 LINE",
"230 452 LINE SMOOTH",
"230 511 OFFCURVE",
"263 536 OFFCURVE",
"345 536 CURVE",
"398 536 OFFCURVE",
"439 526 OFFCURVE",
"474 503 CURVE",
"474 597 LINE",
"434 619 OFFCURVE",
"392 632 OFFCURVE",
"330 632 CURVE SMOOTH",
"190 632 OFFCURVE",
"110 565 OFFCURVE",
"110 454 CURVE SMOOTH",
"110 448 LINE",
"9 448 LINE",
"9 356 LINE"
);
}
);
};
layerId = "80A3AD76-FB68-4875-A10F-AFA7CAD016D7";
name = "19 Apr 21, 12:08";
paths = (
{
closed = 1;
nodes = (
"102 356 LINE",
"102 0 LINE",
"222 0 LINE",
"222 356 LINE",
"424 356 LINE",
"424 448 LINE",
"222 448 LINE",
"222 452 LINE SMOOTH",
"222 511 OFFCURVE",
"263 536 OFFCURVE",
"344 536 CURVE SMOOTH",
"398 536 OFFCURVE",
"439 525 OFFCURVE",
"474 505 CURVE",
"470 600 LINE",
"423 622 OFFCURVE",
"376 632 OFFCURVE",
"322 632 CURVE SMOOTH",
"183 632 OFFCURVE",
"102 566 OFFCURVE",
"102 454 CURVE SMOOTH",
"102 448 LINE",
"8 448 LINE",
"8 356 LINE"
);
}
);
width = 470;
},
{
anchors = (
{
name = bottom;
position = "{270, 0}";
},
{
name = top;
position = "{270, 640}";
}
);
layerId = "4F9EBE27-C263-4ED9-B2A0-4AD0096E628D";
paths = (
{
closed = 1;
nodes = (
"90 278 LINE",
"90 0 LINE",
"330 0 LINE",
"330 278 LINE",
"500 278 LINE",
"500 426 LINE",
"330 426 LINE",
"330 435 LINE SMOOTH",
"330 470 OFFCURVE",
"367 488 OFFCURVE",
"434 488 CURVE SMOOTH",
"477 488 OFFCURVE",
"515 481 OFFCURVE",
"550 467 CURVE",
"538 628 LINE",
"494 641 OFFCURVE",
"446 648 OFFCURVE",
"378 648 CURVE SMOOTH",
"177 648 OFFCURVE",
"90 554 OFFCURVE",
"90 441 CURVE SMOOTH",
"90 426 LINE",
"5 426 LINE",
"5 278 LINE"
);
}
);
width = 537;
}
);
leftKerningGroup = f;
rightKerningGroup = f;
unicode = 0066;
},
{
glyphname = g;
lastChange = "2023-09-17 15:40:37 +0000";
layers = (
{
anchors = (
{
name = bottom;
position = "{306, -172}";
},
{
name = top;
position = "{306, 448}";
}
);
background = {
paths = (
{
closed = 1;
nodes = (
"32 105 OFFCURVE",
"128 6 OFFCURVE",
"251 6 CURVE SMOOTH",
"325 6 OFFCURVE",
"393 42 OFFCURVE",
"431 112 CURVE",
"431 58 LINE SMOOTH",
"431 -31 OFFCURVE",
"350 -74 OFFCURVE",
"258 -74 CURVE SMOOTH",
"170 -74 OFFCURVE",
"102 -38 OFFCURVE",
"56 0 CURVE",
"56 -108 LINE",
"98 -138 OFFCURVE",
"169 -171 OFFCURVE",
"268 -171 CURVE SMOOTH",
"402 -171 OFFCURVE",
"551 -113 OFFCURVE",
"551 74 CURVE SMOOTH",
"551 456 LINE",
"431 456 LINE",
"431 377 LINE",
"394 434 OFFCURVE",
"326 470 OFFCURVE",
"251 470 CURVE SMOOTH",
"127 470 OFFCURVE",
"32 374 OFFCURVE",
"32 239 CURVE SMOOTH"
);
},
{
closed = 1;
nodes = (
"155 316 OFFCURVE",
"212 375 OFFCURVE",
"296 375 CURVE SMOOTH",
"377 375 OFFCURVE",
"435 320 OFFCURVE",
"435 233 CURVE SMOOTH",
"435 225 LINE SMOOTH",
"435 149 OFFCURVE",
"376 98 OFFCURVE",
"296 98 CURVE SMOOTH",
"210 98 OFFCURVE",
"155 155 OFFCURVE",
"155 235 CURVE SMOOTH"
);
}
);
};
layerId = "6BCBDBF6-8315-4194-A290-F71994A92467";
paths = (
{
closed = 1;
nodes = (
"32 110 OFFCURVE",
"128 12 OFFCURVE",
"251 12 CURVE SMOOTH",
"325 12 OFFCURVE",
"393 47 OFFCURVE",
"431 112 CURVE",
"431 58 LINE SMOOTH",
"431 -40 OFFCURVE",
"356 -83 OFFCURVE",
"246 -83 CURVE SMOOTH",
"184 -83 OFFCURVE",
"122 -70 OFFCURVE",
"59 -42 CURVE",
"72 -144 LINE",
"126 -168 OFFCURVE",
"191 -180 OFFCURVE",
"258 -180 CURVE SMOOTH",
"407 -180 OFFCURVE",
"551 -122 OFFCURVE",
"551 66 CURVE SMOOTH",
"551 448 LINE",
"431 448 LINE",
"431 377 LINE",
"394 426 OFFCURVE",
"326 462 OFFCURVE",
"251 462 CURVE SMOOTH",
"127 462 OFFCURVE",
"32 366 OFFCURVE",
"32 239 CURVE SMOOTH"
);
},
{
closed = 1;
nodes = (
"155 316 OFFCURVE",
"212 375 OFFCURVE",
"296 375 CURVE SMOOTH",
"377 375 OFFCURVE",
"435 320 OFFCURVE",
"435 233 CURVE SMOOTH",
"435 225 LINE SMOOTH",
"435 149 OFFCURVE",
"376 98 OFFCURVE",
"296 98 CURVE SMOOTH",
"210 98 OFFCURVE",
"155 155 OFFCURVE",
"155 235 CURVE SMOOTH"
);
}
);
width = 591;
},
{
associatedMasterId = "6BCBDBF6-8315-4194-A290-F71994A92467";
layerId = "F3D38E0C-FE9D-46C2-AE9C-47AD6BD068E3";
name = foreground;
paths = (
{
closed = 1;
nodes = (
"42 105 OFFCURVE",
"138 6 OFFCURVE",
"261 6 CURVE SMOOTH",
"334 6 OFFCURVE",
"402 42 OFFCURVE",
"441 112 CURVE",
"441 50 LINE SMOOTH",
"441 -39 OFFCURVE",
"360 -82 OFFCURVE",
"265 -82 CURVE SMOOTH",
"178 -82 OFFCURVE",
"107 -46 OFFCURVE",
"61 -8 CURVE",
"66 -116 LINE",
"108 -146 OFFCURVE",
"178 -179 OFFCURVE",
"278 -179 CURVE SMOOTH",
"411 -179 OFFCURVE",
"561 -121 OFFCURVE",
"561 66 CURVE SMOOTH",
"561 448 LINE",
"441 448 LINE",
"441 377 LINE",
"404 434 OFFCURVE",
"336 470 OFFCURVE",
"261 470 CURVE SMOOTH",
"137 470 OFFCURVE",
"42 374 OFFCURVE",
"42 239 CURVE SMOOTH"
);
},
{
closed = 1;
nodes = (
"165 316 OFFCURVE",
"222 375 OFFCURVE",
"306 375 CURVE SMOOTH",
"386 375 OFFCURVE",
"445 320 OFFCURVE",
"445 233 CURVE SMOOTH",
"445 225 LINE SMOOTH",
"445 149 OFFCURVE",
"386 98 OFFCURVE",
"306 98 CURVE SMOOTH",
"220 98 OFFCURVE",
"165 155 OFFCURVE",
"165 235 CURVE SMOOTH"
);
}
);
width = 622;
},
{
anchors = (
{
name = bottom;
position = "{302, -172}";
},
{
name = top;
position = "{302, 448}";
}
);
associatedMasterId = "6BCBDBF6-8315-4194-A290-F71994A92467";
background = {
paths = (
{
closed = 1;
nodes = (
"28 105 OFFCURVE",
"124 6 OFFCURVE",
"247 6 CURVE SMOOTH",
"321 6 OFFCURVE",
"389 42 OFFCURVE",
"427 112 CURVE",
"427 58 LINE SMOOTH",
"427 -31 OFFCURVE",
"346 -74 OFFCURVE",
"254 -74 CURVE SMOOTH",
"166 -74 OFFCURVE",
"98 -38 OFFCURVE",
"52 0 CURVE",
"52 -108 LINE",
"94 -138 OFFCURVE",
"165 -171 OFFCURVE",
"264 -171 CURVE SMOOTH",
"398 -171 OFFCURVE",
"547 -113 OFFCURVE",
"547 74 CURVE SMOOTH",
"547 456 LINE",
"427 456 LINE",
"427 377 LINE",
"390 434 OFFCURVE",
"322 470 OFFCURVE",
"247 470 CURVE SMOOTH",
"123 470 OFFCURVE",
"28 374 OFFCURVE",
"28 239 CURVE SMOOTH"
);
},
{
closed = 1;
nodes = (
"151 316 OFFCURVE",
"208 375 OFFCURVE",
"292 375 CURVE SMOOTH",
"373 375 OFFCURVE",
"431 320 OFFCURVE",
"431 233 CURVE SMOOTH",
"431 225 LINE SMOOTH",
"431 149 OFFCURVE",
"372 98 OFFCURVE",
"292 98 CURVE SMOOTH",
"206 98 OFFCURVE",
"151 155 OFFCURVE",
"151 235 CURVE SMOOTH"
);
}
);
};
layerId = "E7E53C21-0AF5-4F48-AF9D-DE8F0733A689";
name = "3 Feb 21, 17:42";
paths = (
{
closed = 1;
nodes = (
"28 110 OFFCURVE",
"124 12 OFFCURVE",
"247 12 CURVE SMOOTH",
"321 12 OFFCURVE",
"389 47 OFFCURVE",
"427 112 CURVE",
"427 50 LINE SMOOTH",
"427 -40 OFFCURVE",
"346 -83 OFFCURVE",
"251 -83 CURVE SMOOTH",
"178 -83 OFFCURVE",
"105 -57 OFFCURVE",
"47 -9 CURVE",
"52 -117 LINE",
"109 -158 OFFCURVE",
"185 -180 OFFCURVE",
"264 -180 CURVE SMOOTH",
"398 -180 OFFCURVE",
"547 -122 OFFCURVE",
"547 66 CURVE SMOOTH",
"547 448 LINE",
"427 448 LINE",
"427 377 LINE",
"390 426 OFFCURVE",
"322 462 OFFCURVE",
"247 462 CURVE SMOOTH",
"123 462 OFFCURVE",
"28 366 OFFCURVE",
"28 239 CURVE SMOOTH"
);
},
{
closed = 1;
nodes = (
"151 316 OFFCURVE",
"208 375 OFFCURVE",
"292 375 CURVE SMOOTH",
"373 375 OFFCURVE",
"431 320 OFFCURVE",
"431 233 CURVE SMOOTH",
"431 225 LINE SMOOTH",
"431 149 OFFCURVE",
"372 98 OFFCURVE",
"292 98 CURVE SMOOTH",
"206 98 OFFCURVE",
"151 155 OFFCURVE",
"151 235 CURVE SMOOTH"
);
}
);
width = 603;
},
{
anchors = (
{
name = bottom;
position = "{306, -172}";
},
{
name = top;
position = "{306, 448}";
}
);
associatedMasterId = "6BCBDBF6-8315-4194-A290-F71994A92467";
background = {
paths = (
{
closed = 1;
nodes = (
"32 105 OFFCURVE",
"128 6 OFFCURVE",
"251 6 CURVE SMOOTH",
"325 6 OFFCURVE",
"393 42 OFFCURVE",
"431 112 CURVE",
"431 58 LINE SMOOTH",
"431 -31 OFFCURVE",
"350 -74 OFFCURVE",
"258 -74 CURVE SMOOTH",
"170 -74 OFFCURVE",
"102 -38 OFFCURVE",
"56 0 CURVE",
"56 -108 LINE",
"98 -138 OFFCURVE",
"169 -171 OFFCURVE",
"268 -171 CURVE SMOOTH",
"402 -171 OFFCURVE",
"551 -113 OFFCURVE",
"551 74 CURVE SMOOTH",
"551 456 LINE",
"431 456 LINE",
"431 377 LINE",
"394 434 OFFCURVE",
"326 470 OFFCURVE",
"251 470 CURVE SMOOTH",
"127 470 OFFCURVE",
"32 374 OFFCURVE",
"32 239 CURVE SMOOTH"
);
},
{
closed = 1;
nodes = (
"155 316 OFFCURVE",
"212 375 OFFCURVE",
"296 375 CURVE SMOOTH",
"377 375 OFFCURVE",
"435 320 OFFCURVE",
"435 233 CURVE SMOOTH",
"435 225 LINE SMOOTH",
"435 149 OFFCURVE",
"376 98 OFFCURVE",
"296 98 CURVE SMOOTH",
"210 98 OFFCURVE",
"155 155 OFFCURVE",
"155 235 CURVE SMOOTH"
);
}
);
};
layerId = "6F2BE418-8606-431D-88FD-BA3E0E7550FC";
name = "22 Feb 21, 19:27";
paths = (
{
closed = 1;
nodes = (
"32 110 OFFCURVE",
"128 12 OFFCURVE",
"251 12 CURVE SMOOTH",
"325 12 OFFCURVE",
"393 47 OFFCURVE",
"431 112 CURVE",
"431 50 LINE SMOOTH",
"431 -40 OFFCURVE",
"350 -83 OFFCURVE",
"255 -83 CURVE SMOOTH",
"182 -83 OFFCURVE",
"109 -62 OFFCURVE",
"43 -26 CURVE",
"56 -127 LINE",
"113 -160 OFFCURVE",
"189 -180 OFFCURVE",
"268 -180 CURVE SMOOTH",
"402 -180 OFFCURVE",
"551 -122 OFFCURVE",
"551 66 CURVE SMOOTH",
"551 448 LINE",
"431 448 LINE",
"431 377 LINE",
"394 426 OFFCURVE",
"326 462 OFFCURVE",
"251 462 CURVE SMOOTH",
"127 462 OFFCURVE",
"32 366 OFFCURVE",
"32 239 CURVE SMOOTH"
);
},
{
closed = 1;
nodes = (
"155 316 OFFCURVE",
"212 375 OFFCURVE",
"296 375 CURVE SMOOTH",
"377 375 OFFCURVE",
"435 320 OFFCURVE",
"435 233 CURVE SMOOTH",
"435 225 LINE SMOOTH",
"435 149 OFFCURVE",
"376 98 OFFCURVE",
"296 98 CURVE SMOOTH",
"210 98 OFFCURVE",
"155 155 OFFCURVE",
"155 235 CURVE SMOOTH"
);
}
);
width = 607;
},
{
anchors = (
{
name = bottom;
position = "{306, -172}";
},
{
name = top;
position = "{306, 448}";
}
);
associatedMasterId = "6BCBDBF6-8315-4194-A290-F71994A92467";
background = {
paths = (
{
closed = 1;
nodes = (
"32 105 OFFCURVE",
"128 6 OFFCURVE",
"251 6 CURVE SMOOTH",
"325 6 OFFCURVE",
"393 42 OFFCURVE",
"431 112 CURVE",
"431 58 LINE SMOOTH",
"431 -31 OFFCURVE",
"350 -74 OFFCURVE",
"258 -74 CURVE SMOOTH",
"170 -74 OFFCURVE",
"102 -38 OFFCURVE",
"56 0 CURVE",
"56 -108 LINE",
"98 -138 OFFCURVE",
"169 -171 OFFCURVE",
"268 -171 CURVE SMOOTH",
"402 -171 OFFCURVE",
"551 -113 OFFCURVE",
"551 74 CURVE SMOOTH",
"551 456 LINE",
"431 456 LINE",
"431 377 LINE",
"394 434 OFFCURVE",
"326 470 OFFCURVE",
"251 470 CURVE SMOOTH",
"127 470 OFFCURVE",
"32 374 OFFCURVE",
"32 239 CURVE SMOOTH"
);
},
{
closed = 1;
nodes = (
"155 316 OFFCURVE",
"212 375 OFFCURVE",
"296 375 CURVE SMOOTH",
"377 375 OFFCURVE",
"435 320 OFFCURVE",
"435 233 CURVE SMOOTH",
"435 225 LINE SMOOTH",
"435 149 OFFCURVE",
"376 98 OFFCURVE",
"296 98 CURVE SMOOTH",
"210 98 OFFCURVE",
"155 155 OFFCURVE",
"155 235 CURVE SMOOTH"
);
}
);
};
layerId = "65761CEB-A02C-4A1E-8BBC-7EBC01DD13EE";
name = "27 Mar 21, 02:42";
paths = (
{
closed = 1;
nodes = (
"32 110 OFFCURVE",
"128 12 OFFCURVE",
"251 12 CURVE SMOOTH",
"325 12 OFFCURVE",
"393 47 OFFCURVE",
"431 112 CURVE",
"431 50 LINE SMOOTH",
"431 -40 OFFCURVE",
"356 -83 OFFCURVE",
"257 -83 CURVE SMOOTH",
"188 -83 OFFCURVE",
"114 -62 OFFCURVE",
"49 -26 CURVE",
"62 -127 LINE",
"118 -160 OFFCURVE",
"194 -180 OFFCURVE",
"274 -180 CURVE SMOOTH",
"407 -180 OFFCURVE",
"551 -122 OFFCURVE",
"551 66 CURVE SMOOTH",
"551 448 LINE",
"431 448 LINE",
"431 377 LINE",
"394 426 OFFCURVE",
"326 462 OFFCURVE",
"251 462 CURVE SMOOTH",
"127 462 OFFCURVE",
"32 366 OFFCURVE",
"32 239 CURVE SMOOTH"
);
},
{
closed = 1;
nodes = (
"155 316 OFFCURVE",
"212 375 OFFCURVE",
"296 375 CURVE SMOOTH",
"377 375 OFFCURVE",
"435 320 OFFCURVE",
"435 233 CURVE SMOOTH",
"435 225 LINE SMOOTH",
"435 149 OFFCURVE",
"376 98 OFFCURVE",
"296 98 CURVE SMOOTH",
"210 98 OFFCURVE",
"155 155 OFFCURVE",
"155 235 CURVE SMOOTH"
);
}
);
width = 607;
},
{
anchors = (
{
name = bottom;
position = "{306, -172}";
},
{
name = top;
position = "{306, 448}";
}
);
associatedMasterId = "6BCBDBF6-8315-4194-A290-F71994A92467";
background = {
paths = (
{
closed = 1;
nodes = (
"32 105 OFFCURVE",
"128 6 OFFCURVE",
"251 6 CURVE SMOOTH",
"325 6 OFFCURVE",
"393 42 OFFCURVE",
"431 112 CURVE",
"431 58 LINE SMOOTH",
"431 -31 OFFCURVE",
"350 -74 OFFCURVE",
"258 -74 CURVE SMOOTH",
"170 -74 OFFCURVE",
"102 -38 OFFCURVE",
"56 0 CURVE",
"56 -108 LINE",
"98 -138 OFFCURVE",
"169 -171 OFFCURVE",
"268 -171 CURVE SMOOTH",
"402 -171 OFFCURVE",
"551 -113 OFFCURVE",
"551 74 CURVE SMOOTH",
"551 456 LINE",
"431 456 LINE",
"431 377 LINE",
"394 434 OFFCURVE",
"326 470 OFFCURVE",
"251 470 CURVE SMOOTH",
"127 470 OFFCURVE",
"32 374 OFFCURVE",
"32 239 CURVE SMOOTH"
);
},
{
closed = 1;
nodes = (
"155 316 OFFCURVE",
"212 375 OFFCURVE",
"296 375 CURVE SMOOTH",
"377 375 OFFCURVE",
"435 320 OFFCURVE",
"435 233 CURVE SMOOTH",
"435 225 LINE SMOOTH",
"435 149 OFFCURVE",
"376 98 OFFCURVE",
"296 98 CURVE SMOOTH",
"210 98 OFFCURVE",
"155 155 OFFCURVE",
"155 235 CURVE SMOOTH"
);
}
);
};
layerId = "CB048D54-B4EC-463E-9B1D-3CA6769ECBBD";
name = "23 Apr 21, 11:49";
paths = (
{
closed = 1;
nodes = (
"32 110 OFFCURVE",
"128 12 OFFCURVE",
"251 12 CURVE SMOOTH",
"325 12 OFFCURVE",
"393 47 OFFCURVE",
"431 112 CURVE",
"431 58 LINE SMOOTH",
"431 -40 OFFCURVE",
"356 -83 OFFCURVE",
"252 -83 CURVE SMOOTH",
"184 -83 OFFCURVE",
"115 -66 OFFCURVE",
"53 -38 CURVE",
"66 -140 LINE",
"120 -164 OFFCURVE",
"191 -180 OFFCURVE",
"269 -180 CURVE SMOOTH",
"407 -180 OFFCURVE",
"551 -122 OFFCURVE",
"551 66 CURVE SMOOTH",
"551 448 LINE",
"431 448 LINE",
"431 377 LINE",
"394 426 OFFCURVE",
"326 462 OFFCURVE",
"251 462 CURVE SMOOTH",
"127 462 OFFCURVE",
"32 366 OFFCURVE",
"32 239 CURVE SMOOTH"
);
},
{
closed = 1;
nodes = (
"155 316 OFFCURVE",
"212 375 OFFCURVE",
"296 375 CURVE SMOOTH",
"377 375 OFFCURVE",
"435 320 OFFCURVE",
"435 233 CURVE SMOOTH",
"435 225 LINE SMOOTH",
"435 149 OFFCURVE",
"376 98 OFFCURVE",
"296 98 CURVE SMOOTH",
"210 98 OFFCURVE",
"155 155 OFFCURVE",
"155 235 CURVE SMOOTH"
);
}
);
width = 607;
},
{
anchors = (
{
name = bottom;
position = "{346, -160}";
},
{
name = top;
position = "{346, 456}";
}
);
layerId = "4F9EBE27-C263-4ED9-B2A0-4AD0096E628D";
paths = (
{
closed = 1;
nodes = (
"18 93 OFFCURVE",
"109 17 OFFCURVE",
"246 17 CURVE SMOOTH",
"330 17 OFFCURVE",
"383 47 OFFCURVE",
"426 97 CURVE",
"426 94 LINE SMOOTH",
"426 -6 OFFCURVE",
"337 -38 OFFCURVE",
"240 -38 CURVE SMOOTH",
"178 -38 OFFCURVE",
"116 -25 OFFCURVE",
"54 2 CURVE",
"66 -164 LINE",
"121 -188 OFFCURVE",
"186 -200 OFFCURVE",
"271 -200 CURVE SMOOTH",
"506 -200 OFFCURVE",
"665 -111 OFFCURVE",
"666 72 CURVE SMOOTH",
"666 456 LINE",
"426 456 LINE",
"426 365 LINE",
"389 438 OFFCURVE",
"321 474 OFFCURVE",
"238 474 CURVE SMOOTH",
"98 474 OFFCURVE",
"18 368 OFFCURVE",
"18 233 CURVE SMOOTH"
);
},
{
closed = 1;
nodes = (
"274 301 OFFCURVE",
"296 338 OFFCURVE",
"341 338 CURVE SMOOTH",
"386 338 OFFCURVE",
"408 301 OFFCURVE",
"408 245 CURVE SMOOTH",
"408 238 LINE SMOOTH",
"408 175 OFFCURVE",
"382 146 OFFCURVE",
"341 146 CURVE SMOOTH",
"298 145 OFFCURVE",
"274 176 OFFCURVE",
"274 240 CURVE SMOOTH"
);
}
);
width = 694;
},
{
anchors = (
{
name = bottom;
position = "{240, -160}";
},
{
name = top;
position = "{240, 456}";
}
);
associatedMasterId = "4F9EBE27-C263-4ED9-B2A0-4AD0096E628D";
layerId = "B3C7CCE1-E705-4861-8953-2CDA52C568E5";
name = " ";
paths = (
{
closed = 1;
nodes = (
"95 474 OFFCURVE",
"16 368 OFFCURVE",
"16 233 CURVE SMOOTH",
"16 93 OFFCURVE",
"102 17 OFFCURVE",
"243 17 CURVE SMOOTH",
"323 17 OFFCURVE",
"381 47 OFFCURVE",
"423 89 CURVE",
"423 72 LINE",
"663 72 LINE",
"663 456 LINE",
"423 456 LINE",
"423 365 LINE",
"386 438 OFFCURVE",
"318 474 OFFCURVE",
"234 474 CURVE SMOOTH"
);
},
{
closed = 1;
nodes = (
"295 145 OFFCURVE",
"272 176 OFFCURVE",
"272 240 CURVE SMOOTH",
"272 301 OFFCURVE",
"294 338 OFFCURVE",
"338 338 CURVE SMOOTH",
"383 338 OFFCURVE",
"406 301 OFFCURVE",
"406 245 CURVE SMOOTH",
"406 238 LINE SMOOTH",
"406 175 OFFCURVE",
"380 146 OFFCURVE",
"338 146 CURVE SMOOTH"
);
},
{
closed = 1;
nodes = (
"423 86 LINE",
"423 -6 OFFCURVE",
"334 -38 OFFCURVE",
"238 -38 CURVE SMOOTH",
"176 -38 OFFCURVE",
"114 -25 OFFCURVE",
"51 2 CURVE",
"64 -164 LINE",
"118 -188 OFFCURVE",
"183 -200 OFFCURVE",
"269 -200 CURVE SMOOTH",
"504 -200 OFFCURVE",
"663 -110 OFFCURVE",
"663 74 CURVE"
);
}
);
width = 687;
}
);
leftKerningGroup = o;
rightKerningGroup = g;
unicode = 0067;
},
{
glyphname = h;
lastChange = "2023-09-17 15:40:37 +0000";
layers = (
{
anchors = (
{
name = bottom;
position = "{288, 0}";
},
{
name = center;
position = "{288, 314}";
},
{
name = top;
position = "{288, 628}";
}
);
layerId = "6BCBDBF6-8315-4194-A290-F71994A92467";
paths = (
{
closed = 1;
nodes = (
"190 334 OFFCURVE",
"236 368 OFFCURVE",
"299 368 CURVE SMOOTH",
"367 368 OFFCURVE",
"409 328 OFFCURVE",
"409 262 CURVE SMOOTH",
"409 0 LINE",
"529 0 LINE",
"529 286 LINE SMOOTH",
"529 398 OFFCURVE",
"465 462 OFFCURVE",
"350 462 CURVE SMOOTH",
"253 462 OFFCURVE",
"190 416 OFFCURVE",
"157 322 CURVE",
"158 263 LINE"
);
},
{
closed = 1;
nodes = (
"169 0 LINE",
"169 329 LINE",
"169 334 LINE",
"169 628 LINE",
"49 628 LINE",
"49 0 LINE"
);
}
);
width = 574;
},
{
associatedMasterId = "6BCBDBF6-8315-4194-A290-F71994A92467";
layerId = "F923F4E0-4D11-4909-AC27-1C106E8A0A39";
name = foreground;
paths = (
{
closed = 1;
nodes = (
"168 0 LINE",
"168 628 LINE",
"48 628 LINE",
"48 0 LINE"
);
},
{
closed = 1;
nodes = (
"187 330 OFFCURVE",
"232 368 OFFCURVE",
"298 368 CURVE SMOOTH",
"361 368 OFFCURVE",
"408 334 OFFCURVE",
"408 262 CURVE SMOOTH",
"408 0 LINE",
"528 0 LINE",
"528 286 LINE SMOOTH",
"528 397 OFFCURVE",
"466 462 OFFCURVE",
"350 462 CURVE SMOOTH",
"252 462 OFFCURVE",
"189 416 OFFCURVE",
"156 322 CURVE",
"158 263 LINE"
);
}
);
width = 599;
},
{
anchors = (
{
name = bottom;
position = "{324, 0}";
},
{
name = center;
position = "{324, 320}";
},
{
name = top;
position = "{324, 640}";
}
);
layerId = "4F9EBE27-C263-4ED9-B2A0-4AD0096E628D";
paths = (
{
closed = 1;
nodes = (
"273 282 OFFCURVE",
"302 297 OFFCURVE",
"329 297 CURVE SMOOTH",
"358 297 OFFCURVE",
"376 280 OFFCURVE",
"376 241 CURVE SMOOTH",
"376 0 LINE",
"616 0 LINE",
"616 286 LINE SMOOTH",
"616 410 OFFCURVE",
"559 470 OFFCURVE",
"454 470 CURVE SMOOTH",
"358 470 OFFCURVE",
"276 421 OFFCURVE",
"248 303 CURVE",
"262 244 LINE"
);
},
{
closed = 1;
nodes = (
"268 0 LINE",
"268 323 LINE",
"252 323 LINE",
"252 640 LINE",
"28 640 LINE",
"28 0 LINE"
);
}
);
width = 650;
}
);
leftKerningGroup = h;
leftMetricsKey = n;
rightKerningGroup = n;
rightMetricsKey = n;
unicode = 0068;
},
{
glyphname = hbar;
lastChange = "2023-09-18 16:35:21 +0000";
layers = (
{
components = (
{
name = h;
}
);
layerId = "6BCBDBF6-8315-4194-A290-F71994A92467";
paths = (
{
closed = 1;
nodes = (
"-16 508 LINE",
"414 508 LINE",
"414 584 LINE",
"-16 584 LINE"
);
}
);
width = 574;
},
{
components = (
{
name = h;
transform = "{1, 0, 0, 1, -10, 0}";
}
);
layerId = "4F9EBE27-C263-4ED9-B2A0-4AD0096E628D";
paths = (
{
closed = 1;
nodes = (
"-74 484 LINE",
"508 484 LINE",
"508 584 LINE",
"-74 584 LINE"
);
}
);
width = 640;
}
);
leftKerningGroup = h;
rightKerningGroup = n;
rightMetricsKey = h;
unicode = 0127;
},
{
glyphname = i;
lastChange = "2023-09-18 16:35:21 +0000";
layers = (
{
anchors = (
{
name = bottom;
position = "{118, 0}";
}
);
components = (
{
name = idotless;
},
{
name = dotaccentcomb;
transform = "{1, 0, 0, 1, 6, 0}";
}
);
layerId = "6BCBDBF6-8315-4194-A290-F71994A92467";
width = 218;
},
{
associatedMasterId = "6BCBDBF6-8315-4194-A290-F71994A92467";
layerId = "2E2D0FC4-7E1A-4D9F-A9BD-0F238EA00546";
name = foreground;
paths = (
{
closed = 1;
nodes = (
"63 0 LINE",
"183 0 LINE",
"183 448 LINE",
"63 448 LINE"
);
},
{
closed = 1;
nodes = (
"62 506 LINE",
"184 506 LINE",
"184 628 LINE",
"62 628 LINE"
);
}
);
width = 249;
},
{
anchors = (
{
name = bottom;
position = "{143, 0}";
}
);
components = (
{
name = idotless;
},
{
name = dotaccentcomb;
transform = "{1.1, 0, 0, 0.9, -144, 71}";
}
);
layerId = "4F9EBE27-C263-4ED9-B2A0-4AD0096E628D";
width = 306;
}
);
leftKerningGroup = i;
leftMetricsKey = n;
rightKerningGroup = i;
unicode = 0069;
},
{
glyphname = idotless;
lastChange = "2023-09-17 15:40:37 +0000";
layers = (
{
anchors = (
{
name = bottom;
position = "{110, 0}";
},
{
name = ogonek;
position = "{168, 6}";
},
{
name = top;
position = "{110, 448}";
}
);
layerId = "6BCBDBF6-8315-4194-A290-F71994A92467";
paths = (
{
closed = 1;
nodes = (
"49 0 LINE",
"171 0 LINE",
"171 448 LINE",
"49 448 LINE"
);
}
);
width = 218;
},
{
associatedMasterId = "6BCBDBF6-8315-4194-A290-F71994A92467";
layerId = "29E3CD0F-E30F-4FC0-9417-EE4B21FB5092";
name = foreground;
paths = (
{
closed = 1;
nodes = (
"184 0 LINE",
"306 0 LINE",
"306 448 LINE",
"184 448 LINE"
);
}
);
width = 491;
},
{
anchors = (
{
name = bottom;
position = "{153, 0}";
},
{
name = ogonek;
position = "{235, 8}";
},
{
name = top;
position = "{153, 456}";
}
);
layerId = "4F9EBE27-C263-4ED9-B2A0-4AD0096E628D";
paths = (
{
closed = 1;
nodes = (
"33 0 LINE",
"273 0 LINE",
"273 456 LINE",
"33 456 LINE"
);
}
);
width = 306;
}
);
leftKerningGroup = idotless;
rightKerningGroup = idotless;
unicode = 0131;
},
{
glyphname = j;
lastChange = "2023-09-17 15:40:37 +0000";
layers = (
{
background = {
paths = (
{
closed = 1;
nodes = (
"90 448 LINE",
"90 41 LINE SMOOTH",
"90 -44 OFFCURVE",
"38 -80 OFFCURVE",
"-50 -80 CURVE SMOOTH",
"-79 -80 OFFCURVE",
"-114 -76 OFFCURVE",
"-142 -66 CURVE",
"-126 -162 LINE",
"-93 -174 OFFCURVE",
"-52 -180 OFFCURVE",
"-12 -180 CURVE SMOOTH",
"126 -180 OFFCURVE",
"210 -100 OFFCURVE",
"210 45 CURVE SMOOTH",
"210 448 LINE"
);
}
);
};
components = (
{
name = jdotless;
},
{
name = dotaccentcomb;
transform = "{1, 0, 0, 1, 44, 0}";
}
);
layerId = "6BCBDBF6-8315-4194-A290-F71994A92467";
width = 266;
},
{
associatedMasterId = "6BCBDBF6-8315-4194-A290-F71994A92467";
layerId = "FDA96D34-3BB1-46B0-87EC-6020D66C7D52";
name = foreground;
paths = (
{
closed = 1;
nodes = (
"146 448 LINE",
"146 50 LINE SMOOTH",
"146 -35 OFFCURVE",
"94 -79 OFFCURVE",
"-7 -79 CURVE SMOOTH",
"-41 -79 OFFCURVE",
"-75 -74 OFFCURVE",
"-104 -65 CURVE",
"-88 -160 LINE",
"-54 -173 OFFCURVE",
"-14 -179 OFFCURVE",
"30 -179 CURVE SMOOTH",
"182 -179 OFFCURVE",
"266 -99 OFFCURVE",
"266 46 CURVE SMOOTH",
"266 448 LINE"
);
},
{
closed = 1;
nodes = (
"144 506 LINE",
"266 506 LINE",
"266 628 LINE",
"144 628 LINE"
);
}
);
width = 330;
},
{
components = (
{
name = jdotless;
},
{
name = dotaccentcomb;
transform = "{1.1, 0, 0, 0.9, -113, 71}";
}
);
layerId = "4F9EBE27-C263-4ED9-B2A0-4AD0096E628D";
width = 344;
}
);
leftKerningGroup = j;
rightKerningGroup = j;
unicode = 006A;
},
{
glyphname = jdotless;
lastChange = "2023-09-17 15:40:37 +0000";
layers = (
{
anchors = (
{
name = bottom;
position = "{133, -172}";
},
{
name = top;
position = "{148, 448}";
}
);
layerId = "6BCBDBF6-8315-4194-A290-F71994A92467";
paths = (
{
closed = 1;
nodes = (
"90 448 LINE",
"90 41 LINE SMOOTH",
"90 -44 OFFCURVE",
"38 -80 OFFCURVE",
"-54 -80 CURVE SMOOTH",
"-82 -80 OFFCURVE",
"-114 -77 OFFCURVE",
"-142 -70 CURVE",
"-126 -165 LINE",
"-93 -174 OFFCURVE",
"-52 -180 OFFCURVE",
"-12 -180 CURVE SMOOTH",
"126 -180 OFFCURVE",
"210 -100 OFFCURVE",
"210 45 CURVE SMOOTH",
"210 448 LINE"
);
}
);
width = 266;
},
{
anchors = (
{
name = bottom;
position = "{180, -160}";
},
{
name = top;
position = "{184, 456}";
}
);
layerId = "4F9EBE27-C263-4ED9-B2A0-4AD0096E628D";
paths = (
{
closed = 1;
nodes = (
"66 456 LINE",
"66 48 LINE SMOOTH",
"66 -6 OFFCURVE",
"39 -45 OFFCURVE",
"-60 -45 CURVE SMOOTH",
"-80 -45 OFFCURVE",
"-109 -43 OFFCURVE",
"-156 -36 CURVE",
"-141 -191 LINE",
"-97 -204 OFFCURVE",
"-50 -208 OFFCURVE",
"-4 -208 CURVE SMOOTH",
"219 -208 OFFCURVE",
"306 -114 OFFCURVE",
"306 -1 CURVE SMOOTH",
"306 456 LINE"
);
}
);
width = 344;
}
);
leftKerningGroup = j;
rightKerningGroup = j;
rightMetricsKey = j;
unicode = 0237;
},
{
glyphname = k;
lastChange = "2023-09-17 15:40:37 +0000";
layers = (
{
anchors = (
{
name = bottom;
position = "{278, 0}";
},
{
name = top;
position = "{284, 628}";
}
);
layerId = "6BCBDBF6-8315-4194-A290-F71994A92467";
paths = (
{
closed = 1;
nodes = (
"412 0 LINE",
"558 0 LINE",
"294 305 LINE",
"210 237 LINE"
);
},
{
closed = 1;
nodes = (
"535 448 LINE",
"369 448 LINE",
"138 262 LINE",
"146 142 LINE"
);
},
{
closed = 1;
nodes = (
"49 0 LINE",
"169 0 LINE",
"169 628 LINE",
"49 628 LINE"
);
}
);
width = 566;
},
{
associatedMasterId = "6BCBDBF6-8315-4194-A290-F71994A92467";
layerId = "CCBDCEAE-D11D-4F36-B4EC-B248A9C83C4B";
name = foreground;
paths = (
{
closed = 1;
nodes = (
"417 0 LINE",
"560 0 LINE",
"296 305 LINE",
"215 237 LINE"
);
},
{
closed = 1;
nodes = (
"540 448 LINE",
"386 448 LINE",
"154 262 LINE",
"152 142 LINE"
);
},
{
closed = 1;
nodes = (
"59 0 LINE",
"174 0 LINE",
"174 628 LINE",
"59 628 LINE"
);
}
);
width = 572;
},
{
anchors = (
{
name = bottom;
position = "{362, 0}";
},
{
name = top;
position = "{362, 640}";
}
);
layerId = "4F9EBE27-C263-4ED9-B2A0-4AD0096E628D";
paths = (
{
closed = 1;
nodes = (
"439 0 LINE",
"714 0 LINE",
"425 305 LINE",
"230 237 LINE"
);
},
{
closed = 1;
nodes = (
"696 456 LINE",
"418 456 LINE",
"133 222 LINE",
"230 86 LINE"
);
},
{
closed = 1;
nodes = (
"28 0 LINE",
"268 0 LINE",
"268 640 LINE",
"28 640 LINE"
);
}
);
width = 723;
}
);
leftKerningGroup = h;
leftMetricsKey = n;
rightKerningGroup = k;
unicode = 006B;
},
{
glyphname = l;
lastChange = "2023-09-17 15:40:37 +0000";
layers = (
{
anchors = (
{
name = bottom;
position = "{110, 0}";
},
{
name = center;
position = "{108, 314}";
},
{
name = top;
position = "{124, 628}";
},
{
name = topright;
position = "{168, 628}";
}
);
layerId = "6BCBDBF6-8315-4194-A290-F71994A92467";
paths = (
{
closed = 1;
nodes = (
"48 0 LINE",
"168 0 LINE",
"168 628 LINE",
"48 628 LINE"
);
}
);
width = 216;
},
{
associatedMasterId = "6BCBDBF6-8315-4194-A290-F71994A92467";
layerId = "E7622B1A-A7CF-4A31-9292-6C6B7BD97724";
name = foreground;
paths = (
{
closed = 1;
nodes = (
"62 0 LINE",
"182 0 LINE",
"182 628 LINE",
"62 628 LINE"
);
}
);
width = 246;
},
{
anchors = (
{
name = bottom;
position = "{153, 0}";
},
{
name = center;
position = "{153, 320}";
},
{
name = top;
position = "{153, 640}";
},
{
name = topright;
position = "{297, 640}";
}
);
layerId = "4F9EBE27-C263-4ED9-B2A0-4AD0096E628D";
paths = (
{
closed = 1;
nodes = (
"33 0 LINE",
"273 0 LINE",
"273 640 LINE",
"33 640 LINE"
);
}
);
width = 306;
}
);
leftKerningGroup = h;
rightKerningGroup = l;
unicode = 006C;
},
{
glyphname = lslash;
lastChange = "2023-09-17 15:40:37 +0000";
layers = (
{
components = (
{
name = l;
transform = "{1, 0, 0, 1, 70, 0}";
}
);
layerId = "6BCBDBF6-8315-4194-A290-F71994A92467";
paths = (
{
closed = 1;
nodes = (
"16 224 LINE",
"348 388 LINE",
"348 491 LINE",
"16 328 LINE"
);
}
);
width = 348;
},
{
components = (
{
name = l;
transform = "{1, 0, 0, 1, 74, 0}";
}
);
layerId = "4F9EBE27-C263-4ED9-B2A0-4AD0096E628D";
paths = (
{
closed = 1;
nodes = (
"12 192 LINE",
"449 391 LINE",
"449 542 LINE",
"12 344 LINE"
);
}
);
width = 461;
}
);
leftKerningGroup = lslash;
rightKerningGroup = lslash;
unicode = 0142;
},
{
glyphname = m;
lastChange = "2023-09-17 15:40:37 +0000";
layers = (
{
anchors = (
{
name = bottom;
position = "{444, 0}";
},
{
name = top;
position = "{444, 448}";
}
);
layerId = "6BCBDBF6-8315-4194-A290-F71994A92467";
paths = (
{
closed = 1;
nodes = (
"191 338 OFFCURVE",
"227 368 OFFCURVE",
"281 368 CURVE SMOOTH",
"344 368 OFFCURVE",
"385 327 OFFCURVE",
"385 262 CURVE SMOOTH",
"385 0 LINE",
"505 0 LINE",
"505 286 LINE SMOOTH",
"505 398 OFFCURVE",
"442 462 OFFCURVE",
"334 462 CURVE SMOOTH",
"246 462 OFFCURVE",
"191 418 OFFCURVE",
"157 322 CURVE",
"158 263 LINE"
);
},
{
closed = 1;
nodes = (
"169 0 LINE",
"169 326 LINE",
"169 332 LINE",
"169 448 LINE",
"49 448 LINE",
"49 0 LINE"
);
},
{
closed = 1;
nodes = (
"527 338 OFFCURVE",
"563 368 OFFCURVE",
"617 368 CURVE SMOOTH",
"680 368 OFFCURVE",
"721 327 OFFCURVE",
"721 262 CURVE SMOOTH",
"721 0 LINE",
"841 0 LINE",
"841 286 LINE SMOOTH",
"841 398 OFFCURVE",
"778 462 OFFCURVE",
"670 462 CURVE SMOOTH",
"583 462 OFFCURVE",
"528 420 OFFCURVE",
"493 330 CURVE",
"494 263 LINE"
);
}
);
width = 886;
},
{
associatedMasterId = "6BCBDBF6-8315-4194-A290-F71994A92467";
layerId = "97B8DC42-6646-42EC-8801-61DBBF0AD42F";
name = foreground;
paths = (
{
closed = 1;
nodes = (
"198 338 OFFCURVE",
"234 368 OFFCURVE",
"288 368 CURVE SMOOTH",
"351 368 OFFCURVE",
"392 327 OFFCURVE",
"392 262 CURVE SMOOTH",
"392 0 LINE",
"512 0 LINE",
"512 286 LINE SMOOTH",
"512 398 OFFCURVE",
"450 462 OFFCURVE",
"341 462 CURVE SMOOTH",
"253 462 OFFCURVE",
"198 418 OFFCURVE",
"164 322 CURVE",
"166 263 LINE"
);
},
{
closed = 1;
nodes = (
"176 0 LINE",
"176 448 LINE",
"56 448 LINE",
"56 0 LINE"
);
},
{
closed = 1;
nodes = (
"534 338 OFFCURVE",
"570 368 OFFCURVE",
"624 368 CURVE SMOOTH",
"687 368 OFFCURVE",
"728 327 OFFCURVE",
"728 262 CURVE SMOOTH",
"728 0 LINE",
"848 0 LINE",
"848 286 LINE SMOOTH",
"848 398 OFFCURVE",
"786 462 OFFCURVE",
"677 462 CURVE SMOOTH",
"589 462 OFFCURVE",
"534 418 OFFCURVE",
"500 322 CURVE",
"502 263 LINE"
);
}
);
width = 884;
},
{
anchors = (
{
name = bottom;
position = "{494, 0}";
},
{
name = top;
position = "{494, 456}";
}
);
layerId = "4F9EBE27-C263-4ED9-B2A0-4AD0096E628D";
paths = (
{
closed = 1;
nodes = (
"269 282 OFFCURVE",
"298 297 OFFCURVE",
"325 297 CURVE SMOOTH",
"354 297 OFFCURVE",
"376 280 OFFCURVE",
"376 241 CURVE SMOOTH",
"376 0 LINE",
"608 0 LINE",
"608 286 LINE SMOOTH",
"608 410 OFFCURVE",
"555 470 OFFCURVE",
"450 470 CURVE SMOOTH",
"354 470 OFFCURVE",
"272 421 OFFCURVE",
"244 303 CURVE",
"258 244 LINE"
);
},
{
closed = 1;
nodes = (
"268 0 LINE",
"268 323 LINE",
"252 323 LINE",
"252 456 LINE",
"28 456 LINE",
"28 0 LINE"
);
},
{
closed = 1;
nodes = (
"613 282 OFFCURVE",
"642 297 OFFCURVE",
"669 297 CURVE SMOOTH",
"698 297 OFFCURVE",
"716 280 OFFCURVE",
"716 241 CURVE SMOOTH",
"716 0 LINE",
"956 0 LINE",
"956 286 LINE SMOOTH",
"956 410 OFFCURVE",
"899 470 OFFCURVE",
"794 470 CURVE SMOOTH",
"698 470 OFFCURVE",
"616 421 OFFCURVE",
"588 303 CURVE",
"602 250 LINE"
);
}
);
width = 990;
}
);
leftKerningGroup = n;
leftMetricsKey = "=n";
rightKerningGroup = n;
rightMetricsKey = "=n";
unicode = 006D;
},
{
glyphname = n;
lastChange = "2023-09-17 15:40:37 +0000";
layers = (
{
anchors = (
{
name = bottom;
position = "{288, 0}";
},
{
name = top;
position = "{288, 448}";
}
);
background = {
paths = (
{
closed = 1;
nodes = (
"182 0 LINE",
"183 281 LINE",
"210 326 OFFCURVE",
"245 368 OFFCURVE",
"318 368 CURVE SMOOTH",
"384 368 OFFCURVE",
"422 334 OFFCURVE",
"422 278 CURVE SMOOTH",
"422 0 LINE",
"542 0 LINE",
"542 302 LINE SMOOTH",
"542 397 OFFCURVE",
"480 462 OFFCURVE",
"366 462 CURVE SMOOTH",
"271 462 OFFCURVE",
"210 418 OFFCURVE",
"183 346 CURVE",
"182 346 LINE",
"182 448 LINE",
"62 448 LINE",
"62 0 LINE"
);
}
);
};
layerId = "6BCBDBF6-8315-4194-A290-F71994A92467";
paths = (
{
closed = 1;
nodes = (
"190 334 OFFCURVE",
"236 368 OFFCURVE",
"299 368 CURVE SMOOTH",
"367 368 OFFCURVE",
"409 328 OFFCURVE",
"409 262 CURVE SMOOTH",
"409 0 LINE",
"529 0 LINE",
"529 286 LINE SMOOTH",
"529 398 OFFCURVE",
"465 462 OFFCURVE",
"350 462 CURVE SMOOTH",
"253 462 OFFCURVE",
"190 416 OFFCURVE",
"157 322 CURVE",
"158 263 LINE"
);
},
{
closed = 1;
nodes = (
"169 0 LINE",
"169 339 LINE",
"169 346 LINE",
"169 448 LINE",
"49 448 LINE",
"49 0 LINE"
);
}
);
width = 574;
},
{
associatedMasterId = "6BCBDBF6-8315-4194-A290-F71994A92467";
layerId = "0D2269CB-5CBE-4D05-9E62-3F74BB4BB3CA";
name = foreground;
paths = (
{
closed = 1;
nodes = (
"187 330 OFFCURVE",
"232 368 OFFCURVE",
"298 368 CURVE SMOOTH",
"361 368 OFFCURVE",
"408 334 OFFCURVE",
"408 262 CURVE SMOOTH",
"408 0 LINE",
"528 0 LINE",
"528 286 LINE SMOOTH",
"528 397 OFFCURVE",
"466 462 OFFCURVE",
"350 462 CURVE SMOOTH",
"252 462 OFFCURVE",
"189 416 OFFCURVE",
"156 322 CURVE",
"158 263 LINE"
);
},
{
closed = 1;
nodes = (
"168 0 LINE",
"168 448 LINE",
"48 448 LINE",
"48 0 LINE"
);
}
);
width = 574;
},
{
anchors = (
{
name = bottom;
position = "{288, 0}";
},
{
name = top;
position = "{288, 448}";
}
);
associatedMasterId = "6BCBDBF6-8315-4194-A290-F71994A92467";
background = {
paths = (
{
closed = 1;
nodes = (
"182 0 LINE",
"183 281 LINE",
"210 326 OFFCURVE",
"245 368 OFFCURVE",
"318 368 CURVE SMOOTH",
"384 368 OFFCURVE",
"422 334 OFFCURVE",
"422 278 CURVE SMOOTH",
"422 0 LINE",
"542 0 LINE",
"542 302 LINE SMOOTH",
"542 397 OFFCURVE",
"480 462 OFFCURVE",
"366 462 CURVE SMOOTH",
"271 462 OFFCURVE",
"210 418 OFFCURVE",
"183 346 CURVE",
"182 346 LINE",
"182 448 LINE",
"62 448 LINE",
"62 0 LINE"
);
}
);
};
layerId = "CC34766A-576C-4AD9-ABED-3F47E726CCC9";
name = "24 Feb 21, 19:13";
paths = (
{
closed = 1;
nodes = (
"188 330 OFFCURVE",
"233 368 OFFCURVE",
"299 368 CURVE SMOOTH",
"367 368 OFFCURVE",
"409 328 OFFCURVE",
"409 262 CURVE SMOOTH",
"409 0 LINE",
"529 0 LINE",
"529 286 LINE SMOOTH",
"529 397 OFFCURVE",
"466 462 OFFCURVE",
"350 462 CURVE SMOOTH",
"253 462 OFFCURVE",
"190 416 OFFCURVE",
"157 322 CURVE",
"158 263 LINE"
);
},
{
closed = 1;
nodes = (
"169 0 LINE",
"169 448 LINE",
"49 448 LINE",
"49 0 LINE"
);
}
);
width = 574;
},
{
anchors = (
{
name = bottom;
position = "{316, 0}";
},
{
name = top;
position = "{316, 456}";
}
);
layerId = "4F9EBE27-C263-4ED9-B2A0-4AD0096E628D";
paths = (
{
closed = 1;
nodes = (
"273 282 OFFCURVE",
"302 297 OFFCURVE",
"329 297 CURVE SMOOTH",
"358 297 OFFCURVE",
"376 280 OFFCURVE",
"376 241 CURVE SMOOTH",
"376 0 LINE",
"616 0 LINE",
"616 286 LINE SMOOTH",
"616 410 OFFCURVE",
"559 470 OFFCURVE",
"454 470 CURVE SMOOTH",
"358 470 OFFCURVE",
"276 421 OFFCURVE",
"248 303 CURVE",
"262 244 LINE"
);
},
{
closed = 1;
nodes = (
"268 0 LINE",
"268 323 LINE",
"252 323 LINE",
"252 456 LINE",
"28 456 LINE",
"28 0 LINE"
);
}
);
width = 650;
}
);
leftKerningGroup = n;
rightKerningGroup = n;
unicode = 006E;
},
{
glyphname = o;
lastChange = "2023-09-18 16:42:01 +0000";
layers = (
{
anchors = (
{
name = bottom;
position = "{296, 0}";
},
{
name = center;
position = "{296, 224}";
},
{
name = ogonek;
position = "{533, 8}";
},
{
name = top;
position = "{296, 448}";
},
{
name = topright;
position = "{576, 448}";
}
);
layerId = "6BCBDBF6-8315-4194-A290-F71994A92467";
paths = (
{
closed = 1;
nodes = (
"459 -17 OFFCURVE",
"564 79 OFFCURVE",
"564 222 CURVE SMOOTH",
"564 366 OFFCURVE",
"459 462 OFFCURVE",
"296 462 CURVE SMOOTH",
"134 462 OFFCURVE",
"28 366 OFFCURVE",
"28 222 CURVE SMOOTH",
"28 79 OFFCURVE",
"133 -17 OFFCURVE",
"296 -17 CURVE SMOOTH"
);
},
{
closed = 1;
nodes = (
"210 80 OFFCURVE",
"151 135 OFFCURVE",
"151 222 CURVE SMOOTH",
"151 310 OFFCURVE",
"210 366 OFFCURVE",
"296 366 CURVE SMOOTH",
"382 366 OFFCURVE",
"441 310 OFFCURVE",
"441 222 CURVE SMOOTH",
"441 135 OFFCURVE",
"382 80 OFFCURVE",
"296 80 CURVE SMOOTH"
);
}
);
width = 592;
},
{
associatedMasterId = "6BCBDBF6-8315-4194-A290-F71994A92467";
layerId = "33C7952E-B253-4866-85CF-B7A8D476FA46";
name = foreground;
paths = (
{
closed = 1;
nodes = (
"459 -17 OFFCURVE",
"564 79 OFFCURVE",
"564 222 CURVE SMOOTH",
"564 366 OFFCURVE",
"459 462 OFFCURVE",
"296 462 CURVE SMOOTH",
"134 462 OFFCURVE",
"28 366 OFFCURVE",
"28 222 CURVE SMOOTH",
"28 79 OFFCURVE",
"133 -17 OFFCURVE",
"296 -17 CURVE SMOOTH"
);
},
{
closed = 1;
nodes = (
"210 80 OFFCURVE",
"151 135 OFFCURVE",
"151 222 CURVE SMOOTH",
"151 310 OFFCURVE",
"210 366 OFFCURVE",
"296 366 CURVE SMOOTH",
"382 366 OFFCURVE",
"441 310 OFFCURVE",
"441 222 CURVE SMOOTH",
"441 135 OFFCURVE",
"382 80 OFFCURVE",
"296 80 CURVE SMOOTH"
);
}
);
width = 592;
},
{
anchors = (
{
name = bottom;
position = "{331, 0}";
},
{
name = center;
position = "{331, 228}";
},
{
name = ogonek;
position = "{594, 8}";
},
{
name = top;
position = "{331, 456}";
},
{
name = topright;
position = "{643, 456}";
}
);
layerId = "4F9EBE27-C263-4ED9-B2A0-4AD0096E628D";
paths = (
{
closed = 1;
nodes = (
"530 -19 OFFCURVE",
"643 70 OFFCURVE",
"643 226 CURVE SMOOTH",
"643 382 OFFCURVE",
"530 476 OFFCURVE",
"331 476 CURVE SMOOTH",
"131 476 OFFCURVE",
"18 382 OFFCURVE",
"18 226 CURVE SMOOTH",
"18 70 OFFCURVE",
"131 -19 OFFCURVE",
"331 -19 CURVE SMOOTH"
);
},
{
closed = 1;
nodes = (
"282 130 OFFCURVE",
"258 163 OFFCURVE",
"258 227 CURVE SMOOTH",
"258 293 OFFCURVE",
"282 328 OFFCURVE",
"331 328 CURVE SMOOTH",
"380 328 OFFCURVE",
"403 293 OFFCURVE",
"403 227 CURVE SMOOTH",
"403 163 OFFCURVE",
"380 130 OFFCURVE",
"331 130 CURVE SMOOTH"
);
}
);
width = 662;
}
);
leftKerningGroup = o;
note = "\012t\012";
rightKerningGroup = o;
unicode = 006F;
},
{
glyphname = oslash;
lastChange = "2023-09-17 15:40:37 +0000";
layers = (
{
components = (
{
name = o;
}
);
layerId = "6BCBDBF6-8315-4194-A290-F71994A92467";
paths = (
{
closed = 1;
nodes = (
"44 28 LINE",
"103 -30 LINE",
"555 417 LINE",
"496 476 LINE"
);
}
);
width = 592;
},
{
components = (
{
name = o;
transform = "{1, 0, 0, 1, 1, 0}";
}
);
layerId = "4F9EBE27-C263-4ED9-B2A0-4AD0096E628D";
paths = (
{
closed = 1;
nodes = (
"30 -6 LINE",
"96 -70 LINE",
"617 450 LINE",
"550 515 LINE"
);
}
);
width = 660;
}
);
leftKerningGroup = o;
rightKerningGroup = o;
unicode = 00F8;
},
{
glyphname = oe;
lastChange = "2023-09-18 16:35:21 +0000";
layers = (
{
anchors = (
{
name = bottom;
position = "{473, 0}";
},
{
name = top;
position = "{473, 448}";
}
);
layerId = "6BCBDBF6-8315-4194-A290-F71994A92467";
paths = (
{
closed = 1;
nodes = (
"459 -17 OFFCURVE",
"540 79 OFFCURVE",
"540 222 CURVE SMOOTH",
"540 366 OFFCURVE",
"459 462 OFFCURVE",
"296 462 CURVE SMOOTH",
"134 462 OFFCURVE",
"28 366 OFFCURVE",
"28 222 CURVE SMOOTH",
"28 79 OFFCURVE",
"133 -17 OFFCURVE",
"296 -17 CURVE SMOOTH"
);
},
{
closed = 1;
nodes = (
"210 80 OFFCURVE",
"151 135 OFFCURVE",
"151 222 CURVE SMOOTH",
"151 310 OFFCURVE",
"210 366 OFFCURVE",
"296 366 CURVE SMOOTH",
"382 366 OFFCURVE",
"441 310 OFFCURVE",
"441 222 CURVE SMOOTH",
"441 135 OFFCURVE",
"382 80 OFFCURVE",
"296 80 CURVE SMOOTH"
);
},
{
closed = 1;
nodes = (
"441 78 OFFCURVE",
"540 -17 OFFCURVE",
"717 -17 CURVE SMOOTH",
"790 -17 OFFCURVE",
"854 -2 OFFCURVE",
"904 26 CURVE",
"916 119 LINE",
"851 91 OFFCURVE",
"793 79 OFFCURVE",
"725 79 CURVE SMOOTH",
"626 79 OFFCURVE",
"559 120 OFFCURVE",
"543 194 CURVE",
"917 194 LINE",
"917 251 LINE SMOOTH",
"917 378 OFFCURVE",
"822 462 OFFCURVE",
"678 462 CURVE SMOOTH",
"524 462 OFFCURVE",
"441 369 OFFCURVE",
"441 223 CURVE SMOOTH"
);
},
{
closed = 1;
nodes = (
"546 334 OFFCURVE",
"594 370 OFFCURVE",
"678 370 CURVE SMOOTH",
"758 370 OFFCURVE",
"802 335 OFFCURVE",
"806 266 CURVE",
"542 266 LINE"
);
}
);
width = 945;
},
{
anchors = (
{
name = bottom;
position = "{516, 0}";
},
{
name = top;
position = "{516, 456}";
}
);
layerId = "4F9EBE27-C263-4ED9-B2A0-4AD0096E628D";
paths = (
{
closed = 1;
nodes = (
"530 -19 OFFCURVE",
"611 70 OFFCURVE",
"611 226 CURVE SMOOTH",
"611 382 OFFCURVE",
"530 476 OFFCURVE",
"331 476 CURVE SMOOTH",
"131 476 OFFCURVE",
"18 382 OFFCURVE",
"18 226 CURVE SMOOTH",
"18 70 OFFCURVE",
"131 -19 OFFCURVE",
"331 -19 CURVE SMOOTH"
);
},
{
closed = 1;
nodes = (
"282 130 OFFCURVE",
"258 163 OFFCURVE",
"258 227 CURVE SMOOTH",
"258 293 OFFCURVE",
"282 328 OFFCURVE",
"331 328 CURVE SMOOTH",
"380 328 OFFCURVE",
"403 293 OFFCURVE",
"403 227 CURVE SMOOTH",
"403 163 OFFCURVE",
"380 130 OFFCURVE",
"331 130 CURVE SMOOTH"
);
},
{
closed = 1;
nodes = (
"445 69 OFFCURVE",
"542 -19 OFFCURVE",
"769 -19 CURVE SMOOTH",
"863 -19 OFFCURVE",
"933 -6 OFFCURVE",
"1002 21 CURVE",
"1008 153 LINE",
"943 133 OFFCURVE",
"869 121 OFFCURVE",
"808 121 CURVE SMOOTH",
"719 121 OFFCURVE",
"666 144 OFFCURVE",
"643 194 CURVE",
"1009 194 LINE",
"1009 251 LINE SMOOTH",
"1009 389 OFFCURVE",
"900 478 OFFCURVE",
"730 478 CURVE SMOOTH",
"530 478 OFFCURVE",
"445 383 OFFCURVE",
"445 223 CURVE SMOOTH"
);
},
{
closed = 1;
nodes = (
"642 314 OFFCURVE",
"668 346 OFFCURVE",
"712 346 CURVE SMOOTH",
"754 346 OFFCURVE",
"778 314 OFFCURVE",
"778 266 CURVE",
"642 266 LINE"
);
}
);
width = 1032;
}
);
leftKerningGroup = o;
leftMetricsKey = o;
rightKerningGroup = e;
rightMetricsKey = e;
unicode = 0153;
},
{
glyphname = p;
lastChange = "2023-09-17 15:40:37 +0000";
layers = (
{
anchors = (
{
name = bottom;
position = "{295, 0}";
},
{
name = top;
position = "{295, 448}";
}
);
layerId = "6BCBDBF6-8315-4194-A290-F71994A92467";
paths = (
{
closed = 1;
nodes = (
"481 -17 OFFCURVE",
"576 78 OFFCURVE",
"576 221 CURVE SMOOTH",
"576 362 OFFCURVE",
"480 462 OFFCURVE",
"352 462 CURVE SMOOTH",
"275 462 OFFCURVE",
"211 426 OFFCURVE",
"169 356 CURVE",
"169 448 LINE",
"49 448 LINE",
"49 -172 LINE",
"169 -172 LINE",
"169 80 LINE",
"206 18 OFFCURVE",
"274 -17 OFFCURVE",
"352 -17 CURVE SMOOTH"
);
},
{
closed = 1;
nodes = (
"223 78 OFFCURVE",
"165 134 OFFCURVE",
"165 217 CURVE SMOOTH",
"165 225 LINE SMOOTH",
"165 310 OFFCURVE",
"222 366 OFFCURVE",
"309 366 CURVE SMOOTH",
"396 366 OFFCURVE",
"453 309 OFFCURVE",
"453 222 CURVE SMOOTH",
"453 136 OFFCURVE",
"396 78 OFFCURVE",
"309 78 CURVE SMOOTH"
);
}
);
width = 604;
},
{
associatedMasterId = "6BCBDBF6-8315-4194-A290-F71994A92467";
layerId = "063FBBF9-AA71-4833-A30A-A19DBE1EBE4C";
name = foreground;
paths = (
{
closed = 1;
nodes = (
"480 -17 OFFCURVE",
"575 78 OFFCURVE",
"575 217 CURVE SMOOTH",
"575 358 OFFCURVE",
"479 458 OFFCURVE",
"351 458 CURVE SMOOTH",
"274 458 OFFCURVE",
"210 422 OFFCURVE",
"168 352 CURVE",
"168 448 LINE",
"48 448 LINE",
"48 -160 LINE",
"168 -160 LINE",
"168 76 LINE",
"205 18 OFFCURVE",
"272 -17 OFFCURVE",
"350 -17 CURVE SMOOTH"
);
},
{
closed = 1;
nodes = (
"222 74 OFFCURVE",
"164 130 OFFCURVE",
"164 213 CURVE SMOOTH",
"164 221 LINE SMOOTH",
"164 306 OFFCURVE",
"222 362 OFFCURVE",
"308 362 CURVE SMOOTH",
"395 362 OFFCURVE",
"452 305 OFFCURVE",
"452 218 CURVE SMOOTH",
"452 132 OFFCURVE",
"395 74 OFFCURVE",
"308 74 CURVE SMOOTH"
);
}
);
width = 603;
},
{
anchors = (
{
name = bottom;
position = "{348, 0}";
},
{
name = top;
position = "{348, 456}";
}
);
layerId = "4F9EBE27-C263-4ED9-B2A0-4AD0096E628D";
paths = (
{
closed = 1;
nodes = (
"596 -19 OFFCURVE",
"675 88 OFFCURVE",
"675 231 CURVE SMOOTH",
"675 373 OFFCURVE",
"589 474 OFFCURVE",
"453 474 CURVE SMOOTH",
"368 474 OFFCURVE",
"310 438 OFFCURVE",
"268 366 CURVE",
"268 456 LINE",
"28 456 LINE",
"28 -184 LINE",
"268 -184 LINE",
"268 90 LINE",
"305 17 OFFCURVE",
"373 -19 OFFCURVE",
"458 -19 CURVE SMOOTH"
);
},
{
closed = 1;
nodes = (
"308 118 OFFCURVE",
"286 154 OFFCURVE",
"286 221 CURVE SMOOTH",
"286 227 LINE SMOOTH",
"286 290 OFFCURVE",
"313 326 OFFCURVE",
"353 326 CURVE SMOOTH",
"398 326 OFFCURVE",
"419 290 OFFCURVE",
"419 222 CURVE SMOOTH",
"419 154 OFFCURVE",
"398 118 OFFCURVE",
"353 118 CURVE SMOOTH"
);
}
);
width = 694;
}
);
leftKerningGroup = p;
leftMetricsKey = b;
rightKerningGroup = o;
rightMetricsKey = b;
unicode = 0070;
},
{
glyphname = thorn;
lastChange = "2023-09-17 15:40:37 +0000";
layers = (
{
layerId = "6BCBDBF6-8315-4194-A290-F71994A92467";
paths = (
{
closed = 1;
nodes = (
"480 -17 OFFCURVE",
"575 78 OFFCURVE",
"575 221 CURVE SMOOTH",
"575 362 OFFCURVE",
"479 462 OFFCURVE",
"351 462 CURVE SMOOTH",
"274 462 OFFCURVE",
"210 426 OFFCURVE",
"168 356 CURVE",
"168 628 LINE",
"48 628 LINE",
"48 -172 LINE",
"168 -172 LINE",
"168 80 LINE",
"205 18 OFFCURVE",
"273 -17 OFFCURVE",
"351 -17 CURVE SMOOTH"
);
},
{
closed = 1;
nodes = (
"222 78 OFFCURVE",
"164 134 OFFCURVE",
"164 217 CURVE SMOOTH",
"164 225 LINE SMOOTH",
"164 310 OFFCURVE",
"222 366 OFFCURVE",
"308 366 CURVE SMOOTH",
"395 366 OFFCURVE",
"452 309 OFFCURVE",
"452 222 CURVE SMOOTH",
"452 136 OFFCURVE",
"395 78 OFFCURVE",
"308 78 CURVE SMOOTH"
);
}
);
width = 603;
},
{
layerId = "4F9EBE27-C263-4ED9-B2A0-4AD0096E628D";
paths = (
{
closed = 1;
nodes = (
"596 -19 OFFCURVE",
"675 88 OFFCURVE",
"675 231 CURVE SMOOTH",
"675 373 OFFCURVE",
"589 474 OFFCURVE",
"453 474 CURVE SMOOTH",
"368 474 OFFCURVE",
"310 438 OFFCURVE",
"268 366 CURVE",
"268 640 LINE",
"28 640 LINE",
"28 -184 LINE",
"268 -184 LINE",
"268 90 LINE",
"305 17 OFFCURVE",
"373 -19 OFFCURVE",
"458 -19 CURVE SMOOTH"
);
},
{
closed = 1;
nodes = (
"308 118 OFFCURVE",
"286 154 OFFCURVE",
"286 221 CURVE SMOOTH",
"286 227 LINE SMOOTH",
"286 290 OFFCURVE",
"313 326 OFFCURVE",
"353 326 CURVE SMOOTH",
"398 326 OFFCURVE",
"419 290 OFFCURVE",
"419 222 CURVE SMOOTH",
"419 154 OFFCURVE",
"398 118 OFFCURVE",
"353 118 CURVE SMOOTH"
);
}
);
width = 694;
}
);
leftKerningGroup = h;
rightKerningGroup = o;
rightMetricsKey = p;
unicode = 00FE;
},
{
glyphname = q;
lastChange = "2023-09-17 15:40:37 +0000";
layers = (
{
anchors = (
{
name = bottom;
position = "{306, 0}";
},
{
name = top;
position = "{306, 448}";
}
);
background = {
paths = (
{
closed = 1;
nodes = (
"324 -21 OFFCURVE",
"394 16 OFFCURVE",
"435 80 CURVE",
"435 -168 LINE",
"555 -168 LINE",
"555 448 LINE",
"435 448 LINE",
"435 360 LINE",
"390 422 OFFCURVE",
"326 458 OFFCURVE",
"247 458 CURVE SMOOTH",
"118 458 OFFCURVE",
"28 359 OFFCURVE",
"28 220 CURVE SMOOTH",
"28 74 OFFCURVE",
"126 -21 OFFCURVE",
"248 -21 CURVE SMOOTH"
);
},
{
closed = 1;
nodes = (
"206 74 OFFCURVE",
"151 132 OFFCURVE",
"151 218 CURVE SMOOTH",
"151 305 OFFCURVE",
"207 362 OFFCURVE",
"294 362 CURVE SMOOTH",
"380 362 OFFCURVE",
"439 306 OFFCURVE",
"439 221 CURVE SMOOTH",
"439 213 LINE SMOOTH",
"439 130 OFFCURVE",
"379 74 OFFCURVE",
"294 74 CURVE SMOOTH"
);
}
);
};
layerId = "6BCBDBF6-8315-4194-A290-F71994A92467";
paths = (
{
closed = 1;
nodes = (
"324 -17 OFFCURVE",
"394 20 OFFCURVE",
"435 84 CURVE",
"435 -172 LINE",
"555 -172 LINE",
"555 448 LINE",
"435 448 LINE",
"435 364 LINE",
"390 426 OFFCURVE",
"326 462 OFFCURVE",
"247 462 CURVE SMOOTH",
"118 462 OFFCURVE",
"28 363 OFFCURVE",
"28 224 CURVE SMOOTH",
"28 78 OFFCURVE",
"126 -17 OFFCURVE",
"248 -17 CURVE SMOOTH"
);
},
{
closed = 1;
nodes = (
"206 78 OFFCURVE",
"151 136 OFFCURVE",
"151 222 CURVE SMOOTH",
"151 309 OFFCURVE",
"207 366 OFFCURVE",
"294 366 CURVE SMOOTH",
"380 366 OFFCURVE",
"439 310 OFFCURVE",
"439 225 CURVE SMOOTH",
"439 217 LINE SMOOTH",
"439 134 OFFCURVE",
"379 78 OFFCURVE",
"294 78 CURVE SMOOTH"
);
}
);
width = 611;
},
{
associatedMasterId = "6BCBDBF6-8315-4194-A290-F71994A92467";
layerId = "EA6C9805-BDE1-4741-A9A4-6DF2A9EB26B6";
name = foreground;
paths = (
{
closed = 1;
nodes = (
"338 -21 OFFCURVE",
"408 16 OFFCURVE",
"449 80 CURVE",
"449 -168 LINE",
"569 -168 LINE",
"569 448 LINE",
"449 448 LINE",
"449 360 LINE",
"404 422 OFFCURVE",
"339 458 OFFCURVE",
"261 458 CURVE SMOOTH",
"131 458 OFFCURVE",
"42 359 OFFCURVE",
"42 220 CURVE SMOOTH",
"42 74 OFFCURVE",
"140 -21 OFFCURVE",
"262 -21 CURVE SMOOTH"
);
},
{
closed = 1;
nodes = (
"220 74 OFFCURVE",
"165 132 OFFCURVE",
"165 218 CURVE SMOOTH",
"165 305 OFFCURVE",
"221 362 OFFCURVE",
"307 362 CURVE SMOOTH",
"394 362 OFFCURVE",
"453 306 OFFCURVE",
"453 221 CURVE SMOOTH",
"453 213 LINE SMOOTH",
"453 130 OFFCURVE",
"393 74 OFFCURVE",
"307 74 CURVE SMOOTH"
);
}
);
width = 630;
},
{
anchors = (
{
name = bottom;
position = "{345, 0}";
},
{
name = top;
position = "{345, 456}";
}
);
layerId = "4F9EBE27-C263-4ED9-B2A0-4AD0096E628D";
paths = (
{
closed = 1;
nodes = (
"306 -19 OFFCURVE",
"380 14 OFFCURVE",
"422 111 CURVE",
"422 -184 LINE",
"662 -184 LINE",
"662 456 LINE",
"422 456 LINE",
"422 359 LINE",
"378 438 OFFCURVE",
"302 475 OFFCURVE",
"226 475 CURVE SMOOTH",
"101 475 OFFCURVE",
"18 378 OFFCURVE",
"18 234 CURVE SMOOTH",
"18 80 OFFCURVE",
"104 -19 OFFCURVE",
"230 -19 CURVE SMOOTH"
);
},
{
closed = 1;
nodes = (
"292 129 OFFCURVE",
"270 166 OFFCURVE",
"270 233 CURVE SMOOTH",
"270 301 OFFCURVE",
"292 338 OFFCURVE",
"337 338 CURVE SMOOTH",
"382 338 OFFCURVE",
"404 301 OFFCURVE",
"404 234 CURVE SMOOTH",
"404 228 LINE SMOOTH",
"404 165 OFFCURVE",
"377 130 OFFCURVE",
"337 130 CURVE SMOOTH"
);
}
);
width = 691;
}
);
leftKerningGroup = o;
leftMetricsKey = o;
rightKerningGroup = d;
unicode = 0071;
},
{
glyphname = r;
lastChange = "2023-09-17 15:40:37 +0000";
layers = (
{
anchors = (
{
name = bottom;
position = "{126, 0}";
},
{
name = top;
position = "{198, 448}";
}
);
layerId = "6BCBDBF6-8315-4194-A290-F71994A92467";
paths = (
{
closed = 1;
nodes = (
"169 0 LINE",
"169 293 LINE",
"202 326 OFFCURVE",
"249 344 OFFCURVE",
"302 344 CURVE SMOOTH",
"326 344 OFFCURVE",
"352 341 OFFCURVE",
"379 334 CURVE",
"379 452 LINE",
"368 454 OFFCURVE",
"357 454 OFFCURVE",
"346 454 CURVE SMOOTH",
"273 454 OFFCURVE",
"202 419 OFFCURVE",
"166 343 CURVE",
"166 448 LINE",
"49 448 LINE",
"49 0 LINE"
);
}
);
width = 395;
},
{
associatedMasterId = "6BCBDBF6-8315-4194-A290-F71994A92467";
layerId = "D0FF9CF2-91C5-48A6-9879-57B30D7213DD";
name = foreground;
paths = (
{
closed = 1;
nodes = (
"182 0 LINE",
"182 293 LINE",
"230 342 OFFCURVE",
"305 356 OFFCURVE",
"392 334 CURVE",
"392 452 LINE",
"309 465 OFFCURVE",
"220 431 OFFCURVE",
"178 343 CURVE",
"178 448 LINE",
"62 448 LINE",
"62 0 LINE"
);
}
);
width = 408;
},
{
anchors = (
{
name = bottom;
position = "{246, 0}";
},
{
name = top;
position = "{246, 456}";
}
);
layerId = "4F9EBE27-C263-4ED9-B2A0-4AD0096E628D";
paths = (
{
closed = 1;
nodes = (
"268 0 LINE",
"268 254 LINE",
"311 270 OFFCURVE",
"342 275 OFFCURVE",
"378 275 CURVE SMOOTH",
"407 275 OFFCURVE",
"430 271 OFFCURVE",
"470 260 CURVE",
"470 463 LINE",
"458 465 OFFCURVE",
"447 466 OFFCURVE",
"436 466 CURVE SMOOTH",
"357 466 OFFCURVE",
"301 425 OFFCURVE",
"265 326 CURVE",
"265 456 LINE",
"28 456 LINE",
"28 0 LINE"
);
}
);
width = 490;
}
);
leftKerningGroup = n;
leftMetricsKey = n;
rightKerningGroup = r;
unicode = 0072;
},
{
glyphname = s;
lastChange = "2023-09-17 15:40:37 +0000";
layers = (
{
anchors = (
{
name = bottom;
position = "{249, 0}";
},
{
name = top;
position = "{256, 448}";
}
);
background = {
paths = (
{
closed = 1;
nodes = (
"40 150 OFFCURVE",
"397 215 OFFCURVE",
"397 126 CURVE SMOOTH",
"397 93 OFFCURVE",
"353 74 OFFCURVE",
"270 74 CURVE SMOOTH",
"193 74 OFFCURVE",
"133 90 OFFCURVE",
"46 136 CURVE",
"46 36 LINE",
"120 0 OFFCURVE",
"194 -17 OFFCURVE",
"282 -17 CURVE SMOOTH",
"427 -17 OFFCURVE",
"510 30 OFFCURVE",
"510 124 CURVE SMOOTH",
"510 318 OFFCURVE",
"153 249 OFFCURVE",
"153 323 CURVE SMOOTH",
"153 355 OFFCURVE",
"194 371 OFFCURVE",
"274 371 CURVE SMOOTH",
"364 371 OFFCURVE",
"415 359 OFFCURVE",
"474 333 CURVE",
"474 428 LINE",
"414 453 OFFCURVE",
"356 462 OFFCURVE",
"278 462 CURVE SMOOTH",
"129 462 OFFCURVE",
"40 415 OFFCURVE",
"40 320 CURVE SMOOTH"
);
}
);
};
layerId = "6BCBDBF6-8315-4194-A290-F71994A92467";
paths = (
{
closed = 1;
nodes = (
"37 140 OFFCURVE",
"380 224 OFFCURVE",
"380 127 CURVE SMOOTH",
"380 93 OFFCURVE",
"336 74 OFFCURVE",
"258 74 CURVE SMOOTH",
"184 74 OFFCURVE",
"118 90 OFFCURVE",
"40 129 CURVE",
"47 28 LINE",
"114 -3 OFFCURVE",
"185 -17 OFFCURVE",
"266 -17 CURVE SMOOTH",
"411 -17 OFFCURVE",
"493 30 OFFCURVE",
"493 126 CURVE SMOOTH",
"493 327 OFFCURVE",
"147 238 OFFCURVE",
"147 326 CURVE SMOOTH",
"147 355 OFFCURVE",
"187 371 OFFCURVE",
"267 371 CURVE SMOOTH",
"342 371 OFFCURVE",
"403 358 OFFCURVE",
"462 335 CURVE",
"458 433 LINE",
"406 451 OFFCURVE",
"348 462 OFFCURVE",
"271 462 CURVE SMOOTH",
"120 462 OFFCURVE",
"37 415 OFFCURVE",
"37 326 CURVE SMOOTH"
);
}
);
width = 520;
},
{
associatedMasterId = "6BCBDBF6-8315-4194-A290-F71994A92467";
layerId = "5C3E432C-D29B-46A5-8E56-B797E9351750";
name = foreground;
paths = (
{
closed = 1;
nodes = (
"32 150 OFFCURVE",
"379 215 OFFCURVE",
"379 126 CURVE SMOOTH",
"379 93 OFFCURVE",
"336 74 OFFCURVE",
"254 74 CURVE SMOOTH",
"182 74 OFFCURVE",
"126 89 OFFCURVE",
"46 124 CURVE",
"46 26 LINE",
"114 -2 OFFCURVE",
"183 -17 OFFCURVE",
"266 -17 CURVE SMOOTH",
"410 -17 OFFCURVE",
"492 30 OFFCURVE",
"492 124 CURVE SMOOTH",
"492 318 OFFCURVE",
"145 249 OFFCURVE",
"145 323 CURVE SMOOTH",
"145 355 OFFCURVE",
"184 371 OFFCURVE",
"258 371 CURVE SMOOTH",
"347 371 OFFCURVE",
"398 359 OFFCURVE",
"457 333 CURVE",
"457 428 LINE",
"398 453 OFFCURVE",
"339 462 OFFCURVE",
"262 462 CURVE SMOOTH",
"118 462 OFFCURVE",
"32 415 OFFCURVE",
"32 320 CURVE SMOOTH"
);
}
);
width = 512;
},
{
anchors = (
{
name = bottom;
position = "{254, 0}";
},
{
name = top;
position = "{256, 448}";
}
);
associatedMasterId = "6BCBDBF6-8315-4194-A290-F71994A92467";
background = {
paths = (
{
closed = 1;
nodes = (
"40 150 OFFCURVE",
"397 215 OFFCURVE",
"397 126 CURVE SMOOTH",
"397 93 OFFCURVE",
"353 74 OFFCURVE",
"270 74 CURVE SMOOTH",
"193 74 OFFCURVE",
"133 90 OFFCURVE",
"46 136 CURVE",
"46 36 LINE",
"120 0 OFFCURVE",
"194 -17 OFFCURVE",
"282 -17 CURVE SMOOTH",
"427 -17 OFFCURVE",
"510 30 OFFCURVE",
"510 124 CURVE SMOOTH",
"510 318 OFFCURVE",
"153 249 OFFCURVE",
"153 323 CURVE SMOOTH",
"153 355 OFFCURVE",
"194 371 OFFCURVE",
"274 371 CURVE SMOOTH",
"364 371 OFFCURVE",
"415 359 OFFCURVE",
"474 333 CURVE",
"474 428 LINE",
"414 453 OFFCURVE",
"356 462 OFFCURVE",
"278 462 CURVE SMOOTH",
"129 462 OFFCURVE",
"40 415 OFFCURVE",
"40 320 CURVE SMOOTH"
);
}
);
};
layerId = "99EC8D6D-99C4-414A-AD90-E344F1D3F0A9";
name = "19 Apr 21, 13:59";
paths = (
{
closed = 1;
nodes = (
"33 146 OFFCURVE",
"379 215 OFFCURVE",
"379 125 CURVE SMOOTH",
"379 93 OFFCURVE",
"336 74 OFFCURVE",
"254 74 CURVE SMOOTH",
"184 74 OFFCURVE",
"121 89 OFFCURVE",
"40 124 CURVE",
"47 26 LINE",
"116 -2 OFFCURVE",
"185 -17 OFFCURVE",
"266 -17 CURVE SMOOTH",
"410 -17 OFFCURVE",
"492 30 OFFCURVE",
"492 124 CURVE SMOOTH",
"492 318 OFFCURVE",
"146 246 OFFCURVE",
"146 327 CURVE SMOOTH",
"146 355 OFFCURVE",
"185 371 OFFCURVE",
"267 371 CURVE SMOOTH",
"342 371 OFFCURVE",
"402 357 OFFCURVE",
"462 330 CURVE",
"457 428 LINE",
"398 453 OFFCURVE",
"334 462 OFFCURVE",
"271 462 CURVE SMOOTH",
"118 462 OFFCURVE",
"33 415 OFFCURVE",
"33 329 CURVE SMOOTH"
);
}
);
width = 520;
},
{
anchors = (
{
name = bottom;
position = "{301, 0}";
},
{
name = top;
position = "{301, 456}";
}
);
layerId = "4F9EBE27-C263-4ED9-B2A0-4AD0096E628D";
paths = (
{
closed = 1;
nodes = (
"28 107 OFFCURVE",
"354 214 OFFCURVE",
"354 140 CURVE SMOOTH",
"354 114 OFFCURVE",
"316 108 OFFCURVE",
"271 108 CURVE SMOOTH",
"195 108 OFFCURVE",
"111 126 OFFCURVE",
"34 158 CURVE",
"41 23 LINE",
"102 -5 OFFCURVE",
"202 -22 OFFCURVE",
"302 -22 CURVE SMOOTH",
"498 -22 OFFCURVE",
"586 35 OFFCURVE",
"586 142 CURVE SMOOTH",
"586 350 OFFCURVE",
"246 265 OFFCURVE",
"246 326 CURVE SMOOTH",
"246 343 OFFCURVE",
"273 350 OFFCURVE",
"333 350 CURVE SMOOTH",
"418 350 OFFCURVE",
"502 336 OFFCURVE",
"565 314 CURVE",
"555 442 LINE",
"501 460 OFFCURVE",
"426 480 OFFCURVE",
"313 480 CURVE SMOOTH",
"134 480 OFFCURVE",
"28 438 OFFCURVE",
"28 315 CURVE SMOOTH"
);
}
);
width = 606;
},
{
anchors = (
{
name = bottom;
position = "{254, 0}";
},
{
name = top;
position = "{256, 448}";
}
);
associatedMasterId = "6BCBDBF6-8315-4194-A290-F71994A92467";
background = {
paths = (
{
closed = 1;
nodes = (
"40 150 OFFCURVE",
"397 215 OFFCURVE",
"397 126 CURVE SMOOTH",
"397 93 OFFCURVE",
"353 74 OFFCURVE",
"270 74 CURVE SMOOTH",
"193 74 OFFCURVE",
"133 90 OFFCURVE",
"46 136 CURVE",
"46 36 LINE",
"120 0 OFFCURVE",
"194 -17 OFFCURVE",
"282 -17 CURVE SMOOTH",
"427 -17 OFFCURVE",
"510 30 OFFCURVE",
"510 124 CURVE SMOOTH",
"510 318 OFFCURVE",
"153 249 OFFCURVE",
"153 323 CURVE SMOOTH",
"153 355 OFFCURVE",
"194 371 OFFCURVE",
"274 371 CURVE SMOOTH",
"364 371 OFFCURVE",
"415 359 OFFCURVE",
"474 333 CURVE",
"474 428 LINE",
"414 453 OFFCURVE",
"356 462 OFFCURVE",
"278 462 CURVE SMOOTH",
"129 462 OFFCURVE",
"40 415 OFFCURVE",
"40 320 CURVE SMOOTH"
);
}
);
};
layerId = "584DB07F-B8C2-47E6-82D6-7C903F932CC7";
name = "18 Oct 21, 23:32";
paths = (
{
closed = 1;
nodes = (
"37 140 OFFCURVE",
"380 215 OFFCURVE",
"380 125 CURVE SMOOTH",
"380 93 OFFCURVE",
"336 74 OFFCURVE",
"258 74 CURVE SMOOTH",
"184 74 OFFCURVE",
"118 90 OFFCURVE",
"40 129 CURVE",
"47 28 LINE",
"114 -3 OFFCURVE",
"185 -17 OFFCURVE",
"266 -17 CURVE SMOOTH",
"411 -17 OFFCURVE",
"493 30 OFFCURVE",
"493 124 CURVE SMOOTH",
"493 318 OFFCURVE",
"147 238 OFFCURVE",
"147 326 CURVE SMOOTH",
"147 355 OFFCURVE",
"187 371 OFFCURVE",
"267 371 CURVE SMOOTH",
"342 371 OFFCURVE",
"402 357 OFFCURVE",
"462 330 CURVE",
"457 428 LINE",
"406 450 OFFCURVE",
"348 462 OFFCURVE",
"271 462 CURVE SMOOTH",
"120 462 OFFCURVE",
"37 415 OFFCURVE",
"37 326 CURVE SMOOTH"
);
}
);
width = 520;
}
);
leftKerningGroup = s;
rightKerningGroup = s;
unicode = 0073;
},
{
glyphname = germandbls;
lastChange = "2023-09-18 16:35:21 +0000";
layers = (
{
anchors = (
{
name = bottom;
position = "{365, 0}";
},
{
name = top;
position = "{365, 448}";
}
);
layerId = "6BCBDBF6-8315-4194-A290-F71994A92467";
paths = (
{
closed = 1;
nodes = (
"230 0 LINE",
"230 452 LINE SMOOTH",
"230 514 OFFCURVE",
"275 540 OFFCURVE",
"373 540 CURVE SMOOTH",
"463 540 OFFCURVE",
"512 522 OFFCURVE",
"512 487 CURVE SMOOTH",
"512 416 OFFCURVE",
"305 448 OFFCURVE",
"305 310 CURVE SMOOTH",
"305 150 OFFCURVE",
"589 215 OFFCURVE",
"589 130 CURVE SMOOTH",
"589 92 OFFCURVE",
"534 74 OFFCURVE",
"473 74 CURVE SMOOTH",
"421 74 OFFCURVE",
"358 87 OFFCURVE",
"302 112 CURVE",
"302 18 LINE",
"358 -5 OFFCURVE",
"429 -17 OFFCURVE",
"494 -17 CURVE SMOOTH",
"616 -17 OFFCURVE",
"709 30 OFFCURVE",
"709 130 CURVE SMOOTH",
"709 318 OFFCURVE",
"425 228 OFFCURVE",
"425 314 CURVE SMOOTH",
"425 387 OFFCURVE",
"632 335 OFFCURVE",
"632 490 CURVE SMOOTH",
"632 584 OFFCURVE",
"557 632 OFFCURVE",
"377 632 CURVE SMOOTH",
"206 632 OFFCURVE",
"110 565 OFFCURVE",
"110 454 CURVE SMOOTH",
"110 0 LINE"
);
},
{
closed = 1;
nodes = (
"126 448 LINE",
"8 448 LINE",
"8 356 LINE",
"126 356 LINE"
);
}
);
width = 736;
},
{
associatedMasterId = "6BCBDBF6-8315-4194-A290-F71994A92467";
layerId = "578FCA1A-77AF-4F03-9790-B667237A42DB";
name = foreground;
width = 491;
},
{
anchors = (
{
name = bottom;
position = "{442, 0}";
},
{
name = top;
position = "{442, 640}";
}
);
layerId = "4F9EBE27-C263-4ED9-B2A0-4AD0096E628D";
paths = (
{
closed = 1;
nodes = (
"346 0 LINE",
"346 436 LINE SMOOTH",
"346 476 OFFCURVE",
"385 502 OFFCURVE",
"455 502 CURVE SMOOTH",
"513 502 OFFCURVE",
"549 486 OFFCURVE",
"549 463 CURVE SMOOTH",
"549 414 OFFCURVE",
"382 448 OFFCURVE",
"382 310 CURVE SMOOTH",
"382 150 OFFCURVE",
"626 214 OFFCURVE",
"626 146 CURVE SMOOTH",
"626 126 OFFCURVE",
"602 110 OFFCURVE",
"547 110 CURVE SMOOTH",
"497 110 OFFCURVE",
"435 123 OFFCURVE",
"379 148 CURVE",
"379 18 LINE",
"435 -5 OFFCURVE",
"506 -17 OFFCURVE",
"586 -17 CURVE SMOOTH",
"770 -17 OFFCURVE",
"866 34 OFFCURVE",
"866 138 CURVE SMOOTH",
"866 318 OFFCURVE",
"613 258 OFFCURVE",
"613 328 CURVE SMOOTH",
"613 387 OFFCURVE",
"789 343 OFFCURVE",
"789 491 CURVE SMOOTH",
"789 602 OFFCURVE",
"674 648 OFFCURVE",
"466 648 CURVE SMOOTH",
"226 648 OFFCURVE",
"106 582 OFFCURVE",
"106 454 CURVE SMOOTH",
"106 0 LINE"
);
},
{
closed = 1;
nodes = (
"122 426 LINE",
"5 426 LINE",
"5 278 LINE",
"122 278 LINE"
);
}
);
width = 886;
}
);
leftKerningGroup = h;
leftMetricsKey = f;
rightKerningGroup = germandbls;
rightMetricsKey = s;
unicode = 00DF;
},
